<?xml version="1.0" standalone="no"?>
<!DOCTYPE svg PUBLIC "-//W3C//DTD SVG 1.1//EN" "http://www.w3.org/Graphics/SVG/1.1/DTD/svg11.dtd" >
<svg>
<metadata>
Created by FontForge 20090622 at Wed Oct  5 09:18:02 2016
 By deploy user
Copyright (c) 2010 by Typemade. All rights reserved.
</metadata>
<defs>
<font id="JosefinSans-ThinItalic" horiz-adv-x="508" >
  <font-face 
    font-family="Josefin Sans"
    font-weight="250"
    font-style="italic"
    font-stretch="normal"
    units-per-em="1000"
    panose-1="0 0 0 0 0 0 0 0 0 0"
    ascent="750"
    descent="-250"
    x-height="375"
    cap-height="700"
    bbox="-121 -233 954 931"
    underline-thickness="50"
    underline-position="-50"
    slope="-7.5"
    unicode-range="U+000D-U+FB02"
  />
<missing-glyph horiz-adv-x="300" 
 />
    <glyph glyph-name=".notdef" horiz-adv-x="300" 
 />
    <glyph glyph-name=".null" horiz-adv-x="0" 
 />
    <glyph glyph-name=".null" horiz-adv-x="0" 
 />
    <glyph glyph-name="nonmarkingreturn" unicode="&#xd;" horiz-adv-x="300" 
 />
    <glyph glyph-name="space" unicode=" " horiz-adv-x="264" 
 />
    <glyph glyph-name="t" unicode="t" horiz-adv-x="261" 
d="M139 539h14l-21 -172h127l-2 -14h-127l-43 -353h-14l43 353h-89l2 14h89z" />
    <glyph glyph-name="b" unicode="b" 
d="M440 188q4 37 -6 70t-31 58t-52.5 39t-68.5 14q-41 0 -77.5 -16t-65 -43t-45 -63.5t-16.5 -76.5q0 -34 12 -63.5t33.5 -51.5t50.5 -34.5t64 -12.5q37 0 72 14t62 38.5t45 57t23 70.5zM454 188q-5 -41 -24.5 -76t-49 -61.5t-67 -41.5t-77.5 -15q-63 0 -107.5 34.5
t-59.5 88.5q-2 -16 -3 -31.5t-3 -31.5l-7 -54h-14l92 750h14q-16 -127 -28 -231q-5 -44 -10.5 -87.5l-10 -79l-7.5 -60.5t-4 -32q29 54 81.5 88.5t114.5 34.5q40 0 73.5 -15.5t56.5 -41.5t34 -62t6 -76z" />
    <glyph glyph-name="l" unicode="l" horiz-adv-x="172" 
d="M60 0h-14l92 750h14z" />
    <glyph glyph-name="m" unicode="m" horiz-adv-x="715" 
d="M88 375h10l-11 -98q26 47 73.5 76t104.5 29q49 0 76 -27.5t27 -72.5q26 45 73 72.5t102 27.5q53 0 80 -31t22 -81l-33 -270h-14l34 277q3 36 -18.5 62.5t-65.5 28.5q-33 0 -64 -10.5t-56.5 -29.5t-43 -45t-22.5 -57l-28 -226h-14l34 277q3 36 -18.5 62.5t-65.5 28.5
q-34 0 -66 -11t-57.5 -30.5t-42.5 -47t-21 -59.5l-27 -220h-14z" />
    <glyph glyph-name="i" unicode="i" horiz-adv-x="164" 
d="M90 498q0 9 7 15.5t16 6.5q8 0 13 -5t5 -13q0 -9 -7 -15.5t-16 -6.5q-8 0 -13 5t-5 13zM56 0h-14l46 375h14z" />
    <glyph glyph-name="h" unicode="h" horiz-adv-x="437" 
d="M134 750h14l-57 -467q12 21 30 39t40.5 31.5t49 21t54.5 7.5q53 0 80 -31t22 -81l-33 -270h-14l34 277q3 36 -18.5 62.5t-65.5 28.5q-34 0 -66 -11t-57.5 -30.5t-42.5 -47t-21 -59.5l-27 -220h-14z" />
    <glyph glyph-name="c" unicode="c" horiz-adv-x="400" 
d="M324 47q2 -2 4.5 -5t4.5 -5q-28 -20 -60.5 -31.5t-67.5 -11.5q-38 0 -69.5 13.5t-54 37t-35.5 55t-13 68.5q0 44 18 83t48 68.5t69.5 46.5t83.5 17q35 0 65 -11.5t53 -31.5q-2 -3 -5.5 -5.5t-5.5 -5.5q-21 19 -48.5 29.5t-59.5 10.5q-41 0 -77.5 -16t-65 -43t-45 -63.5
t-16.5 -76.5q0 -34 12 -63.5t33 -51.5t50 -34.5t64 -12.5q32 0 62 10.5t56 28.5z" />
    <glyph glyph-name="q" unicode="q" 
d="M47 170q0 -34 12 -63.5t33 -51.5t50 -34.5t64 -12.5q40 0 77 15.5t65.5 42.5t45 63t16.5 77q0 34 -12 64t-33.5 52t-51 34.5t-63.5 12.5q-41 0 -77.5 -16t-64.5 -43t-44.5 -63.5t-16.5 -76.5zM33 168q0 44 18 83t48 68.5t69.5 46.5t83.5 17q62 0 106.5 -34.5t59.5 -88.5
q2 14 4.5 34t4.5 38q3 21 5 43h14l-68 -555h-14l29 234l4 31.5l4 31.5q-14 -27 -34.5 -49.5t-46.5 -39t-55.5 -25.5t-60.5 -9q-37 0 -68.5 13.5t-54 37t-35.5 55t-13 68.5z" />
    <glyph glyph-name="u" unicode="u" horiz-adv-x="437" 
d="M329 0h-10l11 98q-26 -48 -74 -76.5t-104 -28.5q-53 0 -80 31t-22 81l33 270h14l-34 -277q-3 -36 18.5 -62.5t65.5 -28.5q34 0 66 11t57.5 30.5t42.5 47t21 59.5l27 220h14z" />
    <glyph glyph-name="r" unicode="r" horiz-adv-x="260" 
d="M264 368q-33 -1 -64 -12.5t-55.5 -31t-41 -46.5t-20.5 -58l-27 -220h-14l46 375h10l-11 -98q27 48 74.5 75.5t104.5 29.5z" />
    <glyph glyph-name="e" unicode="e" horiz-adv-x="434" 
d="M345 46q-29 -24 -65 -38t-75 -14q-38 0 -69.5 13.5t-54 37t-35.5 55t-13 68.5q0 44 18 83t48.5 68.5t70 47t83.5 17.5q62 0 100 -35.5t53 -89.5l-84.5 -32.5l-92 -35.5l-92 -35.5l-85.5 -33.5q14 -51 55 -82.5t99 -31.5q36 0 69.5 12.5t59.5 35.5zM388 266
q-16 45 -49.5 74t-87.5 29q-41 0 -77.5 -16t-65 -43.5t-45 -64.5t-16.5 -79v-15.5t2 -15.5l82 32l87 33.5l87.5 33.5z" />
    <glyph glyph-name="p" unicode="p" horiz-adv-x="509" 
d="M442 207q0 34 -12 63.5t-33.5 51.5t-51 34.5t-63.5 12.5q-41 0 -77.5 -16t-65 -43t-45 -63.5t-16.5 -76.5q0 -34 12 -63.5t33.5 -51.5t50.5 -34.5t64 -12.5q40 0 77 16t65.5 43t45 63t16.5 77zM456 208q0 -44 -18 -83t-48 -68t-70 -46t-84 -17q-63 0 -107.5 34.5
t-59.5 88.5l-6 -63l-29 -234h-14l68 555h14q-2 -22 -5 -43q-2 -18 -4.5 -38t-4.5 -34q29 54 81.5 88.5t114.5 34.5q37 0 69 -13.5t54.5 -37t35.5 -55.5t13 -69z" />
    <glyph glyph-name="aacute" unicode="&#xe1;" 
d="M47 170q0 -34 12 -63.5t33 -51.5t50 -34.5t64 -12.5q40 0 77 15.5t65.5 42.5t45 63t16.5 77q0 34 -12 64t-33.5 52t-51 34.5t-63.5 12.5q-41 0 -77.5 -16t-64.5 -43t-44.5 -63.5t-16.5 -76.5zM33 168q0 44 18 83t48 68.5t69.5 46.5t83.5 17q62 0 106.5 -34.5t59.5 -88.5
q4 29 8.5 57.5l9.5 57.5h10l-46 -375h-14l7 54l4 31.5l4 31.5q-14 -27 -34.5 -49.5t-46.5 -39t-55.5 -25.5t-60.5 -9q-37 0 -68.5 13.5t-54 37t-35.5 55t-13 68.5zM272 479l53 66.5l53 66.5h16l-53 -66.5l-53 -66.5h-16z" />
    <glyph glyph-name="eacute" unicode="&#xe9;" horiz-adv-x="434" 
d="M345 46q-29 -24 -65 -38t-75 -14q-38 0 -69.5 13.5t-54 37t-35.5 55t-13 68.5q0 44 18 83t48.5 68.5t70 47t83.5 17.5q62 0 100 -35.5t53 -89.5l-84.5 -32.5l-92 -35.5l-92 -35.5l-85.5 -33.5q14 -51 55 -82.5t99 -31.5q36 0 69.5 12.5t59.5 35.5zM388 266
q-16 45 -49.5 74t-87.5 29q-41 0 -77.5 -16t-65 -43.5t-45 -64.5t-16.5 -79v-15.5t2 -15.5l82 32l87 33.5l87.5 33.5zM267 479l53.5 66.5l53.5 66.5h16l-53.5 -66.5l-53.5 -66.5h-16z" />
    <glyph glyph-name="iacute" unicode="&#xed;" horiz-adv-x="164" 
d="M56 0h-14l46 375h14zM101 479l53 66.5l53 66.5h16l-53 -66.5l-53 -66.5h-16z" />
    <glyph glyph-name="oacute" unicode="&#xf3;" horiz-adv-x="478" 
d="M34 188q5 40 24.5 76t49 62.5t66.5 42t78 15.5q37 0 69 -13.5t55.5 -37.5t36.5 -56t13 -69q0 -44 -18.5 -83t-49 -68t-71 -46t-83.5 -17q-41 0 -74 15t-56 41.5t-34 61.5t-6 76zM48 188q-5 -38 5.5 -70.5t31.5 -57t52 -38.5t69 -14q40 0 77 15.5t65.5 42.5t45 63t16.5 77
q0 34 -12 64t-33.5 52t-51 34.5t-63.5 12.5q-38 0 -72.5 -14t-61.5 -39t-45.5 -58t-22.5 -70zM265 479l53 66.5l53 66.5h16l-53 -66.5l-53 -66.5h-16z" />
    <glyph glyph-name="uacute" unicode="&#xfa;" horiz-adv-x="437" 
d="M329 0h-10l11 98q-26 -48 -74 -76.5t-104 -28.5q-53 0 -80 31t-22 81l33 270h14l-34 -277q-3 -36 18.5 -62.5t65.5 -28.5q34 0 66 11t57.5 30.5t42.5 47t21 59.5l27 220h14zM267 479l53 66.5l53 66.5h16l-53 -66.5l-53 -66.5h-16z" />
    <glyph glyph-name="adieresis" unicode="&#xe4;" 
d="M47 170q0 -34 12 -63.5t33 -51.5t50 -34.5t64 -12.5q40 0 77 15.5t65.5 42.5t45 63t16.5 77q0 34 -12 64t-33.5 52t-51 34.5t-63.5 12.5q-41 0 -77.5 -16t-64.5 -43t-44.5 -63.5t-16.5 -76.5zM33 168q0 44 18 83t48 68.5t69.5 46.5t83.5 17q62 0 106.5 -34.5t59.5 -88.5
q4 29 8.5 57.5l9.5 57.5h10l-46 -375h-14l7 54l4 31.5l4 31.5q-14 -27 -34.5 -49.5t-46.5 -39t-55.5 -25.5t-60.5 -9q-37 0 -68.5 13.5t-54 37t-35.5 55t-13 68.5zM368 498q0 9 7 15.5t16 6.5q8 0 13 -5t5 -13q0 -9 -7 -15.5t-16 -6.5q-8 0 -13 5t-5 13zM203 498q0 9 7 15.5
t16 6.5q8 0 13 -5t5 -13q0 -9 -7 -15.5t-16 -6.5q-8 0 -13 5t-5 13z" />
    <glyph glyph-name="edieresis" unicode="&#xeb;" horiz-adv-x="434" 
d="M345 46q-29 -24 -65 -38t-75 -14q-38 0 -69.5 13.5t-54 37t-35.5 55t-13 68.5q0 44 18 83t48.5 68.5t70 47t83.5 17.5q62 0 100 -35.5t53 -89.5l-84.5 -32.5l-92 -35.5l-92 -35.5l-85.5 -33.5q14 -51 55 -82.5t99 -31.5q36 0 69.5 12.5t59.5 35.5zM388 266
q-16 45 -49.5 74t-87.5 29q-41 0 -77.5 -16t-65 -43.5t-45 -64.5t-16.5 -79v-15.5t2 -15.5l82 32l87 33.5l87.5 33.5zM329 498q0 9 6.5 15.5t15.5 6.5q8 0 13 -5t5 -13q0 -9 -7 -15.5t-16 -6.5q-8 0 -12.5 5t-4.5 13zM164 498q0 9 6.5 15.5t15.5 6.5q8 0 13 -5t5 -13
q0 -9 -7 -15.5t-16 -6.5q-8 0 -12.5 5t-4.5 13z" />
    <glyph glyph-name="odieresis" unicode="&#xf6;" horiz-adv-x="478" 
d="M34 188q5 40 24.5 76t49 62.5t66.5 42t78 15.5q37 0 69 -13.5t55.5 -37.5t36.5 -56t13 -69q0 -44 -18.5 -83t-49 -68t-71 -46t-83.5 -17q-41 0 -74 15t-56 41.5t-34 61.5t-6 76zM48 188q-5 -38 5.5 -70.5t31.5 -57t52 -38.5t69 -14q40 0 77 15.5t65.5 42.5t45 63t16.5 77
q0 34 -12 64t-33.5 52t-51 34.5t-63.5 12.5q-38 0 -72.5 -14t-61.5 -39t-45.5 -58t-22.5 -70zM333 498q0 9 7 15.5t16 6.5q8 0 13 -5t5 -13q0 -9 -7 -15.5t-16 -6.5q-8 0 -13 5t-5 13zM168 498q0 9 7 15.5t16 6.5q8 0 13 -5t5 -13q0 -9 -7 -15.5t-16 -6.5q-8 0 -13 5t-5 13z
" />
    <glyph glyph-name="udieresis" unicode="&#xfc;" horiz-adv-x="437" 
d="M329 0h-10l11 98q-26 -48 -74 -76.5t-104 -28.5q-53 0 -80 31t-22 81l33 270h14l-34 -277q-3 -36 18.5 -62.5t65.5 -28.5q34 0 66 11t57.5 30.5t42.5 47t21 59.5l27 220h14zM360 498q0 9 7 15.5t16 6.5q8 0 13 -5t5 -13q0 -9 -7 -15.5t-16 -6.5q-8 0 -13 5t-5 13z
M195 498q0 9 7 15.5t16 6.5q8 0 13 -5t5 -13q0 -9 -7 -15.5t-16 -6.5q-8 0 -13 5t-5 13z" />
    <glyph glyph-name="agrave" unicode="&#xe0;" 
d="M47 170q0 -34 12 -63.5t33 -51.5t50 -34.5t64 -12.5q40 0 77 15.5t65.5 42.5t45 63t16.5 77q0 34 -12 64t-33.5 52t-51 34.5t-63.5 12.5q-41 0 -77.5 -16t-64.5 -43t-44.5 -63.5t-16.5 -76.5zM33 168q0 44 18 83t48 68.5t69.5 46.5t83.5 17q62 0 106.5 -34.5t59.5 -88.5
q4 29 8.5 57.5l9.5 57.5h10l-46 -375h-14l7 54l4 31.5l4 31.5q-14 -27 -34.5 -49.5t-46.5 -39t-55.5 -25.5t-60.5 -9q-37 0 -68.5 13.5t-54 37t-35.5 55t-13 68.5zM226 612l37 -66.5l37 -66.5h-16l-37 66.5l-37 66.5h16z" />
    <glyph glyph-name="egrave" unicode="&#xe8;" horiz-adv-x="434" 
d="M345 46q-29 -24 -65 -38t-75 -14q-38 0 -69.5 13.5t-54 37t-35.5 55t-13 68.5q0 44 18 83t48.5 68.5t70 47t83.5 17.5q62 0 100 -35.5t53 -89.5l-84.5 -32.5l-92 -35.5l-92 -35.5l-85.5 -33.5q14 -51 55 -82.5t99 -31.5q36 0 69.5 12.5t59.5 35.5zM388 266
q-16 45 -49.5 74t-87.5 29q-41 0 -77.5 -16t-65 -43.5t-45 -64.5t-16.5 -79v-15.5t2 -15.5l82 32l87 33.5l87.5 33.5zM193 612l36.5 -66.5l36.5 -66.5h-16l-36.5 66.5l-36.5 66.5h16z" />
    <glyph glyph-name="igrave" unicode="&#xec;" horiz-adv-x="164" 
d="M56 0h-14l46 375h14zM53 612l37 -66.5l37 -66.5h-16l-37 66.5l-37 66.5h16z" />
    <glyph glyph-name="ograve" unicode="&#xf2;" horiz-adv-x="478" 
d="M34 188q5 40 24.5 76t49 62.5t66.5 42t78 15.5q37 0 69 -13.5t55.5 -37.5t36.5 -56t13 -69q0 -44 -18.5 -83t-49 -68t-71 -46t-83.5 -17q-41 0 -74 15t-56 41.5t-34 61.5t-6 76zM48 188q-5 -38 5.5 -70.5t31.5 -57t52 -38.5t69 -14q40 0 77 15.5t65.5 42.5t45 63t16.5 77
q0 34 -12 64t-33.5 52t-51 34.5t-63.5 12.5q-38 0 -72.5 -14t-61.5 -39t-45.5 -58t-22.5 -70zM190 612l37 -66.5l37 -66.5h-16l-37 66.5l-37 66.5h16z" />
    <glyph glyph-name="ugrave" unicode="&#xf9;" horiz-adv-x="437" 
d="M329 0h-10l11 98q-26 -48 -74 -76.5t-104 -28.5q-53 0 -80 31t-22 81l33 270h14l-34 -277q-3 -36 18.5 -62.5t65.5 -28.5q34 0 66 11t57.5 30.5t42.5 47t21 59.5l27 220h14zM244 612l37 -66.5l37 -66.5h-16l-37 66.5l-37 66.5h16z" />
    <glyph glyph-name="comma" unicode="," horiz-adv-x="229" 
d="M126 86l-55.5 -103l-55.5 -103h-14l51 103l51 103h23z" />
    <glyph glyph-name="period" unicode="." horiz-adv-x="186" 
d="M44 18q0 9 7 15.5t16 6.5q8 0 13 -5t5 -13q0 -9 -7 -15.5t-16 -6.5q-8 0 -13 5t-5 13z" />
    <glyph glyph-name="f" unicode="f" horiz-adv-x="250" 
d="M39 358l2 14h65l18 146q7 55 27 98t48.5 72t64 44.5t73.5 17.5l-2 -14q-34 0 -67 -15t-60 -43t-45.5 -67.5t-24.5 -88.5l-18 -150h130l-2 -14h-130l-44 -358h-14l44 358h-65z" />
    <glyph glyph-name="aring" unicode="&#xe5;" 
d="M220 465q0 -18 13 -31.5t31 -13.5q21 0 38 16t17 37q0 18 -12.5 31.5t-30.5 13.5q-21 0 -38.5 -16t-17.5 -37zM206 462q0 29 21 49.5t50 20.5q25 0 40.5 -16t15.5 -40q0 -29 -21 -49.5t-50 -20.5q-25 0 -40.5 16t-15.5 40zM47 170q0 -34 12 -63.5t33 -51.5t50 -34.5
t64 -12.5q40 0 77 15.5t65.5 42.5t45 63t16.5 77q0 34 -12 64t-33.5 52t-51 34.5t-63.5 12.5q-41 0 -77.5 -16t-64.5 -43t-44.5 -63.5t-16.5 -76.5zM33 168q0 44 18 83t48 68.5t69.5 46.5t83.5 17q62 0 106.5 -34.5t59.5 -88.5q4 29 8.5 57.5l9.5 57.5h10l-46 -375h-14l7 54
l4 31.5l4 31.5q-14 -27 -34.5 -49.5t-46.5 -39t-55.5 -25.5t-60.5 -9q-37 0 -68.5 13.5t-54 37t-35.5 55t-13 68.5z" />
    <glyph glyph-name="v" unicode="v" horiz-adv-x="397" 
d="M163 -23q-19 50 -34.5 99.5l-30 99.5l-30 99.5t-34.5 99.5h15q17 -45 31 -91l27.5 -92l28 -92t31.5 -92q57 92 104 183.5t104 183.5h15q-31 -50 -58.5 -99.5l-55 -99.5l-55 -99.5t-58.5 -99.5z" />
    <glyph glyph-name="j" unicode="j" horiz-adv-x="164" 
d="M90 498q0 9 7 15.5t16 6.5q8 0 13 -5t5 -13q0 -9 -7 -15.5t-16 -6.5q-8 0 -13 5t-5 13zM-23 -180q-3 2 -5.5 4.5t-5.5 4.5q29 28 49 68.5t26 91.5l47 386h14l-47 -382q-7 -57 -27.5 -100.5t-50.5 -72.5z" />
    <glyph glyph-name="s" unicode="s" horiz-adv-x="314" 
d="M263 336l-5 -5t-6 -5q-7 10 -17 17.5t-22 12t-24 7t-22 2.5q-14 0 -30.5 -4.5t-31 -15t-24.5 -27t-10 -39.5q0 -24 13.5 -38.5t33 -24.5t43 -17.5t43 -18t33 -27t13.5 -43.5q0 -22 -8.5 -43.5t-25 -38t-40.5 -26.5t-55 -10q-27 0 -58.5 10.5t-49.5 36.5l12 9q5 -9 17 -17
t26 -13.5t29 -8.5t27 -3q13 0 32 5t37 16t30.5 30t12.5 48q0 26 -13.5 41t-33 25t-43 18t-43 18t-33 26t-13.5 43q0 26 10 45.5t26 32t36 19t40 6.5q22 0 49 -9.5t45 -33.5z" />
    <glyph glyph-name="k" unicode="k" horiz-adv-x="363" 
d="M326 384q2 -2 4 -5t4 -5l-81.5 -69.5l-81.5 -69.5l71.5 -117.5l71.5 -117.5h-18l-69.5 112.5l-68.5 112.5l-41.5 -35l-41.5 -35l-19 -155h-14l92 750h14l-70 -574l123.5 104z" />
    <glyph glyph-name="y" unicode="y" horiz-adv-x="402" 
d="M82 -180h-18l93 168l-121 387h15l118 -367l208 367h15z" />
    <glyph glyph-name="oslash" unicode="&#xf8;" horiz-adv-x="478" 
d="M39 10l48 49.5l60.5 63.5l67 69.5l67 69.5l60.5 63.5l48 49.5l8 -9l-48 -50.5l-60.5 -63l-67.5 -69.5l-67.5 -69.5l-60.5 -63l-48 -50.5zM34 188q5 40 24.5 76t49 62.5t66.5 42t78 15.5q37 0 69 -13.5t55.5 -37.5t36.5 -56t13 -69q0 -44 -18.5 -83t-49 -68t-71 -46
t-83.5 -17q-41 0 -74 15t-56 41.5t-34 61.5t-6 76zM48 188q-5 -38 5.5 -70.5t31.5 -57t52 -38.5t69 -14q40 0 77 15.5t65.5 42.5t45 63t16.5 77q0 34 -12 64t-33.5 52t-51 34.5t-63.5 12.5q-38 0 -72.5 -14t-61.5 -39t-45.5 -58t-22.5 -70z" />
    <glyph glyph-name="w" unicode="w" horiz-adv-x="630" 
d="M302 266q-8 21 -14 41q-6 17 -11.5 35.5t-10.5 32.5h15l118 -367l208 367h15l-31.5 -55.5l-36 -63l-37.5 -66l-37 -64.5l-85 -149l-87 274l-145 -274l-48 149l-42.5 130.5l-38.5 118.5h15l16 -51l18.5 -58l20 -61l19.5 -59l44 -138z" />
    <glyph glyph-name="x" unicode="x" horiz-adv-x="349" 
d="M156 187l-57.5 94l-57.5 94h18l54 -88.5l53 -88.5l74.5 88l73.5 88h17l-79 -94l-79 -94l114 -186h-16l-54 87.5l-54 87.5l-73 -87.5l-73 -87.5h-18l78.5 93.5z" />
    <glyph glyph-name="z" unicode="z" horiz-adv-x="349" 
d="M280 0h-279l304 361h-207q-31 0 -43.5 8t-10.5 37v4h13l-1 -12q-1 -9 6 -16t24 -7h245l-304 -361h255z" />
    <glyph glyph-name="o" unicode="o" horiz-adv-x="478" 
d="M34 188q5 40 24.5 76t49 62.5t66.5 42t78 15.5q37 0 69 -13.5t55.5 -37.5t36.5 -56t13 -69q0 -44 -18.5 -83t-49 -68t-71 -46t-83.5 -17q-41 0 -74 15t-56 41.5t-34 61.5t-6 76zM48 188q-5 -38 5.5 -70.5t31.5 -57t52 -38.5t69 -14q40 0 77 15.5t65.5 42.5t45 63t16.5 77
q0 34 -12 64t-33.5 52t-51 34.5t-63.5 12.5q-38 0 -72.5 -14t-61.5 -39t-45.5 -58t-22.5 -70z" />
    <glyph glyph-name="ae" unicode="&#xe6;" horiz-adv-x="618" 
d="M307 324q-11 21 -37.5 32t-74.5 11q-49 0 -76 -10t-50 -25l-7 14q23 16 57.5 26.5t82.5 10.5q50 0 78 -13t40 -36zM304 75q-9 -23 -24.5 -38.5t-36.5 -25.5t-45.5 -14.5t-50.5 -4.5q-30 0 -54 8.5t-40 22.5t-24.5 32.5t-8.5 38.5q0 25 12 44t31 32t42.5 19t45.5 6h78
l-3 -17h-60q-38 0 -63 -8t-39.5 -20t-20.5 -27t-6 -29q0 -24 10.5 -40t27.5 -26.5t38 -15t43 -4.5q59 0 95 25.5t44 59.5zM529 46q-29 -24 -65.5 -38t-75.5 -14q-37 0 -68.5 13.5t-54 37t-35.5 55t-13 68.5q0 44 18 83t48 68.5t69.5 47t83.5 17.5q62 0 100 -35.5t54 -89.5
l-84.5 -32.5l-92 -35.5l-92 -35.5l-85.5 -33.5q14 -51 55 -82.5t99 -31.5q36 0 69 12.5t60 35.5zM572 266q-16 45 -50 74t-88 29q-41 0 -77.5 -16t-65 -43.5t-45 -64.5t-16.5 -79q0 -7 0.5 -15.5t2.5 -15.5l82 32l87 33.5l87.5 33.5z" />
    <glyph glyph-name="A" unicode="A" horiz-adv-x="638" 
d="M171 318h309l2 14h-309zM561 0q-50 169 -91.5 337.5t-91.5 337.5q-2 6 -3 12.5t-3 12.5l-6 -12.5l-6 -12.5q-92 -169 -174.5 -337.5t-174.5 -337.5h-15l190 366l190 366q55 -184 100 -366t100 -366h-15z" />
    <glyph glyph-name="idieresis" unicode="&#xef;" horiz-adv-x="164" 
d="M56 0h-14l46 375h14zM173 498q0 9 7 15.5t16 6.5q8 0 13 -5t5 -13q0 -9 -7 -15.5t-16 -6.5q-8 0 -13 5t-5 13zM8 498q0 9 7 15.5t16 6.5q8 0 13 -5t5 -13q0 -9 -7 -15.5t-16 -6.5q-8 0 -13 5t-5 13z" />
    <glyph glyph-name="yacute" unicode="&#xfd;" horiz-adv-x="401" 
d="M82 -180h-19q14 24 23.5 43l19.5 38.5l21.5 42.5l28.5 55q-17 47 -31.5 94l-28.5 94l-28.5 94t-32.5 94h15q17 -45 31 -91l27.5 -92l28 -92t31.5 -92q57 92 104 183.5t104 183.5h15zM239 479l53 66.5l53 66.5h16l-53 -66.5l-53 -66.5h-16z" />
    <glyph glyph-name="ydieresis" unicode="&#xff;" horiz-adv-x="401" 
d="M82 -180h-19q14 24 23.5 43l19.5 38.5l21.5 42.5l28.5 55q-17 47 -31.5 94l-28.5 94l-28.5 94t-32.5 94h15q17 -45 31 -91l27.5 -92l28 -92t31.5 -92q57 92 104 183.5t104 183.5h15zM318 498q0 9 7 15.5t16 6.5q8 0 12.5 -5t4.5 -13q0 -9 -6.5 -15.5t-15.5 -6.5
q-8 0 -13 5t-5 13zM153 498q0 9 7 15.5t16 6.5q8 0 12.5 -5t4.5 -13q0 -9 -6.5 -15.5t-15.5 -6.5q-8 0 -13 5t-5 13z" />
    <glyph glyph-name="B" unicode="B" horiz-adv-x="563" 
d="M184 686l-40 -328h147q44 0 78.5 14.5t58.5 40.5t36.5 61t12.5 77q0 72 -44 103.5t-116 31.5h-133zM142 344l-40 -330h148q43 0 83 11t70.5 33.5t48.5 56.5t18 79q0 39 -16.5 67.5t-44 46.5t-63.5 27t-75 9h-129zM86 0l86 700h135q83 0 133 -35.5t50 -116.5
q0 -32 -7.5 -63t-24 -57t-43 -46t-65.5 -30q27 -6 51.5 -18.5t43 -32t29 -45t10.5 -58.5q0 -48 -20 -85t-53 -62t-75.5 -38t-86.5 -13h-163z" />
    <glyph glyph-name="D" unicode="D" horiz-adv-x="711" 
d="M172 700h143q96 0 162 -28t107 -73t59 -101t18 -111q0 -87 -33 -158.5t-88.5 -122.5t-127 -78.5t-149.5 -27.5h-177zM271 14q73 0 141 26.5t120.5 75t84 117t31.5 152.5q0 53 -17 106.5t-56 96.5t-101 70t-152 27h-138l-41 -335.5l-41 -335.5h169z" />
    <glyph glyph-name="E" unicode="E" horiz-adv-x="606" 
d="M86 0l86 700h415l-2 -14h-401l-40 -326h362l-2 -14h-362l-40 -332h415l-2 -14h-429z" />
    <glyph glyph-name="H" unicode="H" horiz-adv-x="732" 
d="M86 0l86 700h14l-42 -340h464l42 340h18l-45 -350l-45 -350h-14l42 346h-464l-42 -346h-14z" />
    <glyph glyph-name="I" unicode="I" horiz-adv-x="252" 
d="M172 700h14l-86 -700h-14z" />
    <glyph glyph-name="J" unicode="J" horiz-adv-x="256" 
d="M-97 -142l2 14q37 2 70 17.5t59.5 44t44.5 68.5t24 91l75 607h13l-75 -610q-7 -56 -27 -98.5t-48.5 -71.5t-64 -45t-73.5 -17z" />
    <glyph glyph-name="K" unicode="K" horiz-adv-x="586" 
d="M529 0l-137.5 207l-137.5 207l-58 -49l-58 -49q-10 -79 -19 -158t-19 -158h-14l86 700h14l-42 -340q-1 -8 -2 -14.5t-2 -14.5q5 5 9.5 10t9.5 10l204.5 174.5l204.5 174.5h22l-324 -276l141.5 -212l141.5 -212h-20z" />
    <glyph glyph-name="M" unicode="M" horiz-adv-x="890" 
d="M176 732l71.5 -130.5l65.5 -117l64 -112l67 -115.5l66 84.5l92 116l109 134.5l117 140l-90 -732h-14l79 645q2 11 3.5 22.5t3.5 22.5l-193 -238l-177 -224q-19 29 -42.5 69.5l-48.5 86l-50.5 92l-47.5 88l-39.5 74.5l-27.5 52q-2 -11 -2.5 -22.5t-2.5 -22.5l-79 -645h-14
z" />
    <glyph glyph-name="N" unicode="N" horiz-adv-x="809" 
d="M743 700l-90 -732l-233.5 353.5l-221.5 348.5q-4 7 -8 13t-8 13v-32l-82 -664h-14l90 732l117.5 -179.5l112 -176l111 -174l113.5 -174.5q4 -7 8 -13t8 -13q1 8 1 16v16l82 666h14z" />
    <glyph glyph-name="P" unicode="P" horiz-adv-x="512" 
d="M141 335h115q64 0 106.5 21.5t68 52t36 65.5t10.5 62q0 34 -13 62t-36.5 47.5t-56 30t-71.5 10.5h-116zM86 0l86 700h140q27 0 58.5 -8.5t58 -27.5t44.5 -50.5t18 -76.5q0 -40 -14.5 -78.5t-44 -69t-75 -49.5t-106.5 -19h-112l-39 -321h-14z" />
    <glyph glyph-name="R" unicode="R" horiz-adv-x="566" 
d="M339 337l161 -337h-18l-159 337h16zM141 335h115q64 0 106.5 22t68 53.5t36 66t10.5 60.5q0 33 -13 60.5t-36.5 47t-56 30.5t-71.5 11h-116zM86 0l86 700h140q27 0 58.5 -8.5t58 -27.5t44.5 -50.5t18 -76.5q0 -40 -14.5 -78.5t-44 -69t-75 -49.5t-106.5 -19h-112
l-39 -321h-14z" />
    <glyph glyph-name="U" unicode="U" horiz-adv-x="668" 
d="M300 -8q-48 0 -87.5 15t-66 44.5t-38 73.5t-4.5 101l58 474h14l-58 -471q-7 -54 3.5 -95.5t35.5 -70t62 -43t83 -14.5q45 0 85.5 14.5t72 43t52.5 70t28 95.5l58 471h14l-58 -474q-7 -57 -30 -101t-56.5 -73.5t-76.5 -44.5t-91 -15z" />
    <glyph glyph-name="Y" unicode="Y" horiz-adv-x="595" 
d="M304 262l-32 -262h-14l32 262l-104.5 219l-104.5 219h17l96.5 -200.5l95.5 -201.5l9 -26q5 7 8 13t7 13l144.5 201l144.5 201h17z" />
    <glyph glyph-name="asciitilde" unicode="~" horiz-adv-x="467" 
d="M253 497q-14 18 -25 24t-25 6q-8 0 -19 -2.5t-21.5 -8.5t-19.5 -16.5t-13 -27.5q-3 1 -6.5 1t-6.5 1q7 37 34.5 52t55.5 15q20 0 35 -10.5t29 -27.5q14 -18 25.5 -24t25.5 -6q8 0 19 2.5t21.5 8.5t19.5 16.5t13 27.5q3 -1 6.5 -1t5.5 -1q-7 -37 -34.5 -52t-55.5 -15
q-20 0 -35 10.5t-29 27.5z" />
    <glyph glyph-name="ntilde" unicode="&#xf1;" horiz-adv-x="437" 
d="M88 375h10l-11 -98q26 47 73.5 76t104.5 29q53 0 80 -31t22 -81l-33 -270h-14l34 277q3 36 -18.5 62.5t-65.5 28.5q-34 0 -66 -11t-57.5 -30.5t-42.5 -47t-21 -59.5l-27 -220h-14zM244 485q-14 18 -25.5 24t-25.5 6q-8 0 -19 -2.5t-21.5 -8.5t-19.5 -16.5t-13 -27.5
q-2 1 -5.5 1t-6.5 1q7 37 34.5 52t55.5 15q20 0 35 -10.5t29 -27.5q14 -18 25.5 -24t25.5 -6q8 0 19 2.5t21.5 8.5t19 16.5t12.5 27.5q3 -1 6.5 -1t6.5 -1q-7 -37 -34.5 -52t-55.5 -15q-20 0 -35 10.5t-29 27.5z" />
    <glyph glyph-name="F" unicode="F" horiz-adv-x="549" 
d="M86 0l86 700h375l-2 -14h-361l-41 -336h322l-2 -14h-322l-41 -336h-14z" />
    <glyph glyph-name="L" unicode="L" horiz-adv-x="546" 
d="M86 0l86 700h14l-84 -686h405l-2 -14h-419z" />
    <glyph glyph-name="C" unicode="C" horiz-adv-x="647" 
d="M573 42q-43 -23 -90.5 -36.5t-101.5 -13.5q-73 0 -131 25t-98.5 68t-62 100.5t-21.5 122.5q0 83 33.5 156t89 127t128.5 85.5t153 31.5q51 0 95 -13t82 -37l-9 -12q-35 23 -78 35.5t-91 12.5q-77 0 -147 -30.5t-124 -83t-86 -122.5t-32 -150q0 -62 20 -116.5t58.5 -96
t93.5 -65.5t125 -24q52 0 98 12.5t88 35.5z" />
    <glyph glyph-name="Q" unicode="Q" horiz-adv-x="841" 
d="M68 313q0 81 33.5 152.5t89 125.5t128.5 85.5t153 31.5q69 0 127 -25t100.5 -69t66.5 -103t24 -126q0 -64 -21.5 -122t-59 -106.5t-88.5 -85t-110 -57.5h257l-2 -14h-307q-40 -8 -75 -8q-68 0 -126 25t-100 68.5t-66 102t-24 125.5zM82 313q0 -64 22.5 -120t63 -97.5
t95.5 -65.5t120 -24q76 0 147 30t125.5 81.5t87 120t32.5 145.5q0 64 -23 121t-64 99t-96.5 66.5t-121.5 24.5q-76 0 -146 -30.5t-124 -82.5t-86 -121.5t-32 -146.5z" />
    <glyph glyph-name="T" unicode="T" horiz-adv-x="495" 
d="M506 700l-2 -14h-200l-84 -686h-14l84 686h-200l2 14h414z" />
    <glyph glyph-name="guilsinglleft" unicode="&#x2039;" horiz-adv-x="287" 
d="M198 77l-151 162l95.5 80.5l95.5 80.5l-2 -17l-80 -72l-80 -72l62 -73l62 -73z" />
    <glyph glyph-name="greater" unicode="&#x3e;" horiz-adv-x="561" 
d="M51 -15l2 16l441 237l-191.5 118.5l-191.5 118.5l2 16l203.5 -126.5l203.5 -126.5l-234.5 -126.5z" />
    <glyph glyph-name="less" unicode="&#x3c;" horiz-adv-x="558" 
d="M442 1l-2 -16l-203.5 126.5l-203.5 126.5l234.5 126.5l234.5 126.5l-2 -16l-441 -237l191.5 -118.5z" />
    <glyph glyph-name="equal" unicode="=" horiz-adv-x="670" 
d="M574 164l-2 -14h-506l2 14h506zM598 358l-2 -14h-506l2 14h506z" />
    <glyph glyph-name="at" unicode="@" horiz-adv-x="922" 
d="M597 13h92q64 0 102 54t38 160q0 72 -25.5 134.5t-70.5 109t-107 73.5t-135 27q-85 0 -163 -33.5t-137.5 -91t-95 -134.5t-35.5 -163q0 -72 25 -134t70 -108.5t107 -73t135 -26.5q62 0 119.5 19t108.5 51q2 -3 3.5 -5.5t3.5 -5.5q-54 -34 -112.5 -53.5t-124.5 -19.5
q-76 0 -140 27.5t-110.5 75.5t-72.5 113t-26 140q0 89 37 168.5t98.5 139t142.5 94t169 34.5q76 0 140 -27.5t110.5 -76t73 -113.5t26.5 -140q0 -71 -14.5 -115.5t-37.5 -69.5t-52 -34t-58 -9h-85zM248 170q0 -34 12 -63.5t33 -51.5t50 -34.5t64 -12.5q40 0 77 15.5
t65.5 42.5t45 63t16.5 77q0 34 -12 64t-33 52t-50.5 34.5t-64.5 12.5q-41 0 -77.5 -16t-64.5 -43t-44.5 -63.5t-16.5 -76.5zM233 168q0 44 18 83t48.5 68.5t70 46.5t83.5 17q62 0 106.5 -34.5t59.5 -88.5q3 29 8 57.5l10 57.5h10l-46 -375h-15l7 54q2 16 4.5 31.5t4.5 31.5
q-14 -27 -35 -49.5t-46.5 -39t-55 -25.5t-60.5 -9q-38 0 -69.5 13.5t-54 37t-35.5 55t-13 68.5z" />
    <glyph glyph-name="question" unicode="?" horiz-adv-x="481" 
d="M91 596q-3 1 -6.5 1.5t-5.5 1.5q13 29 34 53.5t47.5 42t57 27.5t62.5 10q38 0 70 -13.5t55 -37.5t35.5 -56t12.5 -68q0 -61 -32 -106t-87 -81q-21 -14 -39 -23.5t-32 -21.5t-23.5 -31t-13.5 -52l-10 -78h-14l12 97q4 31 17.5 49.5t33.5 33t45.5 29t52.5 35.5q40 32 58 69
t18 80q0 35 -12 64.5t-33.5 51t-51 33.5t-64.5 12q-30 0 -58 -9t-53 -25t-44.5 -38.5t-31.5 -49.5zM192 25q-6 0 -11.5 5t-5.5 13q0 10 7 16t15 6q7 0 12.5 -5t5.5 -13q0 -9 -7.5 -15.5t-15.5 -6.5z" />
    <glyph glyph-name="exclam" unicode="!" horiz-adv-x="225" 
d="M84 36q-7 0 -12.5 6t-4.5 14q1 9 7.5 14.5t13.5 5.5q8 0 13.5 -5.5t4.5 -14.5q-1 -8 -7.5 -14t-14.5 -6zM164 750h14l-72 -584h-14z" />
    <glyph glyph-name="two" unicode="2" horiz-adv-x="503" 
d="M74 14h360l-2 -14h-396l146 127t126 124t88.5 119t33.5 113q0 46 -13.5 77t-34 50t-45.5 26.5t-47 7.5q-56 0 -92 -21t-57 -51.5t-29.5 -64.5t-8.5 -60q0 -58 28 -92q-3 -2 -5.5 -4t-4.5 -4q-15 20 -23.5 44t-8.5 56q0 43 14 81.5t40 67t63.5 45.5t85.5 17
q35 0 63.5 -12.5t48.5 -35t30.5 -53.5t10.5 -68q0 -63 -35 -123.5t-89 -120t-119.5 -117z" />
    <glyph glyph-name="one" unicode="1" horiz-adv-x="284" 
d="M78 636l2 14h127l-80 -650h-14l78 636h-113z" />
    <glyph glyph-name="three" unicode="3" horiz-adv-x="480" 
d="M158 361l123 137.5l123 137.5h-287l2 14h319l-115.5 -126l-114.5 -126q42 2 78.5 -10.5t63.5 -37t42 -59t15 -75.5q0 -46 -19 -86.5t-51 -71t-73.5 -48.5t-86.5 -18t-81 18t-60 48q2 3 5.5 6.5l6.5 6.5q20 -29 53 -47t75 -18t81 17t69.5 45.5t48.5 66t18 79.5
q0 36 -13 67t-36 54t-54.5 36t-67.5 13q-16 0 -32.5 -6t-31.5 -17z" />
    <glyph glyph-name="four" unicode="4" horiz-adv-x="529" 
d="M420 617l-186.5 -210l-186.5 -210h322zM15 183l212 237.5l212 237.5l-56 -461h97l-2 -14h-97l-22 -183h-14l22 183h-352z" />
    <glyph glyph-name="five" unicode="5" horiz-adv-x="477" 
d="M105 341l38 309h287l-2 -14h-273l-32 -264q24 11 49.5 17t51.5 6q39 0 72.5 -14t57.5 -38t38 -57t14 -71q0 -45 -19.5 -85.5t-51.5 -71t-74 -48.5t-87 -18q-41 0 -74.5 15t-58.5 41q3 2 6 5t6 5q21 -25 52 -38.5t69 -13.5q43 0 82 17t69 45.5t48 66t18 78.5q0 35 -13 66
t-36 53.5t-54 35.5t-68 13q-35 0 -65 -11.5t-50 -28.5z" />
    <glyph glyph-name="six" unicode="6" horiz-adv-x="530" 
d="M66 174q0 -35 13 -66t35.5 -53.5t53.5 -35.5t67 -13q42 0 81 16.5t69 44.5t47.5 65.5t17.5 79.5q0 35 -13 66t-35.5 54t-53.5 36t-67 13q-42 0 -81 -16.5t-69 -44.5t-47.5 -66t-17.5 -80zM53 173q0 75 36.5 140t93 121.5t125 105.5l133.5 93q2 -3 4 -6.5t4 -6.5
q-72 -44 -128 -87t-98 -82.5t-69.5 -74t-42.5 -62.5q32 37 76.5 59t95.5 22q39 0 72.5 -14t57.5 -39t37.5 -58t13.5 -71q0 -45 -19 -85t-50.5 -70.5t-73.5 -48t-87 -17.5q-39 0 -72.5 14t-57.5 38.5t-37.5 57.5t-13.5 71z" />
    <glyph glyph-name="seven" unicode="7" horiz-adv-x="457" 
d="M79 636l2 14h401l-186 -325l-186 -325h-18l182.5 318l182.5 318h-378z" />
    <glyph glyph-name="eight" unicode="8" horiz-adv-x="531" 
d="M161 500q0 -45 33.5 -74.5t85.5 -29.5q29 0 55 9.5t45.5 27t31 41t11.5 51.5q0 24 -8 45.5t-23 38t-36 26t-46 9.5q-30 0 -57 -12t-47.5 -32t-32.5 -46t-12 -54zM67 176q0 -35 12 -66t34 -54.5t52 -37t66 -13.5q42 0 81.5 17t69.5 45.5t48 66.5t18 79q0 35 -13 66
t-36 53.5t-54 35.5t-68 13q-42 0 -80 -16.5t-67 -44t-46 -65t-17 -79.5zM52 175q0 39 14 73.5t38 63t56 48.5t69 29q-37 12 -59 43t-22 72q0 31 13.5 59t36 49t51.5 33.5t61 12.5q28 0 51 -10t40 -28t26.5 -41.5t9.5 -50.5q0 -49 -31 -86t-77 -53q30 -7 54.5 -23t42 -39
t27 -51.5t9.5 -60.5q0 -45 -19 -85.5t-51.5 -71t-74 -48.5t-86.5 -18q-39 0 -71.5 14t-56.5 39t-37.5 58.5t-13.5 71.5z" />
    <glyph glyph-name="colon" unicode=":" horiz-adv-x="183" 
d="M72 268q0 9 7 15.5t16 6.5q8 0 12.5 -5t4.5 -13q0 -9 -6.5 -15.5t-15.5 -6.5q-8 0 -13 5t-5 13zM41 18q0 9 7 15.5t16 6.5q8 0 13 -5t5 -13q0 -9 -7 -15.5t-16 -6.5q-8 0 -13 5t-5 13z" />
    <glyph glyph-name="semicolon" unicode=";" horiz-adv-x="227" 
d="M113 268q0 9 6.5 15.5t15.5 6.5q8 0 13 -5t5 -13q0 -9 -7 -15.5t-16 -6.5q-8 0 -12.5 5t-4.5 13zM114 86l-55.5 -103l-55.5 -103h-14l51 103l51 103h23z" />
    <glyph glyph-name="quotedbl" unicode="&#x22;" horiz-adv-x="312" 
d="M239 472l30 248h18q-8 -63 -17 -124t-17 -124h-14zM106 472l30 248h18q-8 -63 -17 -124t-17 -124h-14z" />
    <glyph glyph-name="numbersign" unicode="#" horiz-adv-x="575" 
d="M219 407q-11 -42 -20 -84t-20 -84h170q11 42 20 84t20 84h-170zM291 0l27 112.5l27 112.5h-170l-27 -112.5l-27 -112.5h-14l27 112.5l27 112.5h-117q1 4 1.5 7t1.5 7h118q11 42 20 84t20 84h-116q1 4 1.5 7t1.5 7h117l54 222h14l-54 -222h170l54 222h14l-54 -222h136
q-1 -4 -1.5 -7t-1.5 -7h-137q-11 -42 -20 -84t-20 -84h135q-1 -4 -1.5 -7t-1.5 -7h-136l-27 -112.5l-27 -112.5h-14z" />
    <glyph glyph-name="percent" unicode="%" horiz-adv-x="626" 
d="M351 103q0 -36 24 -60.5t61 -24.5q21 0 40.5 8t34.5 22.5t24 33t9 39.5q0 36 -24 61t-61 25q-21 0 -40.5 -8.5t-34.5 -22.5t-24 -33t-9 -40zM434 4q-42 0 -69.5 28t-27.5 70q0 24 10.5 46t27.5 38t39.5 25.5t46.5 9.5q42 0 70 -28t28 -70q0 -24 -10.5 -46t-28 -38
t-40 -25.5t-46.5 -9.5zM81 379q0 -36 24 -60.5t61 -24.5q21 0 40.5 8t34.5 22.5t24 33t9 39.5q0 36 -24 61t-61 25q-21 0 -40.5 -8.5t-34.5 -22.5t-24 -33t-9 -40zM164 280q-42 0 -69.5 28t-27.5 70q0 24 10.5 46t27.5 38t39.5 25.5t46.5 9.5q42 0 70 -28t28 -70
q0 -24 -10.5 -46t-28 -38t-40 -25.5t-46.5 -9.5zM120 0l180 250l179 250h16l-179 -250l-180 -250h-16z" />
    <glyph glyph-name="quoteright" unicode="&#x2019;" horiz-adv-x="188" 
d="M110 572q-1 5 -1.5 9t-2.5 9q24 20 37 49.5t10 64.5q5 2 10 3.5t10 3.5q4 -40 -13 -76.5t-50 -62.5z" />
    <glyph glyph-name="parenleft" unicode="(" horiz-adv-x="253" 
d="M51 218q0 88 20 167.5t52.5 147t73 122t81.5 92.5v-23q-38 -38 -76 -89.5t-68 -115.5t-49 -138.5t-19 -158.5q0 -58 8.5 -111.5t23.5 -100t34 -84.5t40 -66q-2 -6 -3 -11.5t-3 -11.5q-23 28 -44 68t-37 89t-25 105.5t-9 118.5z" />
    <glyph glyph-name="parenright" unicode=")" horiz-adv-x="252" 
d="M207 366q0 -88 -20 -167.5t-52.5 -147t-73 -122t-81.5 -92.5v23q38 38 76 89.5t68 115.5t49 138.5t19 158.5q0 58 -8.5 111.5t-23.5 100t-34 84.5t-40 66q2 6 3 11.5t3 11.5q23 -28 44 -68t36.5 -89t25 -106t9.5 -118z" />
    <glyph glyph-name="asterisk" unicode="*" horiz-adv-x="423" 
d="M262 575l52 -32l52 -32l-5.5 -7.5l-5.5 -7.5l-51.5 33l-51.5 33q-5 -32 -9 -64t-9 -64h-14l16 127l-59 -31.5l-59 -31.5q-2 4 -3.5 7.5t-3.5 7.5l59.5 31.5l59.5 31.5l-51.5 33l-51.5 33l4 6l4 6l52 -32.5l52 -32.5l16 131h18q-5 -33 -9 -65.5t-9 -65.5l61.5 32l60.5 32
l6 -12l-61 -33z" />
    <glyph glyph-name="plus" unicode="+" horiz-adv-x="477" 
d="M205 51l21 174h-173l2 14h173l21 172h14l-21 -172h173l-2 -14h-173l-21 -174h-14z" />
    <glyph glyph-name="nine" unicode="9" horiz-adv-x="529" 
d="M474 432q4 39 -6.5 73t-33.5 59.5t-56 40t-72 14.5q-42 0 -81 -16.5t-68.5 -44.5t-47.5 -65.5t-18 -79.5q0 -35 13 -66t35.5 -54t53.5 -36t67 -13q39 0 75.5 14.5t66 40t48.5 60t24 73.5zM487 432q-9 -73 -47.5 -135.5t-93.5 -116.5t-120 -100.5l-126 -87.5q-4 7 -8 13
q72 44 128.5 87t98.5 82.5t69.5 74t42.5 62.5q-32 -37 -77 -59t-96 -22q-39 0 -72.5 14t-57.5 39t-37.5 58t-13.5 71q0 45 19 85t50.5 70.5t73.5 48t87 17.5q42 0 77.5 -16t60 -43t36 -63.5t6.5 -78.5z" />
    <glyph glyph-name="bar" unicode="|" horiz-adv-x="220" 
d="M42 -232l114 932h14l-114 -932h-14z" />
    <glyph glyph-name="braceleft" unicode="{" horiz-adv-x="270" 
d="M38 287l3 24q25 1 42 14.5t28 33.5t17 43.5t9 43.5l22 182q6 45 16 69.5t23.5 35t29.5 12t32 1.5h37l-2 -14h-57q-31 0 -44.5 -26t-21.5 -86l-18 -150q-6 -47 -15 -77t-20.5 -48.5t-24.5 -28.5t-27 -17q12 -8 22.5 -18t17.5 -29t9 -48.5t-4 -75.5l-19 -150q-8 -60 0 -86
t39 -26h57l-2 -14h-37q-20 0 -35.5 2t-25 16t-11.5 45.5t5 90.5l18 146q3 20 2.5 43.5t-7 43.5t-20.5 33.5t-38 14.5z" />
    <glyph glyph-name="braceright" unicode="}" horiz-adv-x="269" 
d="M239 311l-3 -24q-32 -2 -50.5 -22.5t-29 -48t-14.5 -55.5t-6 -45l-18 -146q-6 -46 -16 -70.5t-23.5 -35t-29 -11.5t-31.5 -1h-37l2 14h57q31 0 44 26t21 86l23 187q4 34 13.5 57t21.5 38.5t25 24.5t23 14q-12 7 -23 17t-17.5 28.5t-8.5 48.5t4 77l18 150q8 60 0.5 86
t-38.5 26h-57l2 14h37q16 0 31.5 -1.5t26 -12t15 -34.5t-1.5 -70l-18 -146q-2 -17 -5 -45.5t0.5 -56t17.5 -48t45 -21.5z" />
    <glyph glyph-name="zero" unicode="0" horiz-adv-x="669" 
d="M73 327q6 48 27.5 105.5t59.5 108t94.5 84t131.5 33.5q74 0 121 -34.5t72 -85t31 -108.5t0 -106q-9 -69 -38.5 -129.5t-72 -105.5t-95 -70.5t-107.5 -25.5t-100 26.5t-75.5 71.5t-44 105.5t-4.5 130.5zM88 328q-9 -73 5 -132t44 -101t73 -65t91 -23t96.5 22t89.5 63
t70.5 100t38.5 131q9 73 -3 132.5t-40.5 101t-72 64.5t-97.5 23t-103 -21.5t-88.5 -63t-67 -100t-36.5 -131.5z" />
    <glyph glyph-name="hyphen" unicode="-" horiz-adv-x="327" 
d="M61 184l2 14h184l-2 -14h-184z" />
    <glyph glyph-name="slash" unicode="/" horiz-adv-x="389" 
d="M13 -19l185.5 377.5l185.5 377.5h14l-185.5 -377.5l-185.5 -377.5h-14z" />
    <glyph glyph-name="backslash" unicode="\" horiz-adv-x="381" 
d="M116 736l92.5 -377.5l92.5 -377.5h-14l-92.5 377.5l-92.5 377.5h14z" />
    <glyph glyph-name="G" unicode="G" horiz-adv-x="678" 
d="M604 300l-32 -258q-42 -23 -89.5 -36.5t-98.5 -13.5q-74 0 -133 24.5t-99.5 67.5t-62 101t-21.5 124q0 82 33.5 154.5t89 127t128.5 86t153 31.5q51 0 95 -13t82 -37l-9 -12q-74 48 -170 48q-76 0 -146 -30.5t-124 -83t-86 -122.5t-32 -149q0 -63 20.5 -118.5t59 -96.5
t94.5 -64.5t127 -23.5q47 0 91 11.5t85 33.5l29 235h-172l2 14h186z" />
    <glyph glyph-name="V" unicode="V" horiz-adv-x="636" 
d="M96 700q50 -169 91.5 -337.5t91.5 -337.5q2 -6 3 -12.5t3 -12.5l6 12.5l6 12.5l174 337.5t175 337.5h15l-190 -366l-190 -366q-55 184 -100 366t-100 366h15z" />
    <glyph glyph-name="S" unicode="S" horiz-adv-x="534" 
d="M490 667l-7 -11q-26 12 -69 23.5t-87 11.5t-80.5 -13t-62.5 -34.5t-40 -50.5t-14 -60q0 -41 25 -65.5t63 -42.5t81.5 -33.5t81.5 -38t63 -56t25 -87.5q0 -50 -19 -90.5t-51.5 -69t-77 -43.5t-95.5 -15q-41 0 -74 9t-58.5 21t-42 24t-24.5 17l10 13q13 -11 33.5 -23
t46 -22.5t54.5 -17.5t60 -7q40 0 80 12.5t72 37.5t52 62.5t20 88.5q0 52 -25 84t-63 53t-81.5 36.5t-81.5 34t-63 44.5t-25 70q0 37 16.5 69t45 55.5t66 37t79.5 13.5q18 0 40 -2.5t44.5 -7.5t44 -12t38.5 -15z" />
    <glyph glyph-name="Z" unicode="Z" horiz-adv-x="623" 
d="M144 700h475l-602 -686h551l-2 -14h-576l300 348.5l299 337.5h-433q-31 0 -43.5 8t-10.5 37v4h16l-1 -12q-1 -9 4.5 -16t22.5 -7z" />
    <glyph glyph-name="W" unicode="W" horiz-adv-x="928" 
d="M954 700l-54.5 -102l-61 -116l-63.5 -121.5l-61 -118.5l-140 -274l-99 399l-4 21l-10 -21l-67 -150l-29 -64.5l-30 -66.5l-28.5 -63l-24.5 -55q-55 184 -100 366t-100 366h15l26.5 -93.5l29.5 -107l30.5 -112l29.5 -109.5l67 -253l6 -25l10 25l171 383l-73 292h15
l64 -256l27 -110l27 -112l24.5 -105.5l20.5 -91.5q2 -6 3 -12.5t3 -12.5q2 3 3.5 7t3.5 8l5 10l128 253l56 109.5l58 112l56.5 107l50.5 93.5h15z" />
    <glyph glyph-name="X" unicode="X" horiz-adv-x="539" 
d="M272 360l-89 170l-89 170h16l84.5 -159.5l84.5 -159.5q2 -3 3 -6.5t3 -6.5q3 3 5 6.5t5 6.5l121.5 159.5l121.5 159.5h12l-130 -170.5l-130 -170.5l95 -179.5l95 -179.5h-17l-149 279q-9 17 -17.5 36.5t-19.5 35.5l-4.5 -6.5l-4.5 -6.5l-129 -169l-129 -169h-12l137 180z
" />
    <glyph glyph-name="AE" unicode="&#xc6;" horiz-adv-x="621" 
d="M174 332h149l-2 -14h-149zM373 700l-6 -12.5l-6 -12.5l-89 -168.5l-85.5 -169l-85.5 -169l-89 -168.5h-15l94 177.5l87.5 172l87.5 172l94 178.5h13zM274 0l86 700h255l-2 -14h-241l-40 -326h202l-2 -14h-202l-40 -332h255l-2 -14h-269z" />
    <glyph glyph-name="Ntilde" unicode="&#xd1;" horiz-adv-x="808" 
d="M742 700l-90 -732l-233.5 353.5l-221.5 348.5q-4 7 -8 13t-8 13v-32l-82 -664h-14l90 732l117.5 -179.5l112 -176l111 -174l113.5 -174.5q4 -7 8 -13t8 -13q1 8 1 16v16l82 666h14zM474 790q-14 18 -25 24t-25 6q-8 0 -19 -2.5t-21.5 -8.5t-19.5 -16.5t-13 -27.5
q-3 1 -6.5 1t-6.5 1q7 37 34.5 52t55.5 15q20 0 35.5 -10.5t29.5 -27.5q14 -18 25 -24t25 -6q8 0 19 2.5t21.5 8.5t19.5 16.5t13 27.5q3 -1 6.5 -1t6.5 -1q-7 -37 -35 -52t-56 -15q-20 0 -35 10.5t-29 27.5z" />
    <glyph glyph-name="Aring" unicode="&#xc5;" horiz-adv-x="638" 
d="M340 830q0 -18 12.5 -31.5t30.5 -13.5q21 0 38.5 16t17.5 37q0 18 -13 31.5t-31 13.5q-21 0 -38 -16t-17 -37zM326 827q0 29 21 49.5t50 20.5q25 0 40.5 -16t15.5 -40q0 -29 -21 -49.5t-50 -20.5q-25 0 -40.5 16t-15.5 40zM171 318h309l2 14h-309zM561 0
q-50 169 -91.5 337.5t-91.5 337.5q-2 6 -3 12.5t-3 12.5l-6 -12.5l-6 -12.5q-92 -169 -174.5 -337.5t-174.5 -337.5h-15l190 366l190 366q55 -184 100 -366t100 -366h-15z" />
    <glyph glyph-name="Aacute" unicode="&#xc1;" horiz-adv-x="638" 
d="M171 318h309l2 14h-309zM576 0q-55 184 -100 366t-100 366l-190 -366l-190 -366h15q92 169 174.5 337.5t174.5 337.5l6 12.5l6 12.5q2 -6 3 -12.5t3 -12.5q50 -169 91.5 -337.5t91.5 -337.5h15zM370 750l53 66.5l53 66.5h16l-53 -66.5l-53 -66.5h-16z" />
    <glyph glyph-name="Eacute" unicode="&#xc9;" horiz-adv-x="606" 
d="M86 0l86 700h415l-2 -14h-401l-40 -326h362l-2 -14h-362l-40 -332h415l-2 -14h-429zM375 750l53 66.5l53 66.5h16l-53 -66.5l-53 -66.5h-16z" />
    <glyph glyph-name="Iacute" unicode="&#xcd;" horiz-adv-x="252" 
d="M172 700h14l-86 -700h-14zM163 750l53 66.5l53 66.5h16l-53 -66.5l-53 -66.5h-16z" />
    <glyph glyph-name="Oacute" unicode="&#xd3;" horiz-adv-x="837" 
d="M70 349q9 74 45 139.5t90.5 114t123 77t142.5 28.5q69 0 127 -25t100.5 -69t66.5 -103t24 -126q0 -80 -33.5 -151.5t-89.5 -125t-129.5 -85t-153.5 -31.5q-74 0 -135.5 28t-104 76.5t-62.5 113.5t-11 139zM84 348q-9 -71 10.5 -133t60 -108.5t99 -73.5t128.5 -27
q76 0 147 30t125.5 81.5t87 120t32.5 145.5q0 64 -23 121t-64 99t-96.5 66.5t-121.5 24.5q-71 0 -136.5 -27.5t-118 -74.5t-87 -110t-43.5 -134zM448 750l53 66.5l53 66.5h16l-53 -66.5l-53 -66.5h-16z" />
    <glyph glyph-name="Uacute" unicode="&#xda;" horiz-adv-x="668" 
d="M300 -8q-48 0 -87.5 15t-66 44.5t-38 73.5t-4.5 101l58 474h14l-58 -471q-7 -54 3.5 -95.5t35.5 -70t62 -43t83 -14.5q45 0 85.5 14.5t72 43t52.5 70t28 95.5l58 471h14l-58 -474q-7 -57 -30 -101t-56.5 -73.5t-76.5 -44.5t-91 -15zM376 750l53.5 66.5l52.5 66.5h16
l-52.5 -66.5l-53.5 -66.5h-16z" />
    <glyph glyph-name="Adieresis" unicode="&#xc4;" horiz-adv-x="638" 
d="M171 318h309l2 14h-309zM576 0q-55 184 -100 366t-100 366l-190 -366l-190 -366h15q92 169 174.5 337.5t174.5 337.5l6 12.5l6 12.5q2 -6 3 -12.5t3 -12.5q50 -169 91.5 -337.5t91.5 -337.5h15zM447 788q0 9 7 15.5t15 6.5t13 -5t5 -13q0 -9 -6.5 -15.5t-15.5 -6.5
q-8 0 -13 5t-5 13zM282 788q0 9 7 15.5t15 6.5t13 -5t5 -13q0 -9 -7 -15.5t-15 -6.5t-13 5t-5 13z" />
    <glyph glyph-name="Edieresis" unicode="&#xcb;" horiz-adv-x="606" 
d="M86 0l86 700h415l-2 -14h-401l-40 -326h362l-2 -14h-362l-40 -332h415l-2 -14h-429zM462 788q0 9 7 15.5t15 6.5t13 -5t5 -13q0 -9 -7 -15.5t-15 -6.5t-13 5t-5 13zM297 788q0 9 7 15.5t15 6.5t13 -5t5 -13q0 -9 -7 -15.5t-15 -6.5t-13 5t-5 13z" />
    <glyph glyph-name="Idieresis" unicode="&#xcf;" horiz-adv-x="252" 
d="M172 700h14l-86 -700h-14zM253 788q0 9 7 15.5t15 6.5t13 -5t5 -13q0 -9 -7 -15.5t-15 -6.5t-13 5t-5 13zM88 788q0 9 7 15.5t15 6.5t13 -5t5 -13q0 -9 -7 -15.5t-15 -6.5t-13 5t-5 13z" />
    <glyph glyph-name="Odieresis" unicode="&#xd6;" horiz-adv-x="837" 
d="M70 349q9 74 45 139.5t90.5 114t123 77t142.5 28.5q69 0 127 -25t100.5 -69t66.5 -103t24 -126q0 -80 -33.5 -151.5t-89.5 -125t-129.5 -85t-153.5 -31.5q-74 0 -135.5 28t-104 76.5t-62.5 113.5t-11 139zM84 348q-9 -71 10.5 -133t60 -108.5t99 -73.5t128.5 -27
q76 0 147 30t125.5 81.5t87 120t32.5 145.5q0 64 -23 121t-64 99t-96.5 66.5t-121.5 24.5q-71 0 -136.5 -27.5t-118 -74.5t-87 -110t-43.5 -134zM535 788q0 9 7 15.5t15 6.5t13 -5t5 -13q0 -9 -7 -15.5t-15 -6.5t-13 5t-5 13zM370 788q0 9 7 15.5t15 6.5t13 -5t5 -13
q0 -9 -7 -15.5t-15 -6.5t-13 5t-5 13z" />
    <glyph glyph-name="Udieresis" unicode="&#xdc;" horiz-adv-x="668" 
d="M300 -8q-48 0 -87.5 15t-66 44.5t-38 73.5t-4.5 101l58 474h14l-58 -471q-7 -54 3.5 -95.5t35.5 -70t62 -43t83 -14.5q45 0 85.5 14.5t72 43t52.5 70t28 95.5l58 471h14l-58 -474q-7 -57 -30 -101t-56.5 -73.5t-76.5 -44.5t-91 -15zM473 788q0 9 7 15.5t15 6.5t13 -5
t5 -13q0 -9 -7 -15.5t-15 -6.5t-13 5t-5 13zM308 788q0 9 7 15.5t15 6.5t13 -5t5 -13q0 -9 -7 -15.5t-15 -6.5t-13 5t-5 13z" />
    <glyph glyph-name="Agrave" unicode="&#xc0;" horiz-adv-x="638" 
d="M171 318h309l2 14h-309zM576 0q-55 184 -100 366t-100 366l-190 -366l-190 -366h15q92 169 174.5 337.5t174.5 337.5l6 12.5l6 12.5q2 -6 3 -12.5t3 -12.5q50 -169 91.5 -337.5t91.5 -337.5h15zM312 883l37 -66.5l37 -66.5h-16l-37 66.5l-37 66.5h16z" />
    <glyph glyph-name="Egrave" unicode="&#xc8;" horiz-adv-x="606" 
d="M86 0l86 700h415l-2 -14h-401l-40 -326h362l-2 -14h-362l-40 -332h415l-2 -14h-429zM359 883l37 -66.5l37 -66.5h-16l-37 66.5l-37 66.5h16z" />
    <glyph glyph-name="Igrave" unicode="&#xcc;" horiz-adv-x="252" 
d="M172 700h14l-86 -700h-14zM132 883l37 -66.5l37 -66.5h-16l-37 66.5l-37 66.5h16z" />
    <glyph glyph-name="Ograve" unicode="&#xd2;" horiz-adv-x="837" 
d="M70 349q9 74 45 139.5t90.5 114t123 77t142.5 28.5q69 0 127 -25t100.5 -69t66.5 -103t24 -126q0 -80 -33.5 -151.5t-89.5 -125t-129.5 -85t-153.5 -31.5q-74 0 -135.5 28t-104 76.5t-62.5 113.5t-11 139zM84 348q-9 -71 10.5 -133t60 -108.5t99 -73.5t128.5 -27
q76 0 147 30t125.5 81.5t87 120t32.5 145.5q0 64 -23 121t-64 99t-96.5 66.5t-121.5 24.5q-71 0 -136.5 -27.5t-118 -74.5t-87 -110t-43.5 -134zM408 883l37 -66.5l37 -66.5h-16l-37 66.5l-37 66.5h16z" />
    <glyph glyph-name="Ugrave" unicode="&#xd9;" horiz-adv-x="668" 
d="M300 -8q-48 0 -87.5 15t-66 44.5t-38 73.5t-4.5 101l58 474h14l-58 -471q-7 -54 3.5 -95.5t35.5 -70t62 -43t83 -14.5q45 0 85.5 14.5t72 43t52.5 70t28 95.5l58 471h14l-58 -474q-7 -57 -30 -101t-56.5 -73.5t-76.5 -44.5t-91 -15zM341 883l37.5 -66.5l36.5 -66.5h-16
l-36.5 66.5l-37.5 66.5h16z" />
    <glyph glyph-name="Yacute" unicode="&#xdd;" horiz-adv-x="595" 
d="M304 262l-32 -262h-14l32 262l-104.5 219l-104.5 219h17l96.5 -200.5l95.5 -201.5l9 -26q5 7 8 13t7 13l144.5 201l144.5 201h17zM351 750l53.5 66.5l52.5 66.5h16l-52.5 -66.5l-53.5 -66.5h-16z" />
    <glyph glyph-name="exclamdown" unicode="&#xa1;" horiz-adv-x="222" 
d="M140 504q8 0 13 -6t4 -14q-1 -9 -7.5 -14.5t-14.5 -5.5q-7 0 -12.5 5.5t-4.5 14.5q1 8 8 14t14 6zM117 374h14l-72 -584h-14z" />
    <glyph glyph-name="Oslash" unicode="&#xd8;" horiz-adv-x="836" 
d="M113 8l95 99l117 121.5l127.5 133l127.5 133l117 122l95 99.5l7 -8l-95 -99l-117 -122l-127.5 -133l-127.5 -133l-117 -122l-95 -99zM113 349q9 74 45 139.5t90.5 114t123 77t142.5 28.5q69 0 127 -25t100.5 -69t66.5 -103t24 -126q0 -80 -33.5 -151.5t-89.5 -125
t-129.5 -85t-153.5 -31.5q-74 0 -135.5 28t-104 76.5t-62.5 113.5t-11 139zM127 348q-9 -71 10.5 -133t60 -108.5t99 -73.5t128.5 -27q76 0 147 30t125.5 81.5t87 120t32.5 145.5q0 64 -23 121t-64 99t-96.5 66.5t-121.5 24.5q-71 0 -136.5 -27.5t-118 -74.5t-87 -110
t-43.5 -134z" />
    <glyph glyph-name="questiondown" unicode="&#xbf;" horiz-adv-x="483" 
d="M392 -57q3 -1 6.5 -1.5t6.5 -1.5q-14 -29 -35 -53.5t-47 -42t-56.5 -27.5t-62.5 -10q-38 0 -70 13.5t-55 37.5t-36 56t-13 68q0 61 32.5 106t87.5 81q21 14 39 23.5t32 21.5t23.5 31t13.5 52l10 78h13l-12 -97q-4 -31 -17.5 -49.5t-34 -33t-45.5 -29t-52 -35.5
q-40 -32 -58 -69t-18 -80q0 -35 12 -64.5t33.5 -51t51 -33.5t64.5 -12q30 0 58 9t53 25t44.5 38.5t31.5 49.5zM291 514q7 0 12 -5t5 -13q0 -10 -7 -16t-15 -6q-7 0 -12 5t-5 13q0 9 7 15.5t15 6.5z" />
    <glyph glyph-name="Atilde" unicode="&#xc3;" horiz-adv-x="638" 
d="M171 318h309l2 14h-309zM576 0q-55 184 -100 366t-100 366l-190 -366l-190 -366h15q92 169 174.5 337.5t174.5 337.5l6 12.5l6 12.5q2 -6 3 -12.5t3 -12.5q50 -169 91.5 -337.5t91.5 -337.5h15zM374 785q-14 18 -25 24t-25 6q-8 0 -19 -2.5t-21.5 -8.5t-19.5 -16.5
t-13 -27.5q-3 1 -6.5 1t-5.5 1q7 37 34.5 52t55.5 15q20 0 35 -10.5t29 -27.5q14 -18 25 -24t25 -6q8 0 19 2.5t21.5 8.5t19.5 16.5t13 27.5q3 -1 6.5 -1t6.5 -1q-7 -37 -34.5 -52t-55.5 -15q-20 0 -35.5 10.5t-29.5 27.5z" />
    <glyph glyph-name="Otilde" unicode="&#xd5;" horiz-adv-x="837" 
d="M70 349q9 74 45 139.5t90.5 114t123 77t142.5 28.5q69 0 127 -25t100.5 -69t66.5 -103t24 -126q0 -80 -33.5 -151.5t-89.5 -125t-129.5 -85t-153.5 -31.5q-74 0 -135.5 28t-104 76.5t-62.5 113.5t-11 139zM84 348q-9 -71 10.5 -133t60 -108.5t99 -73.5t128.5 -27
q76 0 147 30t125.5 81.5t87 120t32.5 145.5q0 64 -23 121t-64 99t-96.5 66.5t-121.5 24.5q-71 0 -136.5 -27.5t-118 -74.5t-87 -110t-43.5 -134zM463 824q-14 18 -25 24t-25 6q-8 0 -19 -2.5t-21.5 -8.5t-19.5 -16.5t-13 -27.5q-3 1 -6.5 1t-6.5 1q7 37 35 52t56 15
q20 0 35 -10.5t29 -27.5q14 -18 25 -24t25 -6q8 0 19 2.5t21.5 8.5t19.5 16.5t13 27.5q3 -1 6.5 -1t6.5 -1q-7 -37 -34.5 -52t-55.5 -15q-20 0 -35.5 10.5t-29.5 27.5z" />
    <glyph glyph-name="acircumflex" unicode="&#xe2;" 
d="M47 170q0 -34 12 -63.5t33 -51.5t50 -34.5t64 -12.5q40 0 77 15.5t65.5 42.5t45 63t16.5 77q0 34 -12 64t-33.5 52t-51 34.5t-63.5 12.5q-41 0 -77.5 -16t-64.5 -43t-44.5 -63.5t-16.5 -76.5zM33 168q0 44 18 83t48 68.5t69.5 46.5t83.5 17q62 0 106.5 -34.5t59.5 -88.5
q4 29 8.5 57.5l9.5 57.5h10l-46 -375h-14l7 54l4 31.5l4 31.5q-14 -27 -34.5 -49.5t-46.5 -39t-55.5 -25.5t-60.5 -9q-37 0 -68.5 13.5t-54 37t-35.5 55t-13 68.5zM323 659l49 -90.5l49 -90.5h-16l-43 77l-42 77l-62 -77l-61 -77h-16l71 90.5z" />
    <glyph glyph-name="ecircumflex" unicode="&#xea;" horiz-adv-x="434" 
d="M345 46q-29 -24 -65 -38t-75 -14q-38 0 -69.5 13.5t-54 37t-35.5 55t-13 68.5q0 44 18 83t48.5 68.5t70 47t83.5 17.5q62 0 100 -35.5t53 -89.5l-84.5 -32.5l-92 -35.5l-92 -35.5l-85.5 -33.5q14 -51 55 -82.5t99 -31.5q36 0 69.5 12.5t59.5 35.5zM388 266
q-16 45 -49.5 74t-87.5 29q-41 0 -77.5 -16t-65 -43.5t-45 -64.5t-16.5 -79v-15.5t2 -15.5l82 32l87 33.5l87.5 33.5zM288 660l49.5 -90.5l48.5 -90.5h-16l-42 77l-43 77l-61 -77l-62 -77h-16l71.5 90.5z" />
    <glyph glyph-name="icircumflex" unicode="&#xee;" horiz-adv-x="164" 
d="M56 0h-14l46 375h14zM131 660l49 -90.5l49 -90.5h-16q-22 38 -42.5 77t-42.5 77l-61.5 -77l-61.5 -77h-16l71 90.5z" />
    <glyph glyph-name="ocircumflex" unicode="&#xf4;" horiz-adv-x="478" 
d="M34 188q5 40 24.5 76t49 62.5t66.5 42t78 15.5q37 0 69 -13.5t55.5 -37.5t36.5 -56t13 -69q0 -44 -18.5 -83t-49 -68t-71 -46t-83.5 -17q-41 0 -74 15t-56 41.5t-34 61.5t-6 76zM48 188q-5 -38 5.5 -70.5t31.5 -57t52 -38.5t69 -14q40 0 77 15.5t65.5 42.5t45 63t16.5 77
q0 34 -12 64t-33.5 52t-51 34.5t-63.5 12.5q-38 0 -72.5 -14t-61.5 -39t-45.5 -58t-22.5 -70zM286 660l49 -90.5l49 -90.5h-16l-43 77l-42 77l-62 -77l-61 -77h-16l71 90.5z" />
    <glyph glyph-name="ucircumflex" unicode="&#xfb;" horiz-adv-x="437" 
d="M329 0h-10l11 98q-26 -48 -74 -76.5t-104 -28.5q-53 0 -80 31t-22 81l33 270h14l-34 -277q-3 -36 18.5 -62.5t65.5 -28.5q34 0 66 11t57.5 30.5t42.5 47t21 59.5l27 220h14zM324 660l49 -90.5l49 -90.5h-16q-22 38 -42.5 77t-42.5 77l-61.5 -77l-61.5 -77h-16l71 90.5z
" />
    <glyph glyph-name="atilde" unicode="&#xe3;" 
d="M47 170q0 -34 12 -63.5t33 -51.5t50 -34.5t64 -12.5q40 0 77 15.5t65.5 42.5t45 63t16.5 77q0 34 -12 64t-33.5 52t-51 34.5t-63.5 12.5q-41 0 -77.5 -16t-64.5 -43t-44.5 -63.5t-16.5 -76.5zM33 168q0 44 18 83t48 68.5t69.5 46.5t83.5 17q62 0 106.5 -34.5t59.5 -88.5
q4 29 8.5 57.5l9.5 57.5h10l-46 -375h-14l7 54l4 31.5l4 31.5q-14 -27 -34.5 -49.5t-46.5 -39t-55.5 -25.5t-60.5 -9q-37 0 -68.5 13.5t-54 37t-35.5 55t-13 68.5zM301 497q-14 18 -25 24t-25 6q-8 0 -19 -2.5t-21.5 -8.5t-19.5 -16.5t-13 -27.5q-3 1 -6.5 1t-6.5 1
q7 37 34.5 52t55.5 15q20 0 35.5 -10.5t29.5 -27.5q14 -18 25 -24t25 -6q8 0 19 2.5t21.5 8.5t19.5 16.5t13 27.5q3 -1 6.5 -1t6.5 -1q-7 -37 -35 -52t-56 -15q-20 0 -35 10.5t-29 27.5z" />
    <glyph glyph-name="grave" unicode="`" horiz-adv-x="200" 
d="M77 612l37 -66.5l37 -66.5h-16l-37 66.5l-37 66.5h16z" />
    <glyph glyph-name="asciicircum" unicode="^" horiz-adv-x="410" 
d="M254 660l49 -90.5l49 -90.5h-16q-22 38 -42.5 77t-42.5 77l-61.5 -77l-61.5 -77h-16l71 90.5z" />
    <glyph glyph-name="otilde" unicode="&#xf5;" horiz-adv-x="478" 
d="M34 188q5 40 24.5 76t49 62.5t66.5 42t78 15.5q37 0 69 -13.5t55.5 -37.5t36.5 -56t13 -69q0 -44 -18.5 -83t-49 -68t-71 -46t-83.5 -17q-41 0 -74 15t-56 41.5t-34 61.5t-6 76zM48 188q-5 -38 5.5 -70.5t31.5 -57t52 -38.5t69 -14q40 0 77 15.5t65.5 42.5t45 63t16.5 77
q0 34 -12 64t-33.5 52t-51 34.5t-63.5 12.5q-38 0 -72.5 -14t-61.5 -39t-45.5 -58t-22.5 -70zM260 497q-14 18 -25 24t-25 6q-8 0 -19 -2.5t-21.5 -8.5t-19.5 -16.5t-13 -27.5q-3 1 -6.5 1t-6.5 1q7 37 34.5 52t55.5 15q20 0 35.5 -10.5t29.5 -27.5q14 -18 25 -24t25 -6
q8 0 19 2.5t21.5 8.5t19.5 16.5t13 27.5q3 -1 6.5 -1t6.5 -1q-7 -37 -35 -52t-56 -15q-20 0 -35 10.5t-29 27.5z" />
    <glyph glyph-name="quotesingle" unicode="'" horiz-adv-x="179" 
d="M106 472l30 248h18q-8 -63 -17 -124t-17 -124h-14z" />
    <glyph glyph-name="underscore" unicode="_" horiz-adv-x="547" 
d="M443 0h-400l2 14h400z" />
    <glyph glyph-name="bracketleft" unicode="[" horiz-adv-x="297" 
d="M52 -149l110 895h163l-2 -14h-147l-106 -867h147l-2 -14h-163z" />
    <glyph glyph-name="bracketright" unicode="]" horiz-adv-x="297" 
d="M252 746l-110 -895h-163l2 14h147l106 867h-147l2 14h163z" />
    <glyph glyph-name="degree" unicode="&#xb0;" horiz-adv-x="287" 
d="M171 498q28 0 49 19.5t21 48.5q0 24 -16 40t-39 16q-29 0 -50 -19.5t-21 -48.5q0 -24 16 -40t40 -16zM101 551q0 36 25.5 60.5t61.5 24.5q30 0 48.5 -19.5t18.5 -48.5q0 -36 -25.5 -60t-60.5 -24q-31 0 -49.5 19t-18.5 48z" />
    <glyph glyph-name="ccedilla" unicode="&#xe7;" horiz-adv-x="400" 
d="M324 47q2 -2 4.5 -5t4.5 -5q-28 -20 -60.5 -31.5t-67.5 -11.5q-38 0 -69.5 13.5t-54 37t-35.5 55t-13 68.5q0 44 18 83t48 68.5t69.5 46.5t83.5 17q35 0 65 -11.5t53 -31.5q-2 -3 -5.5 -5.5t-5.5 -5.5q-21 19 -48.5 29.5t-59.5 10.5q-41 0 -77.5 -16t-65 -43t-45 -63.5
t-16.5 -76.5q0 -34 12 -63.5t33 -51.5t50 -34.5t64 -12.5q32 0 62 10.5t56 28.5zM188 0h15l-1 -6q-2 -13 0.5 -22t8 -15t12.5 -10t13 -8q19 -14 26.5 -31t7.5 -30q0 -26 -8 -44.5t-21.5 -31.5t-31 -19t-35.5 -6q-26 0 -47 14.5t-27 43.5l8 2l8 2q3 -21 19 -34.5t41 -13.5
q33 0 56 23t23 58q0 24 -11.5 37.5t-25 24t-24 21t-8.5 29.5z" />
    <glyph glyph-name="Ccedilla" unicode="&#xc7;" horiz-adv-x="647" 
d="M573 42q-43 -23 -90.5 -36.5t-101.5 -13.5q-73 0 -131 25t-98.5 68t-62 100.5t-21.5 122.5q0 83 33.5 156t89 127t128.5 85.5t153 31.5q51 0 95 -13t82 -37l-9 -12q-35 23 -78 35.5t-91 12.5q-77 0 -147 -30.5t-124 -83t-86 -122.5t-32 -150q0 -62 20 -116.5t58.5 -96
t93.5 -65.5t125 -24q52 0 98 12.5t88 35.5zM371 0h15l-1 -6q-2 -13 0.5 -22t8 -15t12.5 -10t13 -8q19 -14 26.5 -31t7.5 -30q0 -26 -8 -44.5t-21.5 -31.5t-31 -19t-35.5 -6q-26 0 -47 14.5t-27 43.5l8 2l8 2q3 -21 19 -34.5t41 -13.5q33 0 56 23t23 58q0 24 -11.5 37.5
t-25 24t-24 21t-8.5 29.5z" />
    <glyph glyph-name="endash" unicode="&#x2013;" horiz-adv-x="434" 
d="M55 179l2 14h301l-2 -14h-301z" />
    <glyph glyph-name="emdash" unicode="&#x2014;" horiz-adv-x="635" 
d="M55 179l2 14h502l-2 -14h-502z" />
    <glyph glyph-name="cedilla" unicode="&#xb8;" horiz-adv-x="452" 
d="M193 0h15l-1 -6q-2 -13 0.5 -22t8 -15t12.5 -10t13 -8q19 -14 26.5 -31t7.5 -30q0 -26 -8 -44.5t-21.5 -31.5t-31 -19t-35.5 -6q-26 0 -47 14.5t-27 43.5q4 1 7.5 2t7.5 2q4 -21 20 -34.5t41 -13.5q33 0 56 23t23 58q0 24 -11.5 37.5t-25 24t-24 21t-8.5 29.5z" />
    <glyph glyph-name="acute" unicode="&#xb4;" horiz-adv-x="218" 
d="M159 479l53 66.5l53 66.5h16l-53 -66.5l-53 -66.5h-16z" />
    <glyph glyph-name="dieresis" unicode="&#xa8;" horiz-adv-x="370" 
d="M308 498q0 9 7 15.5t16 6.5q8 0 13 -5t5 -13q0 -9 -7 -15.5t-16 -6.5q-8 0 -13 5t-5 13zM143 498q0 9 7 15.5t16 6.5q8 0 13 -5t5 -13q0 -9 -7 -15.5t-16 -6.5q-8 0 -13 5t-5 13z" />
    <glyph glyph-name="Eth" unicode="&#xd0;" horiz-adv-x="717" 
d="M79 360h281l-2 -14h-281zM178 700h143q96 0 162 -28t107 -73t59 -101t18 -111q0 -87 -33 -158.5t-88 -122.5t-127 -78.5t-149 -27.5h-177zM277 14q73 0 141 26.5t120.5 75t84 117t31.5 152.5q0 53 -17 106.5t-55.5 96.5t-100.5 70t-152 27h-138l-41.5 -335.5
l-41.5 -335.5h169z" />
    <glyph glyph-name="thorn" unicode="&#xfe;" horiz-adv-x="509" 
d="M442 207q0 34 -12 63.5t-33.5 51.5t-51 34.5t-63.5 12.5q-41 0 -77.5 -16t-65 -43t-45 -63.5t-16.5 -76.5q0 -34 12 -63.5t33.5 -51.5t50.5 -34.5t64 -12.5q40 0 77 16t65.5 43t45 63t16.5 77zM456 208q0 -44 -18 -83t-48 -68t-70 -46t-84 -17q-63 0 -107.5 34.5
t-59.5 88.5l-6 -63l-29 -234h-14l114 930h14q-16 -127 -28 -231q-5 -44 -10.5 -87.5l-10 -79l-7.5 -60.5t-4 -32q29 54 81.5 88.5t114.5 34.5q37 0 69 -13.5t54.5 -37t35.5 -55.5t13 -69z" />
    <glyph glyph-name="eth" unicode="&#xf0;" horiz-adv-x="484" 
d="M175 547l43 41l43 41q-19 23 -39.5 45.5t-43.5 42.5q2 2 3.5 4.5t3.5 4.5q23 -19 44 -41t41 -48l40 38.5l40 38.5l3.5 -3.5l3.5 -3.5l-81 -78q32 -44 60 -93.5t48.5 -102t32.5 -105.5t12 -103q0 -41 -2.5 -47.5t-5.5 9t-7 46t-7 62.5q-3 28 -12 64.5t-25.5 78.5t-41.5 88
t-61 94l-42.5 -40.5l-42.5 -40.5q-2 3 -7 8zM34 188q5 40 24.5 76t49 62.5t66.5 42t78 15.5q37 0 69 -13.5t55.5 -37.5t36.5 -56t13 -69q0 -44 -18.5 -83t-49 -68t-71 -46t-83.5 -17q-41 0 -74 15t-56 41.5t-34 61.5t-6 76zM48 188q-5 -38 5.5 -70.5t31.5 -57t52 -38.5
t69 -14q40 0 77 15.5t65.5 42.5t45 63t16.5 77q0 34 -12 64t-33.5 52t-51 34.5t-63.5 12.5q-38 0 -72.5 -14t-61.5 -39t-45.5 -58t-22.5 -70z" />
    <glyph glyph-name="Thorn" unicode="&#xde;" horiz-adv-x="500" 
d="M86 0l86 700h14l-20 -165h126q27 0 58.5 -8.5t58 -27.5t44.5 -50.5t18 -76.5q0 -40 -14.5 -78.5t-44.5 -69t-75 -49.5t-106 -19h-112l-19 -156h-14zM121 170h115q64 0 106.5 21.5t68 52t36 65.5t10.5 62q0 34 -13 62t-36.5 47.5t-56 30t-71.5 10.5h-116z" />
    <glyph glyph-name="Acircumflex" unicode="&#xc2;" horiz-adv-x="638" 
d="M171 318h309l2 14h-309zM576 0q-55 184 -100 366t-100 366l-190 -366l-190 -366h15q92 169 174.5 337.5t174.5 337.5l6 12.5l6 12.5q2 -6 3 -12.5t3 -12.5q50 -169 91.5 -337.5t91.5 -337.5h15zM441 931l49 -90.5l49 -90.5h-16q-22 38 -42.5 77t-42.5 77l-61.5 -77
l-61.5 -77h-16l71 90.5z" />
    <glyph glyph-name="Ecircumflex" unicode="&#xca;" horiz-adv-x="606" 
d="M86 0l86 700h415l-2 -14h-401l-40 -326h362l-2 -14h-362l-40 -332h415l-2 -14h-429zM410 931l49 -90.5l49 -90.5h-16q-22 38 -42.5 77t-42.5 77l-61.5 -77l-61.5 -77h-16l71 90.5z" />
    <glyph glyph-name="Icircumflex" unicode="&#xce;" horiz-adv-x="252" 
d="M172 700h14l-86 -700h-14zM208 931l49 -90.5l49 -90.5h-16q-22 38 -42.5 77t-42.5 77l-61.5 -77l-61.5 -77h-16l71 90.5z" />
    <glyph glyph-name="Ocircumflex" unicode="&#xd4;" horiz-adv-x="837" 
d="M70 349q9 74 45 139.5t90.5 114t123 77t142.5 28.5q69 0 127 -25t100.5 -69t66.5 -103t24 -126q0 -80 -33.5 -151.5t-89.5 -125t-129.5 -85t-153.5 -31.5q-74 0 -135.5 28t-104 76.5t-62.5 113.5t-11 139zM84 348q-9 -71 10.5 -133t60 -108.5t99 -73.5t128.5 -27
q76 0 147 30t125.5 81.5t87 120t32.5 145.5q0 64 -23 121t-64 99t-96.5 66.5t-121.5 24.5q-71 0 -136.5 -27.5t-118 -74.5t-87 -110t-43.5 -134zM486 931l49 -90.5l49 -90.5h-16q-22 38 -42.5 77t-42.5 77l-61.5 -77l-61.5 -77h-16l71 90.5z" />
    <glyph glyph-name="Ucircumflex" unicode="&#xdb;" horiz-adv-x="668" 
d="M300 -8q-48 0 -87.5 15t-66 44.5t-38 73.5t-4.5 101l58 474h14l-58 -471q-7 -54 3.5 -95.5t35.5 -70t62 -43t83 -14.5q45 0 85.5 14.5t72 43t52.5 70t28 95.5l58 471h14l-58 -474q-7 -57 -30 -101t-56.5 -73.5t-76.5 -44.5t-91 -15zM424 931l49 -90.5l49 -90.5h-16
q-22 38 -42.5 77t-42.5 77l-61.5 -77l-61.5 -77h-16l71 90.5z" />
    <glyph glyph-name="plusminus" unicode="&#xb1;" horiz-adv-x="565" 
d="M271 211l22 174h-173l1 14h173l21 172h14l-21 -172h173l-1 -14h-173l-22 -174h-14zM449 136h-360l2 14h360z" />
    <glyph glyph-name="dollar" unicode="$" horiz-adv-x="521" 
d="M319 764l-102 -832h-14l102 832h14zM482 667l-7 -11q-26 12 -69 23.5t-87 11.5t-80.5 -13t-62.5 -34.5t-40 -50.5t-14 -60q0 -41 25 -65.5t63 -42.5t81.5 -33.5t81.5 -38t63 -56t25 -87.5q0 -50 -19 -90.5t-51.5 -69t-77 -43.5t-95.5 -15q-41 0 -74 9t-58.5 21t-42 24
t-24.5 17l10 13q13 -11 33.5 -23t46 -22.5t54.5 -17.5t60 -7q40 0 80 12.5t72 37.5t52 62.5t20 88.5q0 52 -25 84t-63 53t-81.5 36.5t-81.5 34t-63 44.5t-25 70q0 37 16.5 69t45 55.5t66 37t79.5 13.5q18 0 40 -2.5t44.5 -7.5t44 -12t38.5 -15z" />
    <glyph glyph-name="cent" unicode="&#xa2;" horiz-adv-x="424" 
d="M187 -68l62 506h14l-62 -506h-14zM329 47q2 -2 4.5 -5t4.5 -5q-28 -20 -60.5 -31.5t-67.5 -11.5q-38 0 -69.5 13.5t-54 37t-35.5 55t-13 68.5q0 44 18 83t48 68.5t69.5 46.5t83.5 17q35 0 65 -11.5t53 -31.5q-2 -3 -5.5 -5.5t-5.5 -5.5q-21 19 -48.5 29.5t-59.5 10.5
q-41 0 -77.5 -16t-65 -43t-45 -63.5t-16.5 -76.5q0 -34 12 -63.5t33 -51.5t50 -34.5t64 -12.5q32 0 62 10.5t56 28.5z" />
    <glyph glyph-name="bullet" unicode="&#x2022;" horiz-adv-x="337" 
d="M105 293q0 30 22.5 51.5t51.5 21.5q26 0 42 -17t16 -42q0 -30 -22 -51t-52 -21q-25 0 -41.5 17t-16.5 41z" />
    <glyph glyph-name="quotedblleft" unicode="&#x201c;" horiz-adv-x="287" 
d="M260 590q-2 -5 -4 -9t-4 -9q-26 26 -34 62.5t5 76.5q5 -2 9.5 -3.5t8.5 -3.5q-11 -35 -5 -64.5t24 -49.5zM156 590q-2 -5 -4 -9t-4 -9q-26 26 -34 62.5t5 76.5q5 -2 9.5 -3.5t8.5 -3.5q-11 -35 -5 -64.5t24 -49.5z" />
    <glyph glyph-name="quotedblright" unicode="&#x201d;" horiz-adv-x="290" 
d="M109 572q-1 5 -1.5 9t-2.5 9q24 20 37 49.5t10 64.5q5 2 10 3.5t10 3.5q4 -40 -13 -76.5t-50 -62.5zM213 572q-1 5 -1.5 9t-2.5 9q24 20 37 49.5t10 64.5q5 2 10 3.5t10 3.5q4 -40 -13 -76.5t-50 -62.5z" />
    <glyph glyph-name="quoteleft" unicode="&#x2018;" horiz-adv-x="183" 
d="M156 590q-2 -5 -4 -9t-4 -9q-26 26 -34 62.5t5 76.5q5 -2 9.5 -3.5t8.5 -3.5q-11 -35 -5 -64.5t24 -49.5z" />
    <glyph glyph-name="quotedblbase" unicode="&#x201e;" horiz-adv-x="317" 
d="M37 -47q-1 5 -2 9t-2 9q23 20 36 49.5t11 64.5q5 2 10 3.5t10 3.5q3 -40 -14 -76.5t-49 -62.5zM141 -47q-1 5 -2 9t-2 9q23 20 36 49.5t11 64.5q5 2 10 3.5t10 3.5q3 -40 -14 -76.5t-49 -62.5z" />
    <glyph glyph-name="quotesinglbase" unicode="&#x201a;" horiz-adv-x="213" 
d="M37 -47q-1 5 -2 9t-2 9q23 20 36 49.5t11 64.5q5 2 10 3.5t10 3.5q3 -40 -14 -76.5t-49 -62.5z" />
    <glyph glyph-name="guilsinglright" unicode="&#x203a;" horiz-adv-x="287" 
d="M43 93l80 73l80 73l-62 72l-62 72l2 17l75.5 -80.5l75.5 -80.5l-191 -162z" />
    <glyph glyph-name="guillemotleft" unicode="&#xab;" horiz-adv-x="458" 
d="M369 77l-151 162l95.5 80.5l95.5 80.5l-2 -17l-80 -72l-80 -72l62 -73l62 -73zM198 77l-151 162l95.5 80.5l95.5 80.5l-2 -17l-80 -72l-80 -72l62 -73l62 -73z" />
    <glyph glyph-name="guillemotright" unicode="&#xbb;" horiz-adv-x="458" 
d="M43 93l80 73l80 73l-62 72l-62 72l2 17l75.5 -80.5l75.5 -80.5l-191 -162zM214 93l80 73l80 73l-62 72l-62 72l2 17l75.5 -80.5l75.5 -80.5l-191 -162z" />
    <glyph glyph-name="yen" unicode="&#xa5;" horiz-adv-x="614" 
d="M311 277h167l-2 -14h-169zM285 114h173l-2 -14h-173zM298 263h-155l2 14h150zM279 100h-156l2 14h156zM310 262l-32 -262h-14l32 262l-104.5 219l-104.5 219h17l96.5 -200.5l95.5 -201.5l9 -26q5 7 8 13t7 13l144.5 201l144.5 201h17z" />
    <glyph glyph-name="copyright" unicode="&#xa9;" horiz-adv-x="663" 
d="M314 132q54 0 103 20.5t87 56t60.5 84t22.5 104.5q0 47 -16 87t-44.5 68.5t-68 44.5t-85.5 16q-53 0 -102 -20.5t-87 -56t-60.5 -84.5t-22.5 -106q0 -46 16.5 -85t45 -67.5t67.5 -45t84 -16.5zM313 118q-50 0 -91.5 17t-71.5 47t-46.5 71.5t-16.5 90.5q0 60 23 112
t62.5 90t92 59.5t110.5 21.5q50 0 91.5 -17t71.5 -47t46.5 -72t16.5 -91q0 -60 -23 -111.5t-62.5 -89.5t-92 -59.5t-110.5 -21.5zM418 236q-19 -11 -40 -17t-45 -6q-33 0 -59.5 11.5t-44.5 31t-28 45.5t-10 56q0 37 15 70t40 57.5t58 38.5t69 14q43 0 81 -22q-3 -2 -5 -6
q-33 22 -76 22q-35 0 -66.5 -14t-56 -37.5t-39 -55.5t-14.5 -68q0 -28 9 -52.5t26.5 -43t42 -29.5t56.5 -11q23 0 44 5.5t40 15.5z" />
    <glyph glyph-name="registered" unicode="&#xae;" horiz-adv-x="663" 
d="M314 132q54 0 103 20.5t87 56t60.5 84t22.5 104.5q0 47 -16 87t-44.5 68.5t-68 44.5t-85.5 16q-53 0 -102 -20.5t-87 -56t-60.5 -84.5t-22.5 -106q0 -46 16.5 -85t45 -67.5t67.5 -45t84 -16.5zM313 118q-50 0 -91.5 17t-71.5 47t-46.5 71.5t-16.5 90.5q0 60 23 112
t62.5 90t92 59.5t110.5 21.5q50 0 91.5 -17t71.5 -47t46.5 -72t16.5 -91q0 -60 -23 -111.5t-62.5 -89.5t-92 -59.5t-110.5 -21.5zM380 369l76 -159h-9l-74 159h7zM287 368h54q30 0 50 10.5t32 25.5t17 31.5t5 28.5q0 32 -23.5 51t-59.5 19h-55zM260 210l41 331h67
q12 0 27 -4t27.5 -13t21 -24t8.5 -36q0 -19 -7 -37t-21 -32.5t-35.5 -23.5t-49.5 -9h-53l-19 -152h-7z" />
    <glyph glyph-name="divide" unicode="&#xf7;" horiz-adv-x="522" 
d="M434 210h-360l2 14h360zM253 339q0 9 7 15.5t16 6.5q8 0 12.5 -5t4.5 -13q0 -9 -6.5 -15.5t-15.5 -6.5q-8 0 -13 5t-5 13zM222 89q0 9 7 15.5t16 6.5q8 0 13 -5t5 -13q0 -9 -7 -15.5t-16 -6.5q-8 0 -13 5t-5 13z" />
    <glyph glyph-name="onehalf" unicode="&#xbd;" horiz-adv-x="827" 
d="M88 685l1 10h90l-56 -461h-10l55 451h-80zM500 10h254l-1 -10h-280l103.5 90.5t89.5 87t62.5 83.5t23.5 80q0 33 -9.5 55t-24 35t-32 18.5t-33.5 5.5q-39 0 -65 -15t-41 -36.5t-21 -45.5t-6 -42q0 -41 21 -65q-4 -2 -8 -6q-11 14 -17 31t-6 39q0 31 10 58t28.5 47.5
t45 32.5t60.5 12q51 0 80 -33.5t29 -85.5q0 -45 -25 -88t-63 -84.5t-85 -82.5zM176 -19l185 377l185 377h14l-185 -377l-185 -377h-14z" />
    <glyph glyph-name="onequarter" unicode="&#xbc;" horiz-adv-x="787" 
d="M160 -19l185 377l185 377h14l-185 -377l-185 -377h-14zM686 459l-138.5 -156l-138.5 -156h239zM385 136l158 177l157 177l-42 -343h72l-1 -11h-72l-17 -136h-10l17 136h-262zM89 685l1 10h90l-56 -461h-10l55 451h-80z" />
    <glyph glyph-name="ordfeminine" unicode="&#xaa;" horiz-adv-x="425" 
d="M90 428q0 -24 8.5 -45.5t24 -37t36.5 -24.5t46 -9q29 0 55.5 11t47 30.5t32.5 45.5t12 56q0 24 -8.5 45.5t-24 37.5t-36.5 25t-46 9q-29 0 -56 -11.5t-47 -31t-32 -45.5t-12 -56zM80 428q0 31 13 59t35 49t50.5 33.5t59.5 12.5q45 0 77 -25t43 -63q2 20 5.5 41t7.5 41h7
l-33 -270h-11l5 39q2 11 3.5 22.5t3.5 22.5q-20 -39 -58.5 -63.5t-83.5 -24.5q-27 0 -50 9.5t-39.5 26.5t-25.5 40t-9 50z" />
    <glyph glyph-name="sterling" unicode="&#xa3;" horiz-adv-x="561" 
d="M101 14h206h41q60 0 87 10.5t31 41.5l7 57h15l-5 -37q-2 -16 -5.5 -31.5t-15.5 -27.5t-37 -19.5t-71 -7.5h-342l2 14h44q18 0 29 7.5t18.5 24.5t12.5 46t10 72l18 147h-65l2 14h65l21 175q8 70 56.5 102t119.5 32q33 0 57 -6.5t41 -18t28 -28t19 -36.5q-2 -2 -5.5 -3
t-5.5 -3q-10 24 -21 39.5t-27 24.5t-37 13t-51 4q-42 0 -71.5 -9.5t-48 -25.5t-27.5 -37t-12 -44l-22 -179h129l-2 -14h-129l-20 -162l-5 -40q-4 -29 -11 -55t-23 -40z" />
    <glyph glyph-name="onesuperior" unicode="&#xb9;" horiz-adv-x="184" 
d="M96 694l1 6h58l-37 -299h-7l36 293h-51z" />
    <glyph glyph-name="threequarters" unicode="&#xbe;" horiz-adv-x="985" 
d="M146 485l95 106l95 106h-222l1 11h246l-177 -195q33 2 61 -8t48.5 -28.5t32.5 -45.5t12 -58q0 -36 -14.5 -67.5t-39.5 -55t-57 -37t-67 -13.5t-62.5 14t-45.5 37q2 2 4 5t4 5q17 -23 42 -36.5t57 -13.5q33 0 63 13t53.5 35t37.5 51t14 61q0 28 -10 52t-28 41.5t-42 27.5
t-52 10q-26 0 -49 -17zM325 -19l185.5 377.5l185.5 377.5h14l-185.5 -377.5l-185.5 -377.5h-14zM886 459l-279 -312h240zM584 136l157 177l158 177l-42 -343h73l-1 -11h-73l-17 -136h-10l17 136h-262z" />
    <glyph glyph-name="twosuperior" unicode="&#xb2;" horiz-adv-x="343" 
d="M109 382h178l-1 -7h-196l72.5 63t63 61t44 58.5t16.5 55.5q0 23 -6.5 38.5t-17 24.5t-23 13t-23.5 4q-27 0 -45 -10.5t-28.5 -25.5t-14.5 -31.5t-4 -29.5q0 -31 14 -46q-3 -1 -6 -4q-15 19 -15 49q0 43 26 74t74 31q35 0 55.5 -24t20.5 -60q0 -31 -17 -60.5t-44 -59
t-59.5 -58z" />
    <glyph glyph-name="paragraph" unicode="&#xb6;" horiz-adv-x="505" 
d="M185 0h-14l52 423q-32 0 -58 11.5t-45.5 31t-30 46t-10.5 57.5q0 37 15 70t40.5 57.5t58.5 39t70 14.5h177l-92 -750h-14l91 736h-149z" />
    <glyph glyph-name="logicalnot" unicode="&#xac;" horiz-adv-x="552" 
d="M442 148l10 79h-346l2 14h360l-12 -93h-14z" />
    <glyph glyph-name="threesuperior" unicode="&#xb3;" horiz-adv-x="301" 
d="M143 558l120 135h-141l1 7h157l-57 -62l-56 -62q42 2 70 -23t28 -67q0 -23 -9.5 -43t-25.5 -35t-36.5 -23.5t-42.5 -8.5t-39.5 9t-29.5 24q1 2 2.5 3t3.5 3q11 -14 27 -23t36 -9q21 0 40.5 8.5t34 22.5t23.5 32.5t9 38.5q0 35 -24 59.5t-60 24.5q-17 0 -31 -11z" />
    <glyph glyph-name="brokenbar" unicode="&#xa6;" horiz-adv-x="222" 
d="M56 -233h-14l43 350h14zM128 350h-14l43 350h14z" />
    <glyph glyph-name="ampersand" unicode="&#x26;" horiz-adv-x="639" 
d="M544 0h-18l-323 497q-8 17 -14.5 37t-6.5 46q0 38 14.5 69t39 53t56 34t66.5 12q39 0 71.5 -13.5t55.5 -28.5q-2 -3 -3.5 -4.5t-3.5 -4.5q-28 17 -58 28t-62 11t-61 -11t-51 -31.5t-35 -48t-13 -60.5q0 -17 2.5 -32t6.5 -26q4 -13 9 -23zM473 103q-16 -24 -40 -44
t-54 -34.5t-64 -22.5t-70 -8q-46 0 -83.5 13.5t-64 37.5t-41 55.5t-14.5 67.5q0 46 21.5 85t56 67.5t78.5 45t89 18.5l2 -15q-37 0 -77.5 -14.5t-74.5 -41t-56 -63.5t-22 -83q0 -36 14.5 -65t40 -50t59.5 -32.5t73 -11.5q35 0 69 9t63.5 24t52 35t35.5 42zM466 118l132 266
h17l-141 -280z" />
    <glyph glyph-name="germandbls" unicode="&#xdf;" horiz-adv-x="526" 
d="M140 22q2 3 4 5.5t4 5.5q39 -28 94 -28q43 0 82.5 17t69.5 45.5t48 66.5t18 79q0 34 -12.5 65t-35 53.5t-53.5 36t-68 13.5q1 2 1 7l1 8q28 0 54 9.5t45.5 26.5t31 42t11.5 55q0 22 -7 43t-22 37t-38 25.5t-54 9.5q-80 0 -128 -58.5t-60 -155.5l-53 -430h-13l45 370h-65
l2 14h65l5 42q14 112 65.5 170.5t127.5 61.5q42 -1 70 -11.5t44.5 -27t23.5 -38t7 -43.5q0 -58 -30 -94.5t-80 -54.5q30 -7 54.5 -23t42 -39t27.5 -51.5t10 -60.5q0 -45 -19 -85.5t-51.5 -71t-74 -48.5t-86.5 -18q-29 0 -55 8t-48 22z" />
    <glyph glyph-name="currency" unicode="&#xa4;" horiz-adv-x="459" 
d="M122 349q0 -23 8 -42.5t22 -33.5t33 -22.5t42 -8.5q26 0 50 10.5t42.5 28t29.5 41.5t11 51q0 45 -29.5 76t-74.5 31q-26 0 -50.5 -10.5t-43 -28t-29.5 -41.5t-11 -51zM108 347q0 29 12 54.5t32 46.5q-8 10 -16.5 19t-16.5 19l11 10l33 -38q20 17 44.5 26.5t50.5 9.5
t48 -10t37 -27l43 38l9 -10l-43 -38q22 -30 22 -73q0 -31 -13 -56.5t-34 -46.5l36 -41l-11 -10q-9 11 -18 20.5t-18 20.5q-41 -33 -91 -33q-51 0 -83 32l-46 -41l-9 10l46 41q-25 31 -25 77z" />
    <glyph glyph-name="section" unicode="&#xa7;" horiz-adv-x="357" 
d="M100 311q12 -27 37 -39t54 -10q21 2 39 12.5t31.5 25.5t20.5 34t7 37q0 22 -9 39t-23 28.5t-32 16.5t-36 4q-29 -3 -50 -18.5t-33 -37t-14 -46.5t8 -46zM156 154l-69 150q-9 20 -9.5 42.5t7.5 43.5t23.5 39t36.5 30q29 15 59 13.5t54 -16.5q-14 27 -25.5 54.5l-23.5 55.5
q-22 49 -22 74t12 41t36 28l42 21q1 -3 2.5 -6t2.5 -6l-26.5 -14.5l-26.5 -14.5q-28 -15 -28 -43t24 -80l34 -75.5l34 -75.5q9 -20 9 -42t-8 -43t-23.5 -38.5t-36.5 -29.5q-29 -16 -59 -15t-54 17l26 -55t25 -55q22 -49 21.5 -74t-11.5 -41q-6 -8 -15.5 -15.5t-20.5 -13.5
t-22 -11l-20 -9l-6 12q14 8 27 14.5t27 14.5q28 15 28 43t-24 80z" />
    <glyph glyph-name="periodcentered" unicode="&#xb7;" horiz-adv-x="186" 
d="M72 278q0 9 7 15.5t16 6.5q8 0 13 -5t5 -13q0 -9 -7 -15.5t-16 -6.5q-8 0 -13 5t-5 13z" />
    <glyph glyph-name="ordmasculine" unicode="&#xba;" horiz-adv-x="400" 
d="M80 442q4 29 18 54.5t35.5 45t48.5 30.5t56 11q27 0 49.5 -10t39 -27.5t26 -40.5t9.5 -49q0 -32 -13 -60t-35 -49t-51 -33t-60 -12q-29 0 -53.5 11t-41 30t-24 44.5t-4.5 54.5zM90 442q-3 -27 4 -51t22.5 -41.5t38 -27.5t49.5 -10q29 0 55.5 11t47 30.5t32.5 45.5t12 56
q0 24 -8.5 45.5t-24 37.5t-36.5 25t-46 9q-27 0 -52 -10t-44.5 -28t-33 -41.5t-16.5 -50.5z" />
    <glyph glyph-name="macron" unicode="&#xaf;" horiz-adv-x="399" 
d="M145 492l2 14h230l-2 -14h-230z" />
    <glyph glyph-name="mu" unicode="&#xb5;" horiz-adv-x="499" 
d="M93 108l-38 -309h-13l38 309h13zM358 0h-10l11 98q-26 -48 -74 -76.5t-104 -28.5q-53 0 -80 31t-22 81l33 270h14l-34 -277q-3 -36 18.5 -62.5t65.5 -28.5q34 0 66 11t57.5 30.5t42.5 47t21 59.5l27 220h14z" />
    <glyph glyph-name="multiply" unicode="&#xd7;" horiz-adv-x="424" 
d="M301 0l-108 123l-68.5 -61.5l-68.5 -61.5q-2 2 -4.5 5t-4.5 5l68.5 61.5l68.5 61.5l-106 121l11 10l106 -121l69 61l69 61q2 -2 4.5 -5t4.5 -5l-69 -61l-69 -61l108 -123z" />
    <glyph glyph-name="O" unicode="O" horiz-adv-x="837" 
d="M70 349q9 74 45 139.5t90.5 114t123 77t142.5 28.5q69 0 127 -25t100.5 -69t66.5 -103t24 -126q0 -80 -33.5 -151.5t-89.5 -125t-129.5 -85t-153.5 -31.5q-74 0 -135.5 28t-104 76.5t-62.5 113.5t-11 139zM84 348q-9 -71 10.5 -133t60 -108.5t99 -73.5t128.5 -27
q76 0 147 30t125.5 81.5t87 120t32.5 145.5q0 64 -23 121t-64 99t-96.5 66.5t-121.5 24.5q-71 0 -136.5 -27.5t-118 -74.5t-87 -110t-43.5 -134z" />
    <glyph glyph-name="g" unicode="g" 
d="M33 168q0 44 18 83t48 68.5t69.5 46.5t83.5 17q62 0 106.5 -34.5t59.5 -88.5q4 29 8.5 57.5l9.5 57.5h10l-47 -383q-4 -32 -16.5 -63t-37.5 -55t-64 -39t-97 -15q-18 0 -36.5 2.5t-38 11t-41 23.5t-43.5 40l11 10q22 -24 42.5 -38.5t39 -22t35.5 -10t32 -2.5q53 0 89 13
t59 36t35 54.5t18 68.5q1 5 1 7.5t1 7t2 12l3 21.5q0 1 1.5 10.5t3 20.5t2.5 20.5t1 11.5q-14 -27 -34.5 -49.5t-46.5 -39t-55.5 -25.5t-60.5 -9q-37 0 -68.5 13.5t-54 37t-35.5 55t-13 68.5zM47 170q0 -34 12 -63.5t33 -51.5t50 -34.5t64 -12.5q40 0 77 15.5t65.5 42.5
t45 63t16.5 77q0 34 -12 64t-33.5 52t-51 34.5t-63.5 12.5q-41 0 -77.5 -16t-64.5 -43t-44.5 -63.5t-16.5 -76.5z" />
    <glyph glyph-name="d" unicode="d" 
d="M47 170q0 -34 12 -63.5t33 -51.5t50 -34.5t64 -12.5q40 0 77 15.5t65.5 42.5t45 63t16.5 77q0 34 -12 64t-33.5 52t-51 34.5t-63.5 12.5q-41 0 -77.5 -16t-64.5 -43t-44.5 -63.5t-16.5 -76.5zM33 168q0 44 18 83t48 68.5t69.5 46.5t83.5 17q62 0 106.5 -34.5t59.5 -88.5
q1 7 4 32l7.5 60.5l10 79t10.5 87.5q12 104 28 231h14l-92 -750h-14l7 54l4 31.5l4 31.5q-14 -27 -34.5 -49.5t-46.5 -39t-55.5 -25.5t-60.5 -9q-37 0 -68.5 13.5t-54 37t-35.5 55t-13 68.5z" />
    <glyph glyph-name="a" unicode="a" 
d="M47 170q0 -34 12 -63.5t33 -51.5t50 -34.5t64 -12.5q40 0 77 15.5t65.5 42.5t45 63t16.5 77q0 34 -12 64t-33.5 52t-51 34.5t-63.5 12.5q-41 0 -77.5 -16t-64.5 -43t-44.5 -63.5t-16.5 -76.5zM33 168q0 44 18 83t48 68.5t69.5 46.5t83.5 17q62 0 106.5 -34.5t59.5 -88.5
q4 29 8.5 57.5l9.5 57.5h10l-46 -375h-14l7 54l4 31.5l4 31.5q-14 -27 -34.5 -49.5t-46.5 -39t-55.5 -25.5t-60.5 -9q-37 0 -68.5 13.5t-54 37t-35.5 55t-13 68.5z" />
    <glyph glyph-name="n" unicode="n" horiz-adv-x="437" 
d="M88 375h10l-11 -98q26 47 73.5 76t104.5 29q53 0 80 -31t22 -81l-33 -270h-14l34 277q3 36 -18.5 62.5t-65.5 28.5q-34 0 -66 -11t-57.5 -30.5t-42.5 -47t-21 -59.5l-27 -220h-14z" />
    <glyph glyph-name="ogonek" unicode="&#x2db;" horiz-adv-x="833" 
d="M220 -16q-3 -21 -18.5 -32t-33.5 -22.5t-32.5 -27.5t-14.5 -47q0 -28 17 -46t45 -18q25 0 44.5 13.5t27.5 34.5q4 -1 7.5 -2t7.5 -2q-14 -29 -38.5 -43.5t-50.5 -14.5q-29 0 -51 19t-22 62q0 22 12.5 43t38.5 38q14 8 28.5 18.5t19.5 36.5l1 6h14z" />
    <glyph glyph-name="caron" unicode="&#x2c7;" horiz-adv-x="445" 
d="M291 479l-49 90.5l-49 90.5h16q22 -38 42.5 -77t42.5 -77l61.5 77l61.5 77h16l-71 -90.5z" />
    <glyph glyph-name="hungarumlaut" unicode="&#x2dd;" horiz-adv-x="436" 
d="M159 479l53 66.5l53 66.5h16l-53 -66.5l-53 -66.5h-16zM377 479l53 66.5l53 66.5h16l-53 -66.5l-53 -66.5h-16z" />
    <glyph glyph-name="dotaccent" unicode="&#x2d9;" horiz-adv-x="185" 
d="M128 498q0 9 7 15.5t16 6.5q8 0 13 -5t5 -13q0 -9 -7 -15.5t-16 -6.5q-8 0 -13 5t-5 13z" />
    <glyph glyph-name="breve" unicode="&#x2d8;" horiz-adv-x="509" 
d="M325 500q-33 0 -61 12t-47.5 33t-29 50t-6.5 62h15q-3 -29 5.5 -54.5t25.5 -45.5t42 -31.5t57 -11.5t60 11.5t49.5 31.5t35.5 45.5t18 54.5h16q-4 -33 -20.5 -62t-41 -50t-55 -33t-63.5 -12z" />
    <glyph glyph-name="Aogonek" unicode="&#x104;" horiz-adv-x="638" 
d="M171 318h309l2 14h-309zM561 0q-50 169 -91.5 337.5t-91.5 337.5q-2 6 -3 12.5t-3 12.5l-6 -12.5l-6 -12.5q-92 -169 -174.5 -337.5t-174.5 -337.5h-15l190 366l190 366q55 -184 100 -366t100 -366h-15zM573 -16q-3 -21 -18.5 -32l-33 -22.5t-32 -27.5t-14.5 -47
q0 -28 16.5 -46t44.5 -18q25 0 44.5 13.5t27.5 34.5q4 -1 7.5 -2t7.5 -2q-14 -29 -38 -43.5t-50 -14.5q-30 0 -52 19t-22 62q0 22 13 43t39 38q14 8 28 18.5t19 36.5l1 6h14z" />
    <glyph glyph-name="Lslash" unicode="&#x141;" horiz-adv-x="552" 
d="M60 279l2 14l328 115l-2 -14zM93 0l86 700h14l-85 -686h405l-1 -14h-419z" />
    <glyph glyph-name="Lcaron" unicode="&#x13d;" horiz-adv-x="546" 
d="M86 0l86 700h14l-84 -686h405l-2 -14h-419zM315 572q-1 5 -1.5 9t-2.5 9q24 20 37 49.5t10 64.5q5 2 10 3.5t10 3.5q4 -40 -13 -76.5t-50 -62.5z" />
    <glyph glyph-name="Sacute" unicode="&#x15a;" horiz-adv-x="534" 
d="M490 667l-7 -11q-26 12 -69 23.5t-87 11.5t-80.5 -13t-62.5 -34.5t-40 -50.5t-14 -60q0 -41 25 -65.5t63 -42.5t81.5 -33.5t81.5 -38t63 -56t25 -87.5q0 -50 -19 -90.5t-51.5 -69t-77 -43.5t-95.5 -15q-41 0 -74 9t-58.5 21t-42 24t-24.5 17l10 13q13 -11 33.5 -23
t46 -22.5t54.5 -17.5t60 -7q40 0 80 12.5t72 37.5t52 62.5t20 88.5q0 52 -25 84t-63 53t-81.5 36.5t-81.5 34t-63 44.5t-25 70q0 37 16.5 69t45 55.5t66 37t79.5 13.5q18 0 40 -2.5t44.5 -7.5t44 -12t38.5 -15zM289 750l53.5 66.5l53.5 66.5h16l-53.5 -66.5l-53.5 -66.5h-16
z" />
    <glyph glyph-name="Scaron" unicode="&#x160;" horiz-adv-x="534" 
d="M490 667l-7 -11q-26 12 -69 23.5t-87 11.5t-80.5 -13t-62.5 -34.5t-40 -50.5t-14 -60q0 -41 25 -65.5t63 -42.5t81.5 -33.5t81.5 -38t63 -56t25 -87.5q0 -50 -19 -90.5t-51.5 -69t-77 -43.5t-95.5 -15q-41 0 -74 9t-58.5 21t-42 24t-24.5 17l10 13q13 -11 33.5 -23
t46 -22.5t54.5 -17.5t60 -7q40 0 80 12.5t72 37.5t52 62.5t20 88.5q0 52 -25 84t-63 53t-81.5 36.5t-81.5 34t-63 44.5t-25 70q0 37 16.5 69t45 55.5t66 37t79.5 13.5q18 0 40 -2.5t44.5 -7.5t44 -12t38.5 -15zM322 729l-49 90.5l-49 90.5h16q22 -38 42.5 -77t42.5 -77
l61.5 77l61.5 77h16l-71 -90.5z" />
    <glyph glyph-name="Scedilla" unicode="&#x15e;" horiz-adv-x="534" 
d="M490 667l-7 -11q-26 12 -69 23.5t-87 11.5t-80.5 -13t-62.5 -34.5t-40 -50.5t-14 -60q0 -41 25 -65.5t63 -42.5t81.5 -33.5t81.5 -38t63 -56t25 -87.5q0 -50 -19 -90.5t-51.5 -69t-77 -43.5t-95.5 -15q-41 0 -74 9t-58.5 21t-42 24t-24.5 17l10 13q13 -11 33.5 -23
t46 -22.5t54.5 -17.5t60 -7q40 0 80 12.5t72 37.5t52 62.5t20 88.5q0 52 -25 84t-63 53t-81.5 36.5t-81.5 34t-63 44.5t-25 70q0 37 16.5 69t45 55.5t66 37t79.5 13.5q18 0 40 -2.5t44.5 -7.5t44 -12t38.5 -15zM218 0h15l-1 -6q-2 -13 0.5 -22t8 -15t12.5 -10t13 -8
q19 -14 26.5 -31t7.5 -30q0 -26 -8 -44.5t-21.5 -31.5t-31 -19t-35.5 -6q-26 0 -47 14.5t-27 43.5q4 1 7.5 2t7.5 2q4 -21 20 -34.5t41 -13.5q34 0 56.5 23t22.5 58q0 24 -11.5 37.5t-25 24t-24 21t-8.5 29.5z" />
    <glyph glyph-name="Tcaron" unicode="&#x164;" horiz-adv-x="495" 
d="M506 700l-2 -14h-200l-84 -686h-14l84 686h-200l2 14h414zM301 729l71.5 90.5l71.5 90.5h-16l-62 -77l-61 -77l-43 77l-42 77h-16l48.5 -90.5z" />
    <glyph glyph-name="Zacute" unicode="&#x179;" horiz-adv-x="623" 
d="M144 700h475l-602 -686h551l-2 -14h-576l300 348.5l299 337.5h-433q-31 0 -43.5 8t-10.5 37v4h16l-1 -12q-1 -9 4.5 -16t22.5 -7zM369 750l53 66.5l53 66.5h16l-53 -66.5l-53 -66.5h-16z" />
    <glyph glyph-name="Zcaron" unicode="&#x17d;" horiz-adv-x="623" 
d="M144 700h475l-602 -686h551l-2 -14h-576l300 348.5l299 337.5h-433q-31 0 -43.5 8t-10.5 37v4h16l-1 -12q-1 -9 4.5 -16t22.5 -7zM372 729l-49.5 90.5l-48.5 90.5h16l42 -77l43 -77l61 77l62 77h16l-71.5 -90.5z" />
    <glyph glyph-name="Zdotaccent" unicode="&#x17b;" horiz-adv-x="623" 
d="M144 700h475l-602 -686h551l-2 -14h-576l300 348.5l299 337.5h-433q-31 0 -43.5 8t-10.5 37v4h16l-1 -12q-1 -9 4.5 -16t22.5 -7zM359 755q0 9 7 15.5t15 6.5t13 -5t5 -13q0 -9 -7 -15.5t-16 -6.5q-8 0 -12.5 5t-4.5 13z" />
    <glyph glyph-name="aogonek" unicode="&#x105;" 
d="M47 170q0 -34 12 -63.5t33 -51.5t50 -34.5t64 -12.5q40 0 77 15.5t65.5 42.5t45 63t16.5 77q0 34 -12 64t-33.5 52t-51 34.5t-63.5 12.5q-41 0 -77.5 -16t-64.5 -43t-44.5 -63.5t-16.5 -76.5zM33 168q0 44 18 83t48 68.5t69.5 46.5t83.5 17q62 0 106.5 -34.5t59.5 -88.5
q4 29 8.5 57.5l9.5 57.5h10l-46 -375h-14l7 54l4 31.5l4 31.5q-14 -27 -34.5 -49.5t-46.5 -39t-55.5 -25.5t-60.5 -9q-37 0 -68.5 13.5t-54 37t-35.5 55t-13 68.5zM401 0h-14l-1 -6q-5 -26 -19 -36.5t-28 -18.5q-26 -17 -39 -38t-13 -43q0 -43 22 -62t52 -19q26 0 50 14.5
t38 43.5q-4 1 -7.5 2t-7.5 2q-8 -21 -27.5 -34.5t-44.5 -13.5q-28 0 -44.5 18t-16.5 46q0 31 14.5 47t32 27.5l33 22.5t18.5 32z" />
    <glyph glyph-name="lslash" unicode="&#x142;" horiz-adv-x="188" 
d="M29 279l2 14l158 56l-2 -14zM66 0h-14l92 750h14z" />
    <glyph glyph-name="lcaron" unicode="&#x13e;" horiz-adv-x="172" 
d="M60 0h-14l92 750h14zM197 572q-1 5 -1.5 9t-2.5 9q24 20 37 49.5t10 64.5q5 2 10 3.5t10 3.5q4 -40 -13 -76.5t-50 -62.5z" />
    <glyph glyph-name="sacute" unicode="&#x15b;" horiz-adv-x="314" 
d="M263 336l-5 -5t-6 -5q-7 10 -17 17.5t-22 12t-24 7t-22 2.5q-14 0 -30.5 -4.5t-31 -15t-24.5 -27t-10 -39.5q0 -24 13.5 -38.5t33 -24.5t43 -17.5t43 -18t33 -27t13.5 -43.5q0 -22 -8.5 -43.5t-25 -38t-40.5 -26.5t-55 -10q-27 0 -58.5 10.5t-49.5 36.5l12 9q5 -9 17 -17
t26 -13.5t29 -8.5t27 -3q13 0 32 5t37 16t30.5 30t12.5 48q0 26 -13.5 41t-33 25t-43 18t-43 18t-33 26t-13.5 43q0 26 10 45.5t26 32t36 19t40 6.5q22 0 49 -9.5t45 -33.5zM180 479l53 66.5l53 66.5h16l-53 -66.5l-53 -66.5h-16z" />
    <glyph glyph-name="scaron" unicode="&#x161;" horiz-adv-x="314" 
d="M263 336l-5 -5t-6 -5q-7 10 -17 17.5t-22 12t-24 7t-22 2.5q-14 0 -30.5 -4.5t-31 -15t-24.5 -27t-10 -39.5q0 -24 13.5 -38.5t33 -24.5t43 -17.5t43 -18t33 -27t13.5 -43.5q0 -22 -8.5 -43.5t-25 -38t-40.5 -26.5t-55 -10q-27 0 -58.5 10.5t-49.5 36.5l12 9q5 -9 17 -17
t26 -13.5t29 -8.5t27 -3q13 0 32 5t37 16t30.5 30t12.5 48q0 26 -13.5 41t-33 25t-43 18t-43 18t-33 26t-13.5 43q0 26 10 45.5t26 32t36 19t40 6.5q22 0 49 -9.5t45 -33.5zM182 479l71 90.5l71 90.5h-16l-61 -77l-62 -77l-42 77l-43 77h-16l49 -90.5z" />
    <glyph glyph-name="scedilla" unicode="&#x15f;" horiz-adv-x="314" 
d="M263 336l-5 -5t-6 -5q-7 10 -17 17.5t-22 12t-24 7t-22 2.5q-14 0 -30.5 -4.5t-31 -15t-24.5 -27t-10 -39.5q0 -24 13.5 -38.5t33 -24.5t43 -17.5t43 -18t33 -27t13.5 -43.5q0 -22 -8.5 -43.5t-25 -38t-40.5 -26.5t-55 -10q-27 0 -58.5 10.5t-49.5 36.5l12 9q5 -9 17 -17
t26 -13.5t29 -8.5t27 -3q13 0 32 5t37 16t30.5 30t12.5 48q0 26 -13.5 41t-33 25t-43 18t-43 18t-33 26t-13.5 43q0 26 10 45.5t26 32t36 19t40 6.5q22 0 49 -9.5t45 -33.5zM108 0h14l-1 -6q-2 -13 1 -22t8.5 -15t12.5 -10t13 -8q19 -14 26.5 -31t7.5 -30q0 -26 -8 -44.5
t-21.5 -31.5t-31 -19t-35.5 -6q-26 0 -47 14.5t-27 43.5q4 1 7.5 2t7.5 2q4 -21 20 -34.5t41 -13.5q33 0 56 23t23 58q0 24 -11.5 37.5t-25 24t-24 21t-8.5 29.5z" />
    <glyph glyph-name="tcaron" unicode="&#x165;" horiz-adv-x="261" 
d="M139 539h14l-21 -172h127l-2 -14h-127l-43 -353h-14l43 353h-89l2 14h89zM241 572q-1 5 -2 9t-2 9q23 20 36 49.5t11 64.5q5 2 10 3.5t10 3.5q3 -40 -14 -76.5t-49 -62.5z" />
    <glyph glyph-name="zacute" unicode="&#x17a;" horiz-adv-x="349" 
d="M280 0h-279l304 361h-207q-31 0 -43.5 8t-10.5 37v4h13l-1 -12q-1 -9 6 -16t24 -7h245l-304 -361h255zM174 479l53 66.5l53 66.5h16l-53 -66.5l-53 -66.5h-16z" />
    <glyph glyph-name="zcaron" unicode="&#x17e;" horiz-adv-x="349" 
d="M280 0h-279l304 361h-207q-31 0 -43.5 8t-10.5 37v4h13l-1 -12q-1 -9 6 -16t24 -7h245l-304 -361h255zM207 479l-49 90.5l-49 90.5h16q22 -38 42.5 -77t42.5 -77l61.5 77l61.5 77h16l-71 -90.5z" />
    <glyph glyph-name="zdotaccent" unicode="&#x17c;" horiz-adv-x="349" 
d="M280 0h-279l304 361h-207q-31 0 -43.5 8t-10.5 37v4h13l-1 -12q-1 -9 6 -16t24 -7h245l-304 -361h255zM169 498q0 9 7 15.5t16 6.5q8 0 13 -5t5 -13q0 -9 -7 -15.5t-16 -6.5q-8 0 -13 5t-5 13z" />
    <glyph glyph-name="Racute" unicode="&#x154;" horiz-adv-x="566" 
d="M339 337l161 -337h-18l-159 337h16zM141 335h115q64 0 106.5 22t68 53.5t36 66t10.5 60.5q0 33 -13 60.5t-36.5 47t-56 30.5t-71.5 11h-116zM86 0l86 700h140q27 0 58.5 -8.5t58 -27.5t44.5 -50.5t18 -76.5q0 -40 -14.5 -78.5t-44 -69t-75 -49.5t-106.5 -19h-112
l-39 -321h-14zM330 750l53 66.5l53 66.5h16l-53 -66.5l-53 -66.5h-16z" />
    <glyph glyph-name="Abreve" unicode="&#x102;" horiz-adv-x="638" 
d="M171 318h309l2 14h-309zM576 0q-55 184 -100 366t-100 366l-190 -366l-190 -366h15q92 169 174.5 337.5t174.5 337.5l6 12.5l6 12.5q2 -6 3 -12.5t3 -12.5q50 -169 91.5 -337.5t91.5 -337.5h15zM379 750q-33 0 -61 12t-47.5 33t-29 50t-6.5 62h15q-3 -29 5.5 -54.5
t26 -45.5t42.5 -31.5t57 -11.5t59.5 11.5t49 31.5t35.5 45.5t18 54.5h16q-4 -33 -20.5 -62t-41 -50t-55 -33t-63.5 -12z" />
    <glyph glyph-name="Lacute" unicode="&#x139;" horiz-adv-x="546" 
d="M86 0l86 700h14l-84 -686h405l-2 -14h-419zM340 750l53 66.5l53 66.5h16l-53 -66.5l-53 -66.5h-16z" />
    <glyph glyph-name="Cacute" unicode="&#x106;" horiz-adv-x="647" 
d="M573 42q-43 -23 -90.5 -36.5t-101.5 -13.5q-73 0 -131 25t-98.5 68t-62 100.5t-21.5 122.5q0 83 33.5 156t89 127t128.5 85.5t153 31.5q51 0 95 -13t82 -37l-9 -12q-35 23 -78 35.5t-91 12.5q-77 0 -147 -30.5t-124 -83t-86 -122.5t-32 -150q0 -62 20 -116.5t58.5 -96
t93.5 -65.5t125 -24q52 0 98 12.5t88 35.5zM422 750l53.5 66.5l53.5 66.5h16l-53.5 -66.5l-53.5 -66.5h-16z" />
    <glyph glyph-name="Ccaron" unicode="&#x10c;" horiz-adv-x="647" 
d="M573 42q-43 -23 -90.5 -36.5t-101.5 -13.5q-73 0 -131 25t-98.5 68t-62 100.5t-21.5 122.5q0 83 33.5 156t89 127t128.5 85.5t153 31.5q51 0 95 -13t82 -37l-9 -12q-35 23 -78 35.5t-91 12.5q-77 0 -147 -30.5t-124 -83t-86 -122.5t-32 -150q0 -62 20 -116.5t58.5 -96
t93.5 -65.5t125 -24q52 0 98 12.5t88 35.5zM466 729l71 90.5l71 90.5h-16l-61.5 -77l-61.5 -77q-22 38 -42.5 77t-42.5 77h-16l49 -90.5z" />
    <glyph glyph-name="Eogonek" unicode="&#x118;" horiz-adv-x="606" 
d="M86 0l86 700h415l-2 -14h-401l-40 -326h362l-2 -14h-362l-40 -332h415l-2 -14h-429zM514 0h-14l-1 -6q-5 -26 -19 -36.5t-28 -18.5q-26 -17 -39 -38t-13 -43q0 -43 22 -62t52 -19q26 0 50 14.5t38 43.5q-4 1 -7.5 2t-7.5 2q-8 -21 -27.5 -34.5t-44.5 -13.5
q-28 0 -44.5 18t-16.5 46q0 31 14.5 47t32 27.5l33 22.5t18.5 32z" />
    <glyph glyph-name="Ecaron" unicode="&#x11a;" horiz-adv-x="606" 
d="M86 0l86 700h415l-2 -14h-401l-40 -326h362l-2 -14h-362l-40 -332h415l-2 -14h-429zM423 729l-49.5 90.5l-48.5 90.5h16l42 -77l43 -77l61 77l62 77h16l-71.5 -90.5z" />
    <glyph glyph-name="Dcaron" unicode="&#x10e;" horiz-adv-x="711" 
d="M172 700h143q96 0 162 -28t107 -73t59 -101t18 -111q0 -87 -33 -158.5t-88.5 -122.5t-127 -78.5t-149.5 -27.5h-177zM271 14q73 0 141 26.5t120.5 75t84 117t31.5 152.5q0 53 -17 106.5t-56 96.5t-101 70t-152 27h-138l-41 -335.5l-41 -335.5h169zM384 729l-49.5 90.5
l-48.5 90.5h16l42 -77l43 -77l61 77l62 77h16l-71.5 -90.5z" />
    <glyph glyph-name="Dcroat" unicode="&#x110;" horiz-adv-x="717" 
d="M84 400h281l-2 -14h-281zM179 700h143q96 0 161.5 -28t106.5 -73t59 -101t18 -111q0 -87 -33 -158.5t-88 -122.5t-126.5 -78.5t-149.5 -27.5h-177zM277 14q73 0 141.5 26.5t120.5 75t83.5 117t31.5 152.5q0 53 -17 106.5t-55.5 96.5t-100.5 70t-152 27h-138l-41.5 -335.5
l-41.5 -335.5h169z" />
    <glyph glyph-name="Nacute" unicode="&#x143;" horiz-adv-x="808" 
d="M742 700l-90 -732l-233.5 353.5l-221.5 348.5q-4 7 -8 13t-8 13v-32l-82 -664h-14l90 732l117.5 -179.5l112 -176l111 -174l113.5 -174.5q4 -7 8 -13t8 -13q1 8 1 16v16l82 666h14zM458 750l53 66.5l53 66.5h16l-53 -66.5l-53 -66.5h-16z" />
    <glyph glyph-name="Ncaron" unicode="&#x147;" horiz-adv-x="808" 
d="M742 700l-90 -732l-233.5 353.5l-221.5 348.5q-4 7 -8 13t-8 13v-32l-82 -664h-14l90 732l117.5 -179.5l112 -176l111 -174l113.5 -174.5q4 -7 8 -13t8 -13q1 8 1 16v16l82 666h14zM471 729l70.5 90.5l71.5 90.5h-16l-62 -77l-61 -77l-43 77l-42 77h-16l48.5 -90.5z" />
    <glyph glyph-name="Ohungarumlaut" unicode="&#x150;" horiz-adv-x="837" 
d="M70 349q9 74 45 139.5t90.5 114t123 77t142.5 28.5q69 0 127 -25t100.5 -69t66.5 -103t24 -126q0 -80 -33.5 -151.5t-89.5 -125t-129.5 -85t-153.5 -31.5q-74 0 -135.5 28t-104 76.5t-62.5 113.5t-11 139zM84 348q-9 -71 10.5 -133t60 -108.5t99 -73.5t128.5 -27
q76 0 147 30t125.5 81.5t87 120t32.5 145.5q0 64 -23 121t-64 99t-96.5 66.5t-121.5 24.5q-71 0 -136.5 -27.5t-118 -74.5t-87 -110t-43.5 -134zM355 750l53 66.5l53 66.5h16l-53 -66.5l-53 -66.5h-16zM573 750l53 66.5l53 66.5h16l-53 -66.5l-53 -66.5h-16z" />
    <glyph glyph-name="Rcaron" unicode="&#x158;" horiz-adv-x="566" 
d="M339 337l161 -337h-18l-159 337h16zM141 335h115q64 0 106.5 22t68 53.5t36 66t10.5 60.5q0 33 -13 60.5t-36.5 47t-56 30.5t-71.5 11h-116zM86 0l86 700h140q27 0 58.5 -8.5t58 -27.5t44.5 -50.5t18 -76.5q0 -40 -14.5 -78.5t-44 -69t-75 -49.5t-106.5 -19h-112
l-39 -321h-14zM333 729l-49.5 90.5l-48.5 90.5h16l42 -77l43 -77l61 77l62 77h16l-71.5 -90.5z" />
    <glyph glyph-name="Uring" unicode="&#x16e;" horiz-adv-x="668" 
d="M358 809q0 -18 12.5 -31.5t30.5 -13.5q21 0 38 16t17 37q0 18 -12.5 31.5t-30.5 13.5q-21 0 -38 -16t-17 -37zM343 806q0 29 21.5 49.5t50.5 20.5q25 0 40 -16t15 -40q0 -29 -21 -49.5t-50 -20.5q-25 0 -40.5 16t-15.5 40zM300 -8q-48 0 -87.5 15t-66 44.5t-38 73.5
t-4.5 101l58 474h14l-58 -471q-7 -54 3.5 -95.5t35.5 -70t62 -43t83 -14.5q45 0 85.5 14.5t72 43t52.5 70t28 95.5l58 471h14l-58 -474q-7 -57 -30 -101t-56.5 -73.5t-76.5 -44.5t-91 -15z" />
    <glyph glyph-name="Uhungarumlaut" unicode="&#x170;" horiz-adv-x="668" 
d="M300 -8q-48 0 -87.5 15t-66 44.5t-38 73.5t-4.5 101l58 474h14l-58 -471q-7 -54 3.5 -95.5t35.5 -70t62 -43t83 -14.5q45 0 85.5 14.5t72 43t52.5 70t28 95.5l58 471h14l-58 -474q-7 -57 -30 -101t-56.5 -73.5t-76.5 -44.5t-91 -15zM264 750l53.5 66.5l52.5 66.5h16
l-52.5 -66.5l-53.5 -66.5h-16zM482 750l53.5 66.5l52.5 66.5h16l-52.5 -66.5l-53.5 -66.5h-16z" />
    <glyph glyph-name="uni0162" unicode="&#x162;" horiz-adv-x="495" 
d="M506 700l-2 -14h-200l-84 -686h-14l84 686h-200l2 14h414zM219 -21l-55.5 -103l-55.5 -103h-14l51 103l51 103h23z" />
    <glyph glyph-name="racute" unicode="&#x155;" horiz-adv-x="260" 
d="M264 368q-33 -1 -64 -12.5t-55.5 -31t-41 -46.5t-20.5 -58l-27 -220h-14l46 375h10l-11 -98q27 48 74.5 75.5t104.5 29.5zM163 479l53 66.5l53 66.5h16l-53 -66.5l-53 -66.5h-16z" />
    <glyph glyph-name="abreve" unicode="&#x103;" 
d="M47 170q0 -34 12 -63.5t33 -51.5t50 -34.5t64 -12.5q40 0 77 15.5t65.5 42.5t45 63t16.5 77q0 34 -12 64t-33.5 52t-51 34.5t-63.5 12.5q-41 0 -77.5 -16t-64.5 -43t-44.5 -63.5t-16.5 -76.5zM33 168q0 44 18 83t48 68.5t69.5 46.5t83.5 17q62 0 106.5 -34.5t59.5 -88.5
q4 29 8.5 57.5l9.5 57.5h10l-46 -375h-14l7 54l4 31.5l4 31.5q-14 -27 -34.5 -49.5t-46.5 -39t-55.5 -25.5t-60.5 -9q-37 0 -68.5 13.5t-54 37t-35.5 55t-13 68.5zM293 500q-33 0 -60.5 12t-47 33t-29 50t-6.5 62h15q-3 -29 5 -54.5t25.5 -45.5t42.5 -31.5t57 -11.5
t59.5 11.5t49 31.5t35.5 45.5t19 54.5h16q-4 -33 -20.5 -62t-41.5 -50t-55.5 -33t-63.5 -12z" />
    <glyph glyph-name="lacute" unicode="&#x13a;" horiz-adv-x="172" 
d="M60 0h-14l92 750h14zM113 770l52.5 66.5l53.5 66.5h16l-53.5 -66.5l-52.5 -66.5h-16z" />
    <glyph glyph-name="cacute" unicode="&#x107;" horiz-adv-x="400" 
d="M324 47q2 -2 4.5 -5t4.5 -5q-28 -20 -60.5 -31.5t-67.5 -11.5q-38 0 -69.5 13.5t-54 37t-35.5 55t-13 68.5q0 44 18 83t48 68.5t69.5 46.5t83.5 17q35 0 65 -11.5t53 -31.5q-2 -3 -5.5 -5.5t-5.5 -5.5q-21 19 -48.5 29.5t-59.5 10.5q-41 0 -77.5 -16t-65 -43t-45 -63.5
t-16.5 -76.5q0 -34 12 -63.5t33 -51.5t50 -34.5t64 -12.5q32 0 62 10.5t56 28.5zM230 479l53.5 66.5l53.5 66.5h16l-53.5 -66.5l-53.5 -66.5h-16z" />
    <glyph glyph-name="ccaron" unicode="&#x10d;" horiz-adv-x="400" 
d="M324 47q2 -2 4.5 -5t4.5 -5q-28 -20 -60.5 -31.5t-67.5 -11.5q-38 0 -69.5 13.5t-54 37t-35.5 55t-13 68.5q0 44 18 83t48 68.5t69.5 46.5t83.5 17q35 0 65 -11.5t53 -31.5q-2 -3 -5.5 -5.5t-5.5 -5.5q-21 19 -48.5 29.5t-59.5 10.5q-41 0 -77.5 -16t-65 -43t-45 -63.5
t-16.5 -76.5q0 -34 12 -63.5t33 -51.5t50 -34.5t64 -12.5q32 0 62 10.5t56 28.5zM264 479l71.5 90.5l70.5 90.5h-16l-61 -77l-61 -77l-43 77l-43 77h-16l49.5 -90.5z" />
    <glyph glyph-name="eogonek" unicode="&#x119;" horiz-adv-x="434" 
d="M345 46q-29 -24 -65 -38t-75 -14q-38 0 -69.5 13.5t-54 37t-35.5 55t-13 68.5q0 44 18 83t48.5 68.5t70 47t83.5 17.5q62 0 100 -35.5t53 -89.5l-84.5 -32.5l-92 -35.5l-92 -35.5l-85.5 -33.5q14 -51 55 -82.5t99 -31.5q36 0 69.5 12.5t59.5 35.5zM388 266
q-16 45 -49.5 74t-87.5 29q-41 0 -77.5 -16t-65 -43.5t-45 -64.5t-16.5 -79v-15.5t2 -15.5l82 32l87 33.5l87.5 33.5zM216 0h-13l-1 -6q-5 -26 -19.5 -36.5t-28.5 -18.5q-26 -17 -38.5 -38t-12.5 -43q0 -43 21.5 -62t51.5 -19q26 0 50 14.5t38 43.5q-4 1 -7 2t-7 2
q-9 -21 -28 -34.5t-44 -13.5q-29 0 -45.5 18t-16.5 46q0 31 14.5 47t32.5 27.5t33.5 22.5t17.5 32z" />
    <glyph glyph-name="ecaron" unicode="&#x11b;" horiz-adv-x="434" 
d="M345 46q-29 -24 -65 -38t-75 -14q-38 0 -69.5 13.5t-54 37t-35.5 55t-13 68.5q0 44 18 83t48.5 68.5t70 47t83.5 17.5q62 0 100 -35.5t53 -89.5l-84.5 -32.5l-92 -35.5l-92 -35.5l-85.5 -33.5q14 -51 55 -82.5t99 -31.5q36 0 69.5 12.5t59.5 35.5zM388 266
q-16 45 -49.5 74t-87.5 29q-41 0 -77.5 -16t-65 -43.5t-45 -64.5t-16.5 -79v-15.5t2 -15.5l82 32l87 33.5l87.5 33.5zM258 479l-48.5 90.5l-49.5 90.5h16l43 -77l43 -77l61 77l61 77h16l-70.5 -90.5z" />
    <glyph glyph-name="dcaron" unicode="&#x10f;" 
d="M47 170q0 -34 12 -63.5t33 -51.5t50 -34.5t64 -12.5q40 0 77 15.5t65.5 42.5t45 63t16.5 77q0 34 -12 64t-33.5 52t-51 34.5t-63.5 12.5q-41 0 -77.5 -16t-64.5 -43t-44.5 -63.5t-16.5 -76.5zM33 168q0 44 18 83t48 68.5t69.5 46.5t83.5 17q62 0 106.5 -34.5t59.5 -88.5
q1 7 4 32l7.5 60.5l10 79t10.5 87.5q12 104 28 231h14l-92 -750h-14l7 54l4 31.5l4 31.5q-14 -27 -34.5 -49.5t-46.5 -39t-55.5 -25.5t-60.5 -9q-37 0 -68.5 13.5t-54 37t-35.5 55t-13 68.5zM536 572q-1 5 -1.5 9t-2.5 9q24 20 37 49.5t10 64.5q5 2 10 3.5t10 3.5
q4 -40 -13 -76.5t-50 -62.5z" />
    <glyph glyph-name="dcroat" unicode="&#x111;" 
d="M262 616h281l1 14h-281zM47 170q0 -34 12 -63.5t33 -51.5t50 -34.5t64 -12.5q40 0 77 15.5t65.5 42.5t45 63t16.5 77q0 34 -12 64t-33.5 52t-51 34.5t-63.5 12.5q-41 0 -77.5 -16t-64.5 -43t-44.5 -63.5t-16.5 -76.5zM33 168q0 44 18 83t48 68.5t69.5 46.5t83.5 17
q62 0 106.5 -34.5t59.5 -88.5q1 7 4 32l7.5 60.5l10 79t10.5 87.5q12 104 28 231h14l-92 -750h-14l7 54l4 31.5l4 31.5q-14 -27 -34.5 -49.5t-46.5 -39t-55.5 -25.5t-60.5 -9q-37 0 -68.5 13.5t-54 37t-35.5 55t-13 68.5z" />
    <glyph glyph-name="nacute" unicode="&#x144;" horiz-adv-x="437" 
d="M88 375h10l-11 -98q26 47 73.5 76t104.5 29q53 0 80 -31t22 -81l-33 -270h-14l34 277q3 36 -18.5 62.5t-65.5 28.5q-34 0 -66 -11t-57.5 -30.5t-42.5 -47t-21 -59.5l-27 -220h-14zM224 479l53 66.5l53 66.5h16l-53 -66.5l-53 -66.5h-16z" />
    <glyph glyph-name="ncaron" unicode="&#x148;" horiz-adv-x="437" 
d="M88 375h10l-11 -98q26 47 73.5 76t104.5 29q53 0 80 -31t22 -81l-33 -270h-14l34 277q3 36 -18.5 62.5t-65.5 28.5q-34 0 -66 -11t-57.5 -30.5t-42.5 -47t-21 -59.5l-27 -220h-14zM248 479l-49 90.5l-49 90.5h16q22 -38 42.5 -77t42.5 -77l61.5 77l61.5 77h16l-71 -90.5z
" />
    <glyph glyph-name="ohungarumlaut" unicode="&#x151;" horiz-adv-x="478" 
d="M34 188q5 40 24.5 76t49 62.5t66.5 42t78 15.5q37 0 69 -13.5t55.5 -37.5t36.5 -56t13 -69q0 -44 -18.5 -83t-49 -68t-71 -46t-83.5 -17q-41 0 -74 15t-56 41.5t-34 61.5t-6 76zM48 188q-5 -38 5.5 -70.5t31.5 -57t52 -38.5t69 -14q40 0 77 15.5t65.5 42.5t45 63t16.5 77
q0 34 -12 64t-33.5 52t-51 34.5t-63.5 12.5q-38 0 -72.5 -14t-61.5 -39t-45.5 -58t-22.5 -70zM143 479l53 66.5l53 66.5h16l-53 -66.5l-53 -66.5h-16zM361 479l53 66.5l53 66.5h16l-53 -66.5l-53 -66.5h-16z" />
    <glyph glyph-name="rcaron" unicode="&#x159;" horiz-adv-x="260" 
d="M264 368q-33 -1 -64 -12.5t-55.5 -31t-41 -46.5t-20.5 -58l-27 -220h-14l46 375h10l-11 -98q27 48 74.5 75.5t104.5 29.5zM176 479l-49 90.5l-49 90.5h16q22 -38 42.5 -77t42.5 -77l61.5 77l61.5 77h16l-71 -90.5z" />
    <glyph glyph-name="uring" unicode="&#x16f;" horiz-adv-x="437" 
d="M196 465q0 -18 13 -31.5t31 -13.5q21 0 38 16t17 37q0 18 -12.5 31.5t-30.5 13.5q-21 0 -38.5 -16t-17.5 -37zM182 462q0 29 21.5 49.5t50.5 20.5q25 0 40 -16t15 -40q0 -29 -21 -49.5t-50 -20.5q-25 0 -40.5 16t-15.5 40zM329 0h-10l11 98q-26 -48 -74 -76.5t-104 -28.5
q-53 0 -80 31t-22 81l33 270h14l-34 -277q-3 -36 18.5 -62.5t65.5 -28.5q34 0 66 11t57.5 30.5t42.5 47t21 59.5l27 220h14z" />
    <glyph glyph-name="uhungarumlaut" unicode="&#x171;" horiz-adv-x="437" 
d="M329 0h-10l11 98q-26 -48 -74 -76.5t-104 -28.5q-53 0 -80 31t-22 81l33 270h14l-34 -277q-3 -36 18.5 -62.5t65.5 -28.5q34 0 66 11t57.5 30.5t42.5 47t21 59.5l27 220h14zM120 479l53 66.5l53 66.5h16l-53 -66.5l-53 -66.5h-16zM338 479l53 66.5l53 66.5h16l-53 -66.5
l-53 -66.5h-16z" />
    <glyph glyph-name="uni0163" unicode="&#x163;" horiz-adv-x="261" 
d="M139 539h14l-21 -172h127l-2 -14h-127l-43 -353h-14l43 353h-89l2 14h89zM93 -21l-55.5 -103l-55.5 -103h-14l51 103l51 103h23z" />
    <glyph glyph-name="Hbar" unicode="&#x126;" horiz-adv-x="749" 
d="M78 492l2 14h650l-2 -14h-650zM96 0l86 700h14l-42 -340h464l42 340h18l-45.5 -350l-44.5 -350h-14l42 346h-464l-42 -346h-14z" />
    <glyph glyph-name="Hcircumflex" unicode="&#x124;" horiz-adv-x="732" 
d="M86 0l86 700h14l-42 -340h464l42 340h18l-45 -350l-45 -350h-14l42 346h-464l-42 -346h-14zM450 931l49 -90.5l49 -90.5h-16q-22 38 -42.5 77t-42.5 77l-61.5 -77l-61.5 -77h-16l71 90.5z" />
    <glyph glyph-name="Idotaccent" unicode="&#x130;" horiz-adv-x="252" 
d="M172 700h14l-86 -700h-14zM167 768q0 9 7 15.5t16 6.5q8 0 13 -5t5 -13q0 -9 -7 -15.5t-16 -6.5q-8 0 -13 5t-5 13z" />
    <glyph glyph-name="Gbreve" unicode="&#x11e;" horiz-adv-x="678" 
d="M604 300l-32 -258q-42 -23 -89.5 -36.5t-98.5 -13.5q-74 0 -133 24.5t-99.5 67.5t-62 101t-21.5 124q0 82 33.5 154.5t89 127t128.5 86t153 31.5q51 0 95 -13t82 -37l-9 -12q-74 48 -170 48q-76 0 -146 -30.5t-124 -83t-86 -122.5t-32 -149q0 -63 20.5 -118.5t59 -96.5
t94.5 -64.5t127 -23.5q47 0 91 11.5t85 33.5l29 235h-172l2 14h186zM454 749q-33 0 -61 12t-47.5 33t-29 50t-6.5 62h15q-3 -29 5.5 -54.5t26 -45.5t42.5 -31.5t57 -11.5t59.5 11.5t49 31.5t35.5 45.5t18 54.5h16q-4 -33 -20 -62t-41 -50t-55.5 -33t-63.5 -12z" />
    <glyph glyph-name="Jcircumflex" unicode="&#x134;" horiz-adv-x="253" 
d="M-100 -142l2 14q37 2 70 17.5t59.5 44t44.5 68.5t24 91l75 607h13l-75 -610q-7 -56 -27 -98.5t-48.5 -71.5t-64 -45t-73.5 -17zM210 931l48.5 -90.5l49.5 -90.5h-16l-43 77l-43 77l-61 -77l-61 -77h-16l70.5 90.5z" />
    <glyph glyph-name="hbar" unicode="&#x127;" horiz-adv-x="437" 
d="M57 571l2 14h230l-2 -14h-230zM134 750h14l-57 -467q12 21 30 39t40.5 31.5t49 21t54.5 7.5q53 0 80 -31t22 -81l-33 -270h-14l34 277q3 36 -18.5 62.5t-65.5 28.5q-34 0 -66 -11t-57.5 -30.5t-42.5 -47t-21 -59.5l-27 -220h-14z" />
    <glyph glyph-name="hcircumflex" unicode="&#x125;" horiz-adv-x="437" 
d="M134 750h14l-57 -467q12 21 30 39t40.5 31.5t49 21t54.5 7.5q53 0 80 -31t22 -81l-33 -270h-14l34 277q3 36 -18.5 62.5t-65.5 28.5q-34 0 -66 -11t-57.5 -30.5t-42.5 -47t-21 -59.5l-27 -220h-14zM326 931l49 -90.5l49 -90.5h-16q-22 38 -42.5 77t-42.5 77l-61.5 -77
l-61.5 -77h-16l71 90.5z" />
    <glyph glyph-name="dotlessi" unicode="&#x131;" horiz-adv-x="164" 
d="M56 0h-14l46 375h14z" />
    <glyph glyph-name="gbreve" unicode="&#x11f;" 
d="M33 168q0 44 18 83t48 68.5t69.5 46.5t83.5 17q62 0 106.5 -34.5t59.5 -88.5q4 29 8.5 57.5l9.5 57.5h10l-47 -383q-4 -32 -16.5 -63t-37.5 -55t-64 -39t-97 -15q-18 0 -36.5 2.5t-38 11t-41 23.5t-43.5 40l11 10q22 -24 42.5 -38.5t39 -22t35.5 -10t32 -2.5q53 0 89 13
t59 36t35 54.5t18 68.5q1 5 1 7.5t1 7t2 12l3 21.5q0 1 1.5 10.5t3 20.5t2.5 20.5t1 11.5q-14 -27 -34.5 -49.5t-46.5 -39t-55.5 -25.5t-60.5 -9q-37 0 -68.5 13.5t-54 37t-35.5 55t-13 68.5zM47 170q0 -34 12 -63.5t33 -51.5t50 -34.5t64 -12.5q40 0 77 15.5t65.5 42.5
t45 63t16.5 77q0 34 -12 64t-33.5 52t-51 34.5t-63.5 12.5q-41 0 -77.5 -16t-64.5 -43t-44.5 -63.5t-16.5 -76.5zM290 500q-33 0 -60.5 12t-47 33t-29 50t-6.5 62h15q-3 -29 5 -54.5t25.5 -45.5t42.5 -31.5t57 -11.5t59.5 11.5t49 31.5t35.5 45.5t19 54.5h16
q-4 -33 -20.5 -62t-41.5 -50t-55.5 -33t-63.5 -12z" />
    <glyph glyph-name="jcircumflex" unicode="&#x135;" horiz-adv-x="164" 
d="M-23 -180q-3 2 -5.5 4.5t-5.5 4.5q29 28 49 68.5t26 91.5l47 386h14l-47 -382q-7 -57 -27.5 -100.5t-50.5 -72.5zM131 659l49 -90.5l49 -90.5h-16l-43 77l-42 77l-62 -77l-61 -77h-16l71 90.5z" />
    <glyph glyph-name="Cdotaccent" unicode="&#x10a;" horiz-adv-x="647" 
d="M573 42q-43 -23 -90.5 -36.5t-101.5 -13.5q-73 0 -131 25t-98.5 68t-62 100.5t-21.5 122.5q0 83 33.5 156t89 127t128.5 85.5t153 31.5q51 0 95 -13t82 -37l-9 -12q-35 23 -78 35.5t-91 12.5q-77 0 -147 -30.5t-124 -83t-86 -122.5t-32 -150q0 -62 20 -116.5t58.5 -96
t93.5 -65.5t125 -24q52 0 98 12.5t88 35.5zM440 768q0 9 7 15.5t15 6.5t13 -5t5 -13q0 -9 -7 -15.5t-16 -6.5q-8 0 -12.5 5t-4.5 13z" />
    <glyph glyph-name="Ccircumflex" unicode="&#x108;" horiz-adv-x="647" 
d="M573 42q-43 -23 -90.5 -36.5t-101.5 -13.5q-73 0 -131 25t-98.5 68t-62 100.5t-21.5 122.5q0 83 33.5 156t89 127t128.5 85.5t153 31.5q51 0 95 -13t82 -37l-9 -12q-35 23 -78 35.5t-91 12.5q-77 0 -147 -30.5t-124 -83t-86 -122.5t-32 -150q0 -62 20 -116.5t58.5 -96
t93.5 -65.5t125 -24q52 0 98 12.5t88 35.5zM494 931l48.5 -90.5l48.5 -90.5h-16l-42 77l-43 77l-61 -77l-62 -77h-16l71.5 90.5z" />
    <glyph glyph-name="Gdotaccent" unicode="&#x120;" horiz-adv-x="678" 
d="M604 300l-32 -258q-42 -23 -89.5 -36.5t-98.5 -13.5q-74 0 -133 24.5t-99.5 67.5t-62 101t-21.5 124q0 82 33.5 154.5t89 127t128.5 86t153 31.5q51 0 95 -13t82 -37l-9 -12q-74 48 -170 48q-76 0 -146 -30.5t-124 -83t-86 -122.5t-32 -149q0 -63 20.5 -118.5t59 -96.5
t94.5 -64.5t127 -23.5q47 0 91 11.5t85 33.5l29 235h-172l2 14h186zM440 768q0 9 6.5 15.5t15.5 6.5q8 0 13 -5t5 -13q0 -9 -7 -15.5t-16 -6.5q-8 0 -12.5 5t-4.5 13z" />
    <glyph glyph-name="Gcircumflex" unicode="&#x11c;" horiz-adv-x="678" 
d="M604 300l-32 -258q-42 -23 -89.5 -36.5t-98.5 -13.5q-74 0 -133 24.5t-99.5 67.5t-62 101t-21.5 124q0 82 33.5 154.5t89 127t128.5 86t153 31.5q51 0 95 -13t82 -37l-9 -12q-74 48 -170 48q-76 0 -146 -30.5t-124 -83t-86 -122.5t-32 -149q0 -63 20.5 -118.5t59 -96.5
t94.5 -64.5t127 -23.5q47 0 91 11.5t85 33.5l29 235h-172l2 14h186zM488 931l48.5 -90.5l48.5 -90.5h-16l-42 77l-43 77l-61 -77l-62 -77h-16l71.5 90.5z" />
    <glyph glyph-name="Ubreve" unicode="&#x16c;" horiz-adv-x="668" 
d="M300 -8q-48 0 -87.5 15t-66 44.5t-38 73.5t-4.5 101l58 474h14l-58 -471q-7 -54 3.5 -95.5t35.5 -70t62 -43t83 -14.5q45 0 85.5 14.5t72 43t52.5 70t28 95.5l58 471h14l-58 -474q-7 -57 -30 -101t-56.5 -73.5t-76.5 -44.5t-91 -15zM402 749q-33 0 -61 12t-47.5 33
t-29 50t-6.5 62h15q-3 -29 5.5 -54.5t26 -45.5t42.5 -31.5t57 -11.5t59.5 11.5t49 31.5t35.5 45.5t18 54.5h16q-4 -33 -20.5 -62t-41 -50t-55 -33t-63.5 -12z" />
    <glyph glyph-name="Scircumflex" unicode="&#x15c;" horiz-adv-x="534" 
d="M490 667l-7 -11q-26 12 -69 23.5t-87 11.5t-80.5 -13t-62.5 -34.5t-40 -50.5t-14 -60q0 -41 25 -65.5t63 -42.5t81.5 -33.5t81.5 -38t63 -56t25 -87.5q0 -50 -19 -90.5t-51.5 -69t-77 -43.5t-95.5 -15q-41 0 -74 9t-58.5 21t-42 24t-24.5 17l10 13q13 -11 33.5 -23
t46 -22.5t54.5 -17.5t60 -7q40 0 80 12.5t72 37.5t52 62.5t20 88.5q0 52 -25 84t-63 53t-81.5 36.5t-81.5 34t-63 44.5t-25 70q0 37 16.5 69t45 55.5t66 37t79.5 13.5q18 0 40 -2.5t44.5 -7.5t44 -12t38.5 -15zM355 931l48.5 -90.5l48.5 -90.5h-16l-42 77l-43 77l-61 -77
l-62 -77h-16l71.5 90.5z" />
    <glyph glyph-name="cdotaccent" unicode="&#x10b;" horiz-adv-x="400" 
d="M324 47q2 -2 4.5 -5t4.5 -5q-28 -20 -60.5 -31.5t-67.5 -11.5q-38 0 -69.5 13.5t-54 37t-35.5 55t-13 68.5q0 44 18 83t48 68.5t69.5 46.5t83.5 17q35 0 65 -11.5t53 -31.5q-2 -3 -5.5 -5.5t-5.5 -5.5q-21 19 -48.5 29.5t-59.5 10.5q-41 0 -77.5 -16t-65 -43t-45 -63.5
t-16.5 -76.5q0 -34 12 -63.5t33 -51.5t50 -34.5t64 -12.5q32 0 62 10.5t56 28.5zM246 498q0 9 6.5 15.5t15.5 6.5q8 0 13 -5t5 -13q0 -9 -7 -15.5t-16 -6.5q-8 0 -12.5 5t-4.5 13z" />
    <glyph glyph-name="ccircumflex" unicode="&#x109;" horiz-adv-x="400" 
d="M324 47q2 -2 4.5 -5t4.5 -5q-28 -20 -60.5 -31.5t-67.5 -11.5q-38 0 -69.5 13.5t-54 37t-35.5 55t-13 68.5q0 44 18 83t48 68.5t69.5 46.5t83.5 17q35 0 65 -11.5t53 -31.5q-2 -3 -5.5 -5.5t-5.5 -5.5q-21 19 -48.5 29.5t-59.5 10.5q-41 0 -77.5 -16t-65 -43t-45 -63.5
t-16.5 -76.5q0 -34 12 -63.5t33 -51.5t50 -34.5t64 -12.5q32 0 62 10.5t56 28.5zM277 659l49 -90.5l49 -90.5h-16q-22 38 -42.5 77t-42.5 77l-61.5 -77l-61.5 -77h-16l71 90.5z" />
    <glyph glyph-name="gdotaccent" unicode="&#x121;" 
d="M33 168q0 44 18 83t48 68.5t69.5 46.5t83.5 17q62 0 106.5 -34.5t59.5 -88.5q4 29 8.5 57.5l9.5 57.5h10l-47 -383q-4 -32 -16.5 -63t-37.5 -55t-64 -39t-97 -15q-18 0 -36.5 2.5t-38 11t-41 23.5t-43.5 40l11 10q22 -24 42.5 -38.5t39 -22t35.5 -10t32 -2.5q53 0 89 13
t59 36t35 54.5t18 68.5q1 5 1 7.5t1 7t2 12l3 21.5q0 1 1.5 10.5t3 20.5t2.5 20.5t1 11.5q-14 -27 -34.5 -49.5t-46.5 -39t-55.5 -25.5t-60.5 -9q-37 0 -68.5 13.5t-54 37t-35.5 55t-13 68.5zM47 170q0 -34 12 -63.5t33 -51.5t50 -34.5t64 -12.5q40 0 77 15.5t65.5 42.5
t45 63t16.5 77q0 34 -12 64t-33.5 52t-51 34.5t-63.5 12.5q-41 0 -77.5 -16t-64.5 -43t-44.5 -63.5t-16.5 -76.5zM268 498q0 9 7 15.5t16 6.5q8 0 13 -5t5 -13q0 -9 -7 -15.5t-16 -6.5q-8 0 -13 5t-5 13z" />
    <glyph glyph-name="gcircumflex" unicode="&#x11d;" 
d="M33 168q0 44 18 83t48 68.5t69.5 46.5t83.5 17q62 0 106.5 -34.5t59.5 -88.5q4 29 8.5 57.5l9.5 57.5h10l-47 -383q-4 -32 -16.5 -63t-37.5 -55t-64 -39t-97 -15q-18 0 -36.5 2.5t-38 11t-41 23.5t-43.5 40l11 10q22 -24 42.5 -38.5t39 -22t35.5 -10t32 -2.5q53 0 89 13
t59 36t35 54.5t18 68.5q1 5 1 7.5t1 7t2 12l3 21.5q0 1 1.5 10.5t3 20.5t2.5 20.5t1 11.5q-14 -27 -34.5 -49.5t-46.5 -39t-55.5 -25.5t-60.5 -9q-37 0 -68.5 13.5t-54 37t-35.5 55t-13 68.5zM47 170q0 -34 12 -63.5t33 -51.5t50 -34.5t64 -12.5q40 0 77 15.5t65.5 42.5
t45 63t16.5 77q0 34 -12 64t-33.5 52t-51 34.5t-63.5 12.5q-41 0 -77.5 -16t-64.5 -43t-44.5 -63.5t-16.5 -76.5zM306 660l49 -90.5l49 -90.5h-16l-43 77l-42 77l-62 -77l-61 -77h-16l71 90.5z" />
    <glyph glyph-name="ubreve" unicode="&#x16d;" horiz-adv-x="437" 
d="M329 0h-10l11 98q-26 -48 -74 -76.5t-104 -28.5q-53 0 -80 31t-22 81l33 270h14l-34 -277q-3 -36 18.5 -62.5t65.5 -28.5q34 0 66 11t57.5 30.5t42.5 47t21 59.5l27 220h14zM246 500q-33 0 -61 12t-47.5 33t-29 50t-6.5 62h15q-3 -29 5.5 -54.5t25.5 -45.5t42 -31.5
t57 -11.5t60 11.5t49.5 31.5t35.5 45.5t18 54.5h16q-4 -33 -20.5 -62t-41 -50t-55 -33t-63.5 -12z" />
    <glyph glyph-name="scircumflex" unicode="&#x15d;" horiz-adv-x="314" 
d="M263 336l-5 -5t-6 -5q-7 10 -17 17.5t-22 12t-24 7t-22 2.5q-14 0 -30.5 -4.5t-31 -15t-24.5 -27t-10 -39.5q0 -24 13.5 -38.5t33 -24.5t43 -17.5t43 -18t33 -27t13.5 -43.5q0 -22 -8.5 -43.5t-25 -38t-40.5 -26.5t-55 -10q-27 0 -58.5 10.5t-49.5 36.5l12 9q5 -9 17 -17
t26 -13.5t29 -8.5t27 -3q13 0 32 5t37 16t30.5 30t12.5 48q0 26 -13.5 41t-33 25t-43 18t-43 18t-33 26t-13.5 43q0 26 10 45.5t26 32t36 19t40 6.5q22 0 49 -9.5t45 -33.5zM195 660l49 -90.5l49 -90.5h-16q-22 38 -42.5 77t-42.5 77l-61.5 -77l-61.5 -77h-16l71 90.5z" />
    <glyph glyph-name="oe" unicode="&#x153;" horiz-adv-x="654" 
d="M326 32q-27 -18 -57.5 -28t-63.5 -10q-38 0 -69.5 13.5t-54 37t-35.5 55t-13 68.5q0 44 18 83t48.5 68.5t70 47t83.5 17.5q32 0 60 -10t50 -27l-13 -10q-20 15 -45 23.5t-54 8.5q-41 0 -77.5 -16t-65 -43t-45 -63.5t-16.5 -76.5q0 -34 12 -63.5t33 -51.5t50 -34.5
t64 -12.5q29 0 56.5 8.5t50.5 23.5zM565 46q-29 -24 -65 -38t-75 -14q-38 0 -69.5 13.5t-54 37t-35.5 55t-13 68.5q0 44 18 83t48.5 68.5t70 47t83.5 17.5q62 0 100 -35.5t53 -89.5l-84.5 -32.5l-92 -35.5l-92 -35.5l-85.5 -33.5q14 -51 55 -82.5t99 -31.5q36 0 69.5 12.5
t59.5 35.5zM608 266q-16 45 -49.5 74t-87.5 29q-41 0 -77.5 -16t-65 -43.5t-45 -64.5t-16.5 -79v-15.5t2 -15.5l82 32l87 33.5l87.5 33.5z" />
    <glyph glyph-name="OE" unicode="&#x152;" horiz-adv-x="944" 
d="M474 3q-46 -11 -90 -11q-68 0 -126 25t-100 68.5t-66 102t-24 125.5q0 81 33.5 152.5t89 125.5t128.5 85.5t153 31.5q47 0 89 -12l-17 -10q-37 8 -74 8q-76 0 -146 -30.5t-124 -82.5t-86 -121.5t-32 -146.5q0 -64 22.5 -120t63 -97.5t95.5 -65.5t120 -24q39 0 78 9z
M454 0l86 700h385l-2 -14h-371l-40 -326h332l-2 -14h-332l-40 -332h385l-2 -14h-399z" />
    <glyph glyph-name="Ydieresis" unicode="&#x178;" horiz-adv-x="595" 
d="M304 262l-32 -262h-14l32 262l-104.5 219l-104.5 219h17l96.5 -200.5l95.5 -201.5l9 -26q5 7 8 13t7 13l144.5 201l144.5 201h17zM424 788q0 9 7 15.5t16 6.5q8 0 12.5 -5t4.5 -13q0 -9 -7 -15.5t-15 -6.5t-13 5t-5 13zM259 788q0 9 7 15.5t16 6.5q8 0 12.5 -5t4.5 -13
q0 -9 -7 -15.5t-15 -6.5t-13 5t-5 13z" />
    <glyph glyph-name="Etilde" unicode="&#x1ebc;" horiz-adv-x="606" 
d="M86 0l86 700h415l-2 -14h-401l-40 -326h362l-2 -14h-362l-40 -332h415l-2 -14h-429zM406 790q-14 18 -25 24t-25 6q-8 0 -19 -2.5t-21.5 -8.5t-19.5 -16.5t-13 -27.5q-3 1 -6.5 1t-6.5 1q7 37 34.5 52t55.5 15q20 0 35.5 -10.5t29.5 -27.5q14 -18 25 -24t25 -6
q8 0 19 2.5t21.5 8.5t19.5 16.5t13 27.5q3 -1 6.5 -1t6.5 -1q-7 -37 -35 -52t-56 -15q-20 0 -35 10.5t-29 27.5z" />
    <glyph glyph-name="uni0156" unicode="&#x156;" horiz-adv-x="566" 
d="M339 337l161 -337h-18l-159 337h16zM141 335h115q64 0 106.5 22t68 53.5t36 66t10.5 60.5q0 33 -13 60.5t-36.5 47t-56 30.5t-71.5 11h-116zM86 0l86 700h140q27 0 58.5 -8.5t58 -27.5t44.5 -50.5t18 -76.5q0 -40 -14.5 -78.5t-44 -69t-75 -49.5t-106.5 -19h-112
l-39 -321h-14zM251 -21l-55 -103l-56 -103h-14l51 103l51 103h23z" />
    <glyph glyph-name="Itilde" unicode="&#x128;" horiz-adv-x="252" 
d="M172 700h14l-86 -700h-14zM181 785q-14 18 -25 24t-25 6q-8 0 -19 -2.5t-21.5 -8.5t-19.5 -16.5t-13 -27.5q-3 1 -6.5 1t-6.5 1q7 37 34.5 52t55.5 15q20 0 35 -10.5t29 -27.5q14 -18 25.5 -24t25.5 -6q8 0 19 2.5t21.5 8.5t19.5 16.5t13 27.5q3 -1 6.5 -1t5.5 -1
q-7 -37 -34.5 -52t-55.5 -15q-20 0 -35 10.5t-29 27.5z" />
    <glyph glyph-name="uni013B" unicode="&#x13b;" horiz-adv-x="546" 
d="M86 0l86 700h14l-84 -686h405l-2 -14h-419zM331 -21l-55 -103l-56 -103h-14l51 103l51 103h23z" />
    <glyph glyph-name="Emacron" unicode="&#x112;" horiz-adv-x="606" 
d="M86 0l86 700h415l-2 -14h-401l-40 -326h362l-2 -14h-362l-40 -332h415l-2 -14h-429zM268 750l2 14h230l-2 -14h-230z" />
    <glyph glyph-name="uni0122" unicode="&#x122;" horiz-adv-x="678" 
d="M604 300l-32 -258q-42 -23 -89.5 -36.5t-98.5 -13.5q-74 0 -133 24.5t-99.5 67.5t-62 101t-21.5 124q0 82 33.5 154.5t89 127t128.5 86t153 31.5q51 0 95 -13t82 -37l-9 -12q-74 48 -170 48q-76 0 -146 -30.5t-124 -83t-86 -122.5t-32 -149q0 -63 20.5 -118.5t59 -96.5
t94.5 -64.5t127 -23.5q47 0 91 11.5t85 33.5l29 235h-172l2 14h186zM374 -21l-56 -103l-56 -103h-14l51.5 103l51.5 103h23z" />
    <glyph glyph-name="Tbar" unicode="&#x166;" horiz-adv-x="497" 
d="M506 700l-2 -14h-200l-84 -686h-14l84 686h-200l2 14h414zM158 492l2 14h230l-2 -14h-230z" />
    <glyph glyph-name="uni0157" unicode="&#x157;" horiz-adv-x="260" 
d="M264 368q-33 -1 -64 -12.5t-55.5 -31t-41 -46.5t-20.5 -58l-27 -220h-14l46 375h10l-11 -98q27 48 74.5 75.5t104.5 29.5zM117 -21l-55.5 -103l-55.5 -103h-14l51 103l51 103h23z" />
    <glyph glyph-name="emacron" unicode="&#x113;" horiz-adv-x="434" 
d="M345 46q-29 -24 -65 -38t-75 -14q-38 0 -69.5 13.5t-54 37t-35.5 55t-13 68.5q0 44 18 83t48.5 68.5t70 47t83.5 17.5q62 0 100 -35.5t53 -89.5l-84.5 -32.5l-92 -35.5l-92 -35.5l-85.5 -33.5q14 -51 55 -82.5t99 -31.5q36 0 69.5 12.5t59.5 35.5zM388 266
q-16 45 -49.5 74t-87.5 29q-41 0 -77.5 -16t-65 -43.5t-45 -64.5t-16.5 -79v-15.5t2 -15.5l82 32l87 33.5l87.5 33.5zM145 492l2 14h230l-2 -14h-230z" />
    <glyph glyph-name="uni0123" unicode="&#x123;" 
d="M33 168q0 44 18 83t48 68.5t69.5 46.5t83.5 17q62 0 106.5 -34.5t59.5 -88.5q4 29 8.5 57.5l9.5 57.5h10l-47 -383q-4 -32 -16.5 -63t-37.5 -55t-64 -39t-97 -15q-18 0 -36.5 2.5t-38 11t-41 23.5t-43.5 40l11 10q22 -24 42.5 -38.5t39 -22t35.5 -10t32 -2.5q53 0 89 13
t59 36t35 54.5t18 68.5q1 5 1 7.5t1 7t2 12l3 21.5q0 1 1.5 10.5t3 20.5t2.5 20.5t1 11.5q-14 -27 -34.5 -49.5t-46.5 -39t-55.5 -25.5t-60.5 -9q-37 0 -68.5 13.5t-54 37t-35.5 55t-13 68.5zM47 170q0 -34 12 -63.5t33 -51.5t50 -34.5t64 -12.5q40 0 77 15.5t65.5 42.5
t45 63t16.5 77q0 34 -12 64t-33.5 52t-51 34.5t-63.5 12.5q-41 0 -77.5 -16t-64.5 -43t-44.5 -63.5t-16.5 -76.5zM272 507l56 103l56 103h14l-51.5 -103l-51.5 -103h-23z" />
    <glyph glyph-name="tbar" unicode="&#x167;" horiz-adv-x="261" 
d="M139 539h14l-21 -172h127l-2 -14h-127l-43 -353h-14l43 353h-89l2 14h89zM47 492l2 14h230l-2 -14h-230z" />
    <glyph glyph-name="Amacron" unicode="&#x100;" horiz-adv-x="638" 
d="M171 318h309l2 14h-309zM576 0q-55 184 -100 366t-100 366l-190 -366l-190 -366h15q92 169 174.5 337.5t174.5 337.5l6 12.5l6 12.5q2 -6 3 -12.5t3 -12.5q50 -169 91.5 -337.5t91.5 -337.5h15zM263 752l2 14h230l-2 -14h-230z" />
    <glyph glyph-name="Iogonek" unicode="&#x12e;" horiz-adv-x="252" 
d="M172 700h14l-86 -700h-14zM102 0h-14l-1 -6q-5 -26 -19.5 -36.5t-28.5 -18.5q-26 -17 -38.5 -38t-12.5 -43q0 -43 22 -62t51 -19q26 0 50.5 14.5t38.5 43.5q-4 1 -7.5 2t-7.5 2q-8 -21 -27.5 -34.5t-44.5 -13.5q-28 0 -45 18t-17 46q0 31 14.5 47t32.5 27.5t33.5 22.5
t18.5 32z" />
    <glyph glyph-name="itilde" unicode="&#x129;" horiz-adv-x="164" 
d="M56 0h-14l46 375h14zM100 485q-14 18 -25 24t-25 6q-8 0 -19 -2.5t-21.5 -8.5t-19.5 -16.5t-13 -27.5q-3 1 -6.5 1t-6.5 1q7 37 34.5 52t55.5 15q20 0 35 -10.5t29 -27.5q14 -18 25.5 -24t25.5 -6q8 0 19 2.5t21.5 8.5t19.5 16.5t13 27.5q3 -1 6.5 -1t5.5 -1
q-7 -37 -34.5 -52t-55.5 -15q-20 0 -35 10.5t-29 27.5z" />
    <glyph glyph-name="uni013C" unicode="&#x13c;" horiz-adv-x="172" 
d="M60 0h-14l92 750h14zM81 -21l-55.5 -103l-55.5 -103h-14l51 103l51 103h23z" />
    <glyph glyph-name="Edotaccent" unicode="&#x116;" horiz-adv-x="606" 
d="M86 0l86 700h415l-2 -14h-401l-40 -326h362l-2 -14h-362l-40 -332h415l-2 -14h-429zM387 768q0 9 7 15.5t16 6.5q8 0 13 -5t5 -13q0 -9 -7 -15.5t-16 -6.5q-8 0 -13 5t-5 13z" />
    <glyph glyph-name="Imacron" unicode="&#x12a;" horiz-adv-x="252" 
d="M172 700h14l-86 -700h-14zM71 752l2 14h230l-2 -14h-230z" />
    <glyph glyph-name="uni0145" unicode="&#x145;" horiz-adv-x="808" 
d="M743 700l-90 -732l-233.5 353.5l-221.5 348.5q-4 7 -8 13t-8 13v-32l-82 -664h-14l90 732l117.5 -179.5l112 -176l111 -174l113.5 -174.5q4 -7 8 -13t8 -13q1 8 1 16v16l82 666h14zM360 -21l-55 -103l-56 -103h-14l51 103l51 103h23z" />
    <glyph glyph-name="uni0136" unicode="&#x136;" horiz-adv-x="586" 
d="M529 0l-137.5 207l-137.5 207l-58 -49l-58 -49q-10 -79 -19 -158t-19 -158h-14l86 700h14l-42 -340q-1 -8 -2 -14.5t-2 -14.5q5 5 9.5 10t9.5 10l204.5 174.5l204.5 174.5h22l-324 -276l141.5 -212l141.5 -212h-20zM314 -21l-55 -103l-56 -103h-14l51 103l51 103h23z" />
    <glyph glyph-name="uni0146" unicode="&#x146;" horiz-adv-x="437" 
d="M88 375h10l-11 -98q26 47 73.5 76t104.5 29q53 0 80 -31t22 -81l-33 -270h-14l34 277q3 36 -18.5 62.5t-65.5 28.5q-34 0 -66 -11t-57.5 -30.5t-42.5 -47t-21 -59.5l-27 -220h-14zM207 -21l-55 -103l-56 -103h-14l51 103l51 103h23z" />
    <glyph glyph-name="uni0137" unicode="&#x137;" horiz-adv-x="363" 
d="M326 384q2 -2 4 -5t4 -5l-81.5 -69.5l-81.5 -69.5l71.5 -117.5l71.5 -117.5h-18l-69.5 112.5l-68.5 112.5l-41.5 -35l-41.5 -35l-19 -155h-14l92 750h14l-70 -574l123.5 104zM207 -21l-55 -103l-56 -103h-14l51 103l51 103h23z" />
    <glyph glyph-name="Omacron" unicode="&#x14c;" horiz-adv-x="837" 
d="M70 349q9 74 45 139.5t90.5 114t123 77t142.5 28.5q69 0 127 -25t100.5 -69t66.5 -103t24 -126q0 -80 -33.5 -151.5t-89.5 -125t-129.5 -85t-153.5 -31.5q-74 0 -135.5 28t-104 76.5t-62.5 113.5t-11 139zM84 348q-9 -71 10.5 -133t60 -108.5t99 -73.5t128.5 -27
q76 0 147 30t125.5 81.5t87 120t32.5 145.5q0 64 -23 121t-64 99t-96.5 66.5t-121.5 24.5q-71 0 -136.5 -27.5t-118 -74.5t-87 -110t-43.5 -134zM364 752l2 14h230l-2 -14h-230z" />
    <glyph glyph-name="Umacron" unicode="&#x16a;" horiz-adv-x="668" 
d="M300 -8q-48 0 -87.5 15t-66 44.5t-38 73.5t-4.5 101l58 474h14l-58 -471q-7 -54 3.5 -95.5t35.5 -70t62 -43t83 -14.5q45 0 85.5 14.5t72 43t52.5 70t28 95.5l58 471h14l-58 -474q-7 -57 -30 -101t-56.5 -73.5t-76.5 -44.5t-91 -15zM293 752l2 14h230l-2 -14h-230z" />
    <glyph glyph-name="omacron" unicode="&#x14d;" horiz-adv-x="478" 
d="M34 188q5 40 24.5 76t49 62.5t66.5 42t78 15.5q37 0 69 -13.5t55.5 -37.5t36.5 -56t13 -69q0 -44 -18.5 -83t-49 -68t-71 -46t-83.5 -17q-41 0 -74 15t-56 41.5t-34 61.5t-6 76zM48 188q-5 -38 5.5 -70.5t31.5 -57t52 -38.5t69 -14q40 0 77 15.5t65.5 42.5t45 63t16.5 77
q0 34 -12 64t-33.5 52t-51 34.5t-63.5 12.5q-38 0 -72.5 -14t-61.5 -39t-45.5 -58t-22.5 -70zM151 492l2 14h230l-2 -14h-230z" />
    <glyph glyph-name="umacron" unicode="&#x16b;" horiz-adv-x="437" 
d="M329 0h-10l11 98q-26 -48 -74 -76.5t-104 -28.5q-53 0 -80 31t-22 81l33 270h14l-34 -277q-3 -36 18.5 -62.5t65.5 -28.5q34 0 66 11t57.5 30.5t42.5 47t21 59.5l27 220h14zM129 492l1 14h230l-1 -14h-230z" />
    <glyph glyph-name="amacron" unicode="&#x101;" 
d="M47 170q0 -34 12 -63.5t33 -51.5t50 -34.5t64 -12.5q40 0 77 15.5t65.5 42.5t45 63t16.5 77q0 34 -12 64t-33.5 52t-51 34.5t-63.5 12.5q-41 0 -77.5 -16t-64.5 -43t-44.5 -63.5t-16.5 -76.5zM33 168q0 44 18 83t48 68.5t69.5 46.5t83.5 17q62 0 106.5 -34.5t59.5 -88.5
q4 29 8.5 57.5l9.5 57.5h10l-46 -375h-14l7 54l4 31.5l4 31.5q-14 -27 -34.5 -49.5t-46.5 -39t-55.5 -25.5t-60.5 -9q-37 0 -68.5 13.5t-54 37t-35.5 55t-13 68.5zM175 492l2 14h230l-2 -14h-230z" />
    <glyph glyph-name="Uogonek" unicode="&#x172;" horiz-adv-x="668" 
d="M300 -8q-48 0 -87.5 15t-66 44.5t-38 73.5t-4.5 101l58 474h14l-58 -471q-7 -54 3.5 -95.5t35.5 -70t62 -43t83 -14.5q45 0 85.5 14.5t72 43t52.5 70t28 95.5l58 471h14l-58 -474q-7 -57 -30 -101t-56.5 -73.5t-76.5 -44.5t-91 -15zM338 0h-14l-1 -6q-5 -26 -19 -36.5
t-28 -18.5q-26 -17 -39 -38t-13 -43q0 -43 22 -62t52 -19q26 0 50 14.5t38 43.5q-4 1 -7.5 2t-7.5 2q-8 -21 -27.5 -34.5t-44.5 -13.5q-28 0 -44.5 18t-16.5 46q0 31 14.5 47t32 27.5l33 22.5t18.5 32z" />
    <glyph glyph-name="imacron" unicode="&#x12b;" horiz-adv-x="164" 
d="M56 0h-14l46 375h14zM-6 492l2 14h230l-2 -14h-230z" />
    <glyph glyph-name="uogonek" unicode="&#x173;" horiz-adv-x="437" 
d="M329 0h-10l11 98q-26 -48 -74 -76.5t-104 -28.5q-53 0 -80 31t-22 81l33 270h14l-34 -277q-3 -36 18.5 -62.5t65.5 -28.5q34 0 66 11t57.5 30.5t42.5 47t21 59.5l27 220h14zM329 0h-14l-1 -6q-5 -26 -19 -36.5t-28 -18.5q-26 -17 -39 -38t-13 -43q0 -43 22 -62t52 -19
q26 0 50 14.5t38 43.5q-4 1 -7.5 2t-7.5 2q-8 -21 -27 -34.5t-44 -13.5q-29 0 -45.5 18t-16.5 46q0 31 14.5 47t32 27.5l33 22.5t18.5 32z" />
    <glyph glyph-name="Utilde" unicode="&#x168;" horiz-adv-x="668" 
d="M300 -8q-48 0 -87.5 15t-66 44.5t-38 73.5t-4.5 101l58 474h14l-58 -471q-7 -54 3.5 -95.5t35.5 -70t62 -43t83 -14.5q45 0 85.5 14.5t72 43t52.5 70t28 95.5l58 471h14l-58 -474q-7 -57 -30 -101t-56.5 -73.5t-76.5 -44.5t-91 -15zM405 785q-14 18 -25.5 24t-25.5 6
q-8 0 -19 -2.5t-21.5 -8.5t-19.5 -16.5t-13 -27.5q-3 1 -6.5 1t-5.5 1q7 37 34.5 52t55.5 15q20 0 35 -10.5t29 -27.5q14 -18 25 -24t25 -6q8 0 19 2.5t21.5 8.5t19.5 16.5t13 27.5q3 -1 6.5 -1t6.5 -1q-7 -37 -34.5 -52t-55.5 -15q-20 0 -35 10.5t-29 27.5z" />
    <glyph glyph-name="utilde" unicode="&#x169;" horiz-adv-x="437" 
d="M329 0h-10l11 98q-26 -48 -74 -76.5t-104 -28.5q-53 0 -80 31t-22 81l33 270h14l-34 -277q-3 -36 18.5 -62.5t65.5 -28.5q34 0 66 11t57.5 30.5t42.5 47t21 59.5l27 220h14zM241 485q-14 18 -25.5 24t-25.5 6q-8 0 -19 -2.5t-21.5 -8.5t-19 -16.5t-12.5 -27.5
q-3 1 -6.5 1t-6.5 1q7 37 34.5 52t55.5 15q20 0 35 -10.5t29 -27.5q14 -18 25.5 -24t25.5 -6q8 0 19 2.5t21.5 8.5t19.5 16.5t13 27.5q2 -1 5.5 -1t6.5 -1q-7 -37 -34.5 -52t-55.5 -15q-20 0 -35 10.5t-29 27.5z" />
    <glyph glyph-name="edotaccent" unicode="&#x117;" horiz-adv-x="434" 
d="M345 46q-29 -24 -65 -38t-75 -14q-38 0 -69.5 13.5t-54 37t-35.5 55t-13 68.5q0 44 18 83t48.5 68.5t70 47t83.5 17.5q62 0 100 -35.5t53 -89.5l-84.5 -32.5l-92 -35.5l-92 -35.5l-85.5 -33.5q14 -51 55 -82.5t99 -31.5q36 0 69.5 12.5t59.5 35.5zM388 266
q-16 45 -49.5 74t-87.5 29q-41 0 -77.5 -16t-65 -43.5t-45 -64.5t-16.5 -79v-15.5t2 -15.5l82 32l87 33.5l87.5 33.5zM241 498q0 9 6.5 15.5t15.5 6.5q8 0 13 -5t5 -13q0 -9 -7 -15.5t-16 -6.5q-8 0 -12.5 5t-4.5 13z" />
    <glyph glyph-name="iogonek" unicode="&#x12f;" horiz-adv-x="164" 
d="M90 498q0 9 7 15.5t16 6.5q8 0 12.5 -5t4.5 -13q0 -9 -6.5 -15.5t-15.5 -6.5q-8 0 -13 5t-5 13zM56 0h-14l46 375h14zM56 0h-14l-1 -6q-5 -26 -19.5 -36.5t-28.5 -18.5q-26 -17 -38.5 -38t-12.5 -43q0 -43 22 -62t51 -19q26 0 50.5 14.5t38.5 43.5q-4 1 -7.5 2t-7.5 2
q-8 -21 -27.5 -34.5t-44.5 -13.5q-29 0 -45.5 18t-16.5 46q0 31 14.5 47t32.5 27.5t33.5 22.5t18.5 32z" />
    <glyph glyph-name="ellipsis" unicode="&#x2026;" horiz-adv-x="512" 
d="M44 18q0 9 7 15.5t16 6.5q8 0 13 -5t5 -13q0 -9 -7 -15.5t-16 -6.5q-8 0 -13 5t-5 13zM207 18q0 9 7 15.5t16 6.5q8 0 13 -5t5 -13q0 -9 -7 -15.5t-16 -6.5q-8 0 -13 5t-5 13zM370 18q0 9 7 15.5t16 6.5q8 0 13 -5t5 -13q0 -9 -7 -15.5t-16 -6.5q-8 0 -13 5t-5 13z" />
    <glyph glyph-name="perthousand" unicode="&#x2030;" horiz-adv-x="909" 
d="M351 103q0 -36 24 -60.5t61 -24.5q21 0 40.5 8t34.5 22.5t24 33t9 39.5q0 36 -24 61t-61 25q-21 0 -40.5 -8.5t-34.5 -22.5t-24 -33t-9 -40zM434 4q-42 0 -69.5 28t-27.5 70q0 24 10.5 46t27.5 38t39.5 25.5t46.5 9.5q42 0 70 -28t28 -70q0 -24 -10.5 -46t-28 -38
t-40 -25.5t-46.5 -9.5zM81 379q0 -36 24 -60.5t61 -24.5q21 0 40.5 8t34.5 22.5t24 33t9 39.5q0 36 -24 61t-61 25q-21 0 -40.5 -8.5t-34.5 -22.5t-24 -33t-9 -40zM164 280q-42 0 -69.5 28t-27.5 70q0 24 10.5 46t27.5 38t39.5 25.5t46.5 9.5q42 0 70 -28t28 -70
q0 -24 -10.5 -46t-28 -38t-40 -25.5t-46.5 -9.5zM120 0l180 250l179 250h16l-179 -250l-180 -250h-16zM641 103q0 -36 24 -60.5t61 -24.5q21 0 40.5 8t34.5 22.5t24 33t9 39.5q0 36 -24 61t-61 25q-21 0 -40.5 -8.5t-34.5 -22.5t-24 -33t-9 -40zM724 4q-42 0 -69.5 28
t-27.5 70q0 24 10.5 46t27.5 38t39.5 25.5t46.5 9.5q42 0 70 -28t28 -70q0 -24 -10.5 -46t-28 -38t-40 -25.5t-46.5 -9.5z" />
    <glyph glyph-name="circumflex" unicode="&#x2c6;" horiz-adv-x="450" 
d="M313 660l49 -90.5l49 -90.5h-16q-22 38 -42.5 77t-42.5 77l-61.5 -77l-61.5 -77h-16l71 90.5z" />
    <glyph glyph-name="tilde" unicode="&#x2dc;" horiz-adv-x="593" 
d="M364 485q-14 18 -25 24t-25 6q-8 0 -19 -2.5t-21.5 -8.5t-19.5 -16.5t-13 -27.5q-3 1 -6.5 1t-6.5 1q7 37 34.5 52t55.5 15q20 0 35 -10.5t29 -27.5q14 -18 25.5 -24t25.5 -6q8 0 19 2.5t21.5 8.5t19.5 16.5t13 27.5q3 -1 6.5 -1t5.5 -1q-7 -37 -34.5 -52t-55.5 -15
q-20 0 -35 10.5t-29 27.5z" />
    <glyph glyph-name="fi" unicode="&#xfb01;" horiz-adv-x="447" 
d="M339 0h-14l46 375h14zM39 361l2 14h64l18 143q7 55 27 98t48.5 72t64.5 44.5t74 17.5l-2 -14q-34 0 -67 -15t-60 -43t-45.5 -67.5t-24.5 -88.5l-18 -147h260l-2 -14h-260l-44 -361h-14l44 361h-65z" />
    <glyph glyph-name="fl" unicode="&#xfb02;" horiz-adv-x="451" 
d="M339 0h-14l92 750h14zM39 358l2 14h65l18 146q7 55 27 98t48.5 72t64 44.5t73.5 17.5l-2 -14q-34 0 -67 -15t-60 -43t-45.5 -67.5t-24.5 -88.5l-18 -150h130l-2 -14h-130l-44 -358h-14l44 358h-65zM337 750h87l-2 -14h-87z" />
    <glyph glyph-name="ring" unicode="&#x2da;" horiz-adv-x="423" 
d="M239 465q0 -18 13 -31.5t31 -13.5q21 0 38 16t17 37q0 18 -12.5 31.5t-30.5 13.5q-21 0 -38.5 -16t-17.5 -37zM225 462q0 29 21 49.5t50 20.5q25 0 40.5 -16t15.5 -40q0 -29 -21 -49.5t-50 -20.5q-25 0 -40.5 16t-15.5 40z" />
    <glyph glyph-name="fraction" unicode="&#x2044;" horiz-adv-x="316" 
d="M-21 0l185.5 377.5l185.5 377.5h14l-185.5 -377.5l-185.5 -377.5h-14z" />
    <glyph glyph-name="florin" unicode="&#x192;" horiz-adv-x="284" 
d="M129 358l-37 -299q-7 -56 -27 -98.5t-48.5 -71.5t-64 -45t-73.5 -17l2 14q34 0 67 15t60 43t45.5 67.5t24.5 88.5l37 303h-65l2 14h65l18 146q7 55 27 98t48.5 72t64 44.5t73.5 17.5l-1 -14q-34 0 -67 -15t-60 -43t-46 -67.5t-25 -88.5l-18 -150h130l-2 -14h-130z" />
    <glyph glyph-name="dagger" unicode="&#x2020;" horiz-adv-x="328" 
d="M133 73l61 498h14l-61 -498h-14zM91 424l2 14h184l-2 -14h-184z" />
    <glyph glyph-name="daggerdbl" unicode="&#x2021;" horiz-adv-x="414" 
d="M361 294l-2 -14h-301l2 14h301zM176 73l61 498h14l-61 -498h-14zM134 424l1 14h184l-1 -14h-184z" />
    <glyph glyph-name="trademark" unicode="&#x2122;" horiz-adv-x="578" 
d="M254 757l-1 -6h-74l-31 -253h-4l31 253h-74l1 6h152zM305 768l50.5 -91.5l48.5 -83.5l25 31.5l34 42.5l40 49l42 52l-33 -270h-5l29 238q1 5 1.5 8.5t0.5 7.5l-70 -88l-66 -82q-10 16 -24 41l-27.5 50l-25 46.5t-16.5 32.5q0 -4 -0.5 -7.5t-1.5 -8.5l-29 -238h-6z" />
    <glyph glyph-name="minus" unicode="&#x2212;" horiz-adv-x="523" 
d="M431 186h-360l2 14h360z" />
    <glyph glyph-name="integral" unicode="&#x222b;" horiz-adv-x="289" 
d="M181 628q6 45 16 69.5t23.5 35t29.5 12t32 1.5h37l-2 -14h-57q-31 0 -44.5 -26t-21.5 -86l-75 -614q-7 -59 -17 -90.5t-23 -45.5t-29 -16t-36 -2h-37l2 14h57q31 0 44 26t21 86z" />
    <glyph glyph-name="product" unicode="&#x220f;" horiz-adv-x="419" 
d="M96 -50h-14l98 800h177l-98 -800h-14l97 786h-149z" />
    <glyph glyph-name="pi" unicode="&#x3c0;" horiz-adv-x="340" 
d="M104 306l-38 -306h-14l38 306h-51l2 14h266l-2 -14h-38l-38 -306h-14l38 306h-149z" />
    <glyph glyph-name="Euro" unicode="&#x20ac;" horiz-adv-x="553" 
d="M64 393h327l-2 -14h-327zM52 287h326l-2 -14h-326zM466 27q-60 -34 -124 -34q-55 0 -100 26.5t-75.5 71.5t-44 105.5t-4.5 130.5q6 48 27 105.5t59.5 107.5t94.5 84t131 34q40 0 65.5 -10t30.5 -14l-7 -10q-42 20 -91 20q-54 0 -103 -21.5t-88.5 -63t-67 -100
t-36.5 -131.5t4.5 -132t43.5 -101t73 -65t91 -23q56 0 110 28z" />
    <glyph glyph-name="lessequal" unicode="&#x2264;" horiz-adv-x="588" 
d="M503 236l-2 -16l-203 126.5l-204 126.5l234.5 126.5l234.5 126.5l-2 -16l-220 -118.5l-221 -118.5l192 -118.5zM447 96h-360l2 14h360z" />
    <glyph glyph-name="greaterequal" unicode="&#x2265;" horiz-adv-x="577" 
d="M87 236l221 118.5l220 118.5l-191 118.5l-192 118.5l2 16l204 -126.5l203 -126.5l-234.5 -126.5l-234.5 -126.5zM71 110h360l-2 -14h-360z" />
    <glyph glyph-name="notequal" unicode="&#x2260;" horiz-adv-x="640" 
d="M42 8l245 255.5l245 256.5l7 -8l-245 -256l-245 -256zM555 164l-2 -14h-506l2 14h506zM579 358l-2 -14h-506l2 14h506z" />
    <glyph glyph-name="approxequal" unicode="&#x2248;" horiz-adv-x="449" 
d="M209 207q-14 18 -25 24t-25 6q-8 0 -19 -2.5t-21.5 -8.5t-19.5 -16.5t-13 -27.5q-3 1 -6.5 1t-6.5 1q7 37 34.5 52t55.5 15q20 0 35 -10.5t29 -27.5q14 -18 25.5 -24t25.5 -6q8 0 19 2.5t21.5 8.5t19.5 16.5t13 27.5q3 -1 6.5 -1t5.5 -1q-7 -37 -34.5 -52t-55.5 -15
q-20 0 -35 10.5t-29 27.5zM228 357q-14 18 -25 24t-25 6q-8 0 -19 -2.5t-21.5 -8.5t-19.5 -16.5t-13 -27.5q-3 1 -6.5 1t-6.5 1q7 37 35 52t56 15q20 0 35 -10.5t29 -27.5q14 -18 25 -24t25 -6q8 0 19 2.5t21.5 8.5t19.5 16.5t13 27.5q3 -1 6.5 -1t6.5 -1q-7 -37 -34.5 -52
t-55.5 -15q-20 0 -35.5 10.5t-29.5 27.5z" />
    <glyph glyph-name="summation" unicode="&#x2211;" horiz-adv-x="448" 
d="M57 -42h294l12 -14h-327l163 403l-64 403h327l-16 -14h-294l61 -389z" />
    <glyph glyph-name="Omega" unicode="&#x2126;" horiz-adv-x="691" 
d="M372 14h204l-2 -14h-204zM47 14h215l-2 -14h-215zM372 14q39 14 77 36t69.5 54.5t53.5 76.5t30 102q9 73 -3.5 128t-42 91t-73.5 54t-98 18t-102.5 -17t-87.5 -52.5t-65.5 -89.5t-35.5 -127q-8 -59 4.5 -103.5t37 -77.5t58 -55.5t68.5 -37.5l-2 -14q-40 16 -74 38.5
t-58.5 53.5t-38 70t-13.5 89t17.5 109t55 110t97 84.5t142.5 33.5q66 0 110 -25t71 -63.5t38.5 -85.5t11.5 -92q0 -67 -18 -118.5t-50.5 -90.5t-78.5 -66.5t-102 -46.5z" />
    <glyph glyph-name="radical" unicode="&#x221a;" horiz-adv-x="552" 
d="M56 375h99l93 -266l292 490h16l-314 -537l-99 299h-89z" />
    <glyph glyph-name="Delta" unicode="&#x2206;" horiz-adv-x="422" 
d="M270 730l97 -444h-16l-87 397l-185 -397h-16zM76 300h284l-2 -14h-284z" />
    <glyph glyph-name="lozenge" unicode="&#x25ca;" horiz-adv-x="416" 
d="M72 396l193 334l111 -334l-193 -334zM88 396l101 -287l171 287l-101 287z" />
    <glyph glyph-name="infinity" unicode="&#x221e;" horiz-adv-x="479" 
d="M251 300q-1 -11 4.5 -19.5t15 -15.5t22.5 -10.5t26 -3.5q33 0 50 18.5t17 33.5t-13 30.5t-42 15.5q-13 0 -26.5 -3.5t-25 -10.5t-19.5 -16t-9 -19zM237 295q0 15 8.5 27.5t22 21.5t30.5 14t35 5q35 0 51 -18t16 -39q0 -24 -20.5 -46.5t-61.5 -22.5q-32 0 -56.5 16
t-24.5 42zM237 300q1 10 -4.5 19t-15 16t-22.5 10.5t-26 3.5q-32 0 -49 -18.5t-17 -33.5t12.5 -30.5t41.5 -15.5q13 0 27 3.5t25 10.5t19 15.5t9 19.5zM251 300q-3 -29 -32 -46t-63 -17q-35 0 -53 18t-18 40q0 25 23 46.5t63 21.5q17 0 32 -4.5t26.5 -13t17.5 -20t4 -25.5z
" />
    </font>
</defs>
</svg>
